<?xml version="1.0" encoding="utf-8" standalone="no"?>
<!DOCTYPE svg PUBLIC "-//W3C//DTD SVG 1.1//EN"
  "http://www.w3.org/Graphics/SVG/1.1/DTD/svg11.dtd">
<svg xmlns:xlink="http://www.w3.org/1999/xlink" width="460.8pt" height="345.6pt" viewBox="0 0 460.8 345.6" xmlns="http://www.w3.org/2000/svg" version="1.1">
 <metadata>
  <rdf:RDF xmlns:dc="http://purl.org/dc/elements/1.1/" xmlns:cc="http://creativecommons.org/ns#" xmlns:rdf="http://www.w3.org/1999/02/22-rdf-syntax-ns#">
   <cc:Work>
    <dc:type rdf:resource="http://purl.org/dc/dcmitype/StillImage"/>
    <dc:date>2023-04-12T11:42:43.527200</dc:date>
    <dc:format>image/svg+xml</dc:format>
    <dc:creator>
     <cc:Agent>
      <dc:title>Matplotlib v3.6.2, https://matplotlib.org/</dc:title>
     </cc:Agent>
    </dc:creator>
   </cc:Work>
  </rdf:RDF>
 </metadata>
 <defs>
  <style type="text/css">*{stroke-linejoin: round; stroke-linecap: butt}</style>
 </defs>
 <g id="figure_1">
  <g id="patch_1">
   <path d="M 0 345.6 
L 460.8 345.6 
L 460.8 0 
L 0 0 
z
" style="fill: #ffffff"/>
  </g>
  <g id="axes_1">
   <g id="patch_2">
    <path d="M 57.6 307.584 
L 414.72 307.584 
L 414.72 41.472 
L 57.6 41.472 
z
" style="fill: #ffffff"/>
   </g>
   <g id="PathCollection_1">
    <defs>
     <path id="m0648ec3c68" d="M 0 3 
C 0.795609 3 1.55874 2.683901 2.12132 2.12132 
C 2.683901 1.55874 3 0.795609 3 0 
C 3 -0.795609 2.683901 -1.55874 2.12132 -2.12132 
C 1.55874 -2.683901 0.795609 -3 0 -3 
C -0.795609 -3 -1.55874 -2.683901 -2.12132 -2.12132 
C -2.683901 -1.55874 -3 -0.795609 -3 0 
C -3 0.795609 -2.683901 1.55874 -2.12132 2.12132 
C -1.55874 2.683901 -0.795609 3 0 3 
z
" style="stroke: #ff0000"/>
    </defs>
    <g clip-path="url(#pe19b8e6f72)">
     <use xlink:href="#m0648ec3c68" x="150.606167" y="80.700855" style="fill: #ff0000; stroke: #ff0000"/>
     <use xlink:href="#m0648ec3c68" x="261.064152" y="92.777862" style="fill: #ff0000; stroke: #ff0000"/>
     <use xlink:href="#m0648ec3c68" x="292.56543" y="100.722389" style="fill: #ff0000; stroke: #ff0000"/>
     <use xlink:href="#m0648ec3c68" x="275.17643" y="89.505102" style="fill: #ff0000; stroke: #ff0000"/>
     <use xlink:href="#m0648ec3c68" x="295.936169" y="106.168465" style="fill: #ff0000; stroke: #ff0000"/>
     <use xlink:href="#m0648ec3c68" x="268.88962" y="85.537909" style="fill: #ff0000; stroke: #ff0000"/>
     <use xlink:href="#m0648ec3c68" x="254.654688" y="77.85762" style="fill: #ff0000; stroke: #ff0000"/>
     <use xlink:href="#m0648ec3c68" x="296.164555" y="98.574137" style="fill: #ff0000; stroke: #ff0000"/>
     <use xlink:href="#m0648ec3c68" x="281.550347" y="78.828441" style="fill: #ff0000; stroke: #ff0000"/>
     <use xlink:href="#m0648ec3c68" x="260.979079" y="91.106441" style="fill: #ff0000; stroke: #ff0000"/>
     <use xlink:href="#m0648ec3c68" x="275.065386" y="111.707819" style="fill: #ff0000; stroke: #ff0000"/>
     <use xlink:href="#m0648ec3c68" x="277.487153" y="97.813057" style="fill: #ff0000; stroke: #ff0000"/>
     <use xlink:href="#m0648ec3c68" x="128.94863" y="94.56678" style="fill: #ff0000; stroke: #ff0000"/>
     <use xlink:href="#m0648ec3c68" x="125.766509" y="91.180222" style="fill: #ff0000; stroke: #ff0000"/>
     <use xlink:href="#m0648ec3c68" x="250.605455" y="79.26557" style="fill: #ff0000; stroke: #ff0000"/>
     <use xlink:href="#m0648ec3c68" x="305.796361" y="79.295475" style="fill: #ff0000; stroke: #ff0000"/>
     <use xlink:href="#m0648ec3c68" x="131.415927" y="95.980339" style="fill: #ff0000; stroke: #ff0000"/>
     <use xlink:href="#m0648ec3c68" x="250.102053" y="53.568" style="fill: #ff0000; stroke: #ff0000"/>
     <use xlink:href="#m0648ec3c68" x="241.648985" y="88.167865" style="fill: #ff0000; stroke: #ff0000"/>
     <use xlink:href="#m0648ec3c68" x="318.900247" y="94.51395" style="fill: #ff0000; stroke: #ff0000"/>
     <use xlink:href="#m0648ec3c68" x="255.751836" y="97.387867" style="fill: #ff0000; stroke: #ff0000"/>
     <use xlink:href="#m0648ec3c68" x="316.029968" y="94.664105" style="fill: #ff0000; stroke: #ff0000"/>
     <use xlink:href="#m0648ec3c68" x="256.143266" y="94.469992" style="fill: #ff0000; stroke: #ff0000"/>
     <use xlink:href="#m0648ec3c68" x="220.067306" y="74.686913" style="fill: #ff0000; stroke: #ff0000"/>
     <use xlink:href="#m0648ec3c68" x="115.664069" y="74.567084" style="fill: #ff0000; stroke: #ff0000"/>
     <use xlink:href="#m0648ec3c68" x="239.934152" y="105.248936" style="fill: #ff0000; stroke: #ff0000"/>
     <use xlink:href="#m0648ec3c68" x="105.181664" y="76.035069" style="fill: #ff0000; stroke: #ff0000"/>
     <use xlink:href="#m0648ec3c68" x="242.795014" y="107.155148" style="fill: #ff0000; stroke: #ff0000"/>
     <use xlink:href="#m0648ec3c68" x="304.770076" y="94.038972" style="fill: #ff0000; stroke: #ff0000"/>
     <use xlink:href="#m0648ec3c68" x="254.944689" y="87.182856" style="fill: #ff0000; stroke: #ff0000"/>
     <use xlink:href="#m0648ec3c68" x="296.41963" y="96.944805" style="fill: #ff0000; stroke: #ff0000"/>
     <use xlink:href="#m0648ec3c68" x="287.250803" y="83.196171" style="fill: #ff0000; stroke: #ff0000"/>
     <use xlink:href="#m0648ec3c68" x="122.559744" y="82.252196" style="fill: #ff0000; stroke: #ff0000"/>
     <use xlink:href="#m0648ec3c68" x="124.223091" y="90.881426" style="fill: #ff0000; stroke: #ff0000"/>
     <use xlink:href="#m0648ec3c68" x="114.583473" y="80.659211" style="fill: #ff0000; stroke: #ff0000"/>
     <use xlink:href="#m0648ec3c68" x="127.685635" y="82.493115" style="fill: #ff0000; stroke: #ff0000"/>
     <use xlink:href="#m0648ec3c68" x="87.596409" y="90.875095" style="fill: #ff0000; stroke: #ff0000"/>
     <use xlink:href="#m0648ec3c68" x="319.987185" y="95.09578" style="fill: #ff0000; stroke: #ff0000"/>
     <use xlink:href="#m0648ec3c68" x="300.977679" y="102.214214" style="fill: #ff0000; stroke: #ff0000"/>
     <use xlink:href="#m0648ec3c68" x="266.176626" y="80.283481" style="fill: #ff0000; stroke: #ff0000"/>
     <use xlink:href="#m0648ec3c68" x="129.524353" y="114.79029" style="fill: #ff0000; stroke: #ff0000"/>
     <use xlink:href="#m0648ec3c68" x="304.82984" y="92.901593" style="fill: #ff0000; stroke: #ff0000"/>
     <use xlink:href="#m0648ec3c68" x="108.329249" y="94.008074" style="fill: #ff0000; stroke: #ff0000"/>
     <use xlink:href="#m0648ec3c68" x="222.470597" y="95.992383" style="fill: #ff0000; stroke: #ff0000"/>
     <use xlink:href="#m0648ec3c68" x="150.856097" y="74.93008" style="fill: #ff0000; stroke: #ff0000"/>
     <use xlink:href="#m0648ec3c68" x="235.966741" y="113.637512" style="fill: #ff0000; stroke: #ff0000"/>
     <use xlink:href="#m0648ec3c68" x="118.335625" y="98.032122" style="fill: #ff0000; stroke: #ff0000"/>
     <use xlink:href="#m0648ec3c68" x="110.777431" y="100.55854" style="fill: #ff0000; stroke: #ff0000"/>
     <use xlink:href="#m0648ec3c68" x="307.562532" y="89.583613" style="fill: #ff0000; stroke: #ff0000"/>
     <use xlink:href="#m0648ec3c68" x="98.460376" y="117.930225" style="fill: #ff0000; stroke: #ff0000"/>
     <use xlink:href="#m0648ec3c68" x="292.061448" y="84.285839" style="fill: #ff0000; stroke: #ff0000"/>
     <use xlink:href="#m0648ec3c68" x="255.401961" y="68.93271" style="fill: #ff0000; stroke: #ff0000"/>
     <use xlink:href="#m0648ec3c68" x="246.259425" y="74.47684" style="fill: #ff0000; stroke: #ff0000"/>
     <use xlink:href="#m0648ec3c68" x="263.773625" y="88.224119" style="fill: #ff0000; stroke: #ff0000"/>
     <use xlink:href="#m0648ec3c68" x="117.801803" y="73.435026" style="fill: #ff0000; stroke: #ff0000"/>
     <use xlink:href="#m0648ec3c68" x="237.749726" y="87.964419" style="fill: #ff0000; stroke: #ff0000"/>
     <use xlink:href="#m0648ec3c68" x="259.317115" y="99.080748" style="fill: #ff0000; stroke: #ff0000"/>
     <use xlink:href="#m0648ec3c68" x="310.189773" y="115.677351" style="fill: #ff0000; stroke: #ff0000"/>
     <use xlink:href="#m0648ec3c68" x="162.201449" y="85.017491" style="fill: #ff0000; stroke: #ff0000"/>
     <use xlink:href="#m0648ec3c68" x="248.116625" y="84.055623" style="fill: #ff0000; stroke: #ff0000"/>
     <use xlink:href="#m0648ec3c68" x="129.204195" y="81.978973" style="fill: #ff0000; stroke: #ff0000"/>
     <use xlink:href="#m0648ec3c68" x="256.164592" y="85.145953" style="fill: #ff0000; stroke: #ff0000"/>
     <use xlink:href="#m0648ec3c68" x="303.581946" y="79.104428" style="fill: #ff0000; stroke: #ff0000"/>
     <use xlink:href="#m0648ec3c68" x="285.755067" y="102.078975" style="fill: #ff0000; stroke: #ff0000"/>
     <use xlink:href="#m0648ec3c68" x="235.192205" y="90.200075" style="fill: #ff0000; stroke: #ff0000"/>
     <use xlink:href="#m0648ec3c68" x="329.888111" y="101.990351" style="fill: #ff0000; stroke: #ff0000"/>
     <use xlink:href="#m0648ec3c68" x="117.517108" y="103.461485" style="fill: #ff0000; stroke: #ff0000"/>
     <use xlink:href="#m0648ec3c68" x="311.378348" y="93.012151" style="fill: #ff0000; stroke: #ff0000"/>
     <use xlink:href="#m0648ec3c68" x="228.147667" y="113.255881" style="fill: #ff0000; stroke: #ff0000"/>
     <use xlink:href="#m0648ec3c68" x="249.223935" y="96.785333" style="fill: #ff0000; stroke: #ff0000"/>
     <use xlink:href="#m0648ec3c68" x="307.319288" y="102.085115" style="fill: #ff0000; stroke: #ff0000"/>
     <use xlink:href="#m0648ec3c68" x="230.337874" y="105.266365" style="fill: #ff0000; stroke: #ff0000"/>
     <use xlink:href="#m0648ec3c68" x="268.854794" y="69.920256" style="fill: #ff0000; stroke: #ff0000"/>
     <use xlink:href="#m0648ec3c68" x="252.47003" y="97.805111" style="fill: #ff0000; stroke: #ff0000"/>
     <use xlink:href="#m0648ec3c68" x="296.497424" y="86.666431" style="fill: #ff0000; stroke: #ff0000"/>
     <use xlink:href="#m0648ec3c68" x="126.009146" y="74.990631" style="fill: #ff0000; stroke: #ff0000"/>
     <use xlink:href="#m0648ec3c68" x="114.565404" y="99.085916" style="fill: #ff0000; stroke: #ff0000"/>
     <use xlink:href="#m0648ec3c68" x="121.593799" y="79.172796" style="fill: #ff0000; stroke: #ff0000"/>
     <use xlink:href="#m0648ec3c68" x="287.72517" y="97.311874" style="fill: #ff0000; stroke: #ff0000"/>
     <use xlink:href="#m0648ec3c68" x="98.838537" y="98.917302" style="fill: #ff0000; stroke: #ff0000"/>
     <use xlink:href="#m0648ec3c68" x="217.61827" y="86.624811" style="fill: #ff0000; stroke: #ff0000"/>
     <use xlink:href="#m0648ec3c68" x="115.311622" y="89.248225" style="fill: #ff0000; stroke: #ff0000"/>
     <use xlink:href="#m0648ec3c68" x="126.703624" y="104.35549" style="fill: #ff0000; stroke: #ff0000"/>
     <use xlink:href="#m0648ec3c68" x="113.227306" y="97.234218" style="fill: #ff0000; stroke: #ff0000"/>
     <use xlink:href="#m0648ec3c68" x="291.120765" y="95.062378" style="fill: #ff0000; stroke: #ff0000"/>
     <use xlink:href="#m0648ec3c68" x="304.003987" y="85.128914" style="fill: #ff0000; stroke: #ff0000"/>
     <use xlink:href="#m0648ec3c68" x="269.529712" y="80.225926" style="fill: #ff0000; stroke: #ff0000"/>
     <use xlink:href="#m0648ec3c68" x="107.850546" y="92.689358" style="fill: #ff0000; stroke: #ff0000"/>
     <use xlink:href="#m0648ec3c68" x="111.985975" y="90.248639" style="fill: #ff0000; stroke: #ff0000"/>
     <use xlink:href="#m0648ec3c68" x="304.897738" y="69.752083" style="fill: #ff0000; stroke: #ff0000"/>
     <use xlink:href="#m0648ec3c68" x="299.588509" y="102.587398" style="fill: #ff0000; stroke: #ff0000"/>
     <use xlink:href="#m0648ec3c68" x="275.901267" y="91.893238" style="fill: #ff0000; stroke: #ff0000"/>
     <use xlink:href="#m0648ec3c68" x="111.737305" y="84.169281" style="fill: #ff0000; stroke: #ff0000"/>
     <use xlink:href="#m0648ec3c68" x="254.293321" y="74.857394" style="fill: #ff0000; stroke: #ff0000"/>
     <use xlink:href="#m0648ec3c68" x="280.160866" y="71.8828" style="fill: #ff0000; stroke: #ff0000"/>
     <use xlink:href="#m0648ec3c68" x="248.077149" y="83.285944" style="fill: #ff0000; stroke: #ff0000"/>
     <use xlink:href="#m0648ec3c68" x="300.672405" y="95.262409" style="fill: #ff0000; stroke: #ff0000"/>
     <use xlink:href="#m0648ec3c68" x="113.837845" y="98.317005" style="fill: #ff0000; stroke: #ff0000"/>
     <use xlink:href="#m0648ec3c68" x="130.417146" y="94.490482" style="fill: #ff0000; stroke: #ff0000"/>
     <use xlink:href="#m0648ec3c68" x="278.381986" y="78.807687" style="fill: #ff0000; stroke: #ff0000"/>
    </g>
   </g>
   <g id="PathCollection_2">
    <g clip-path="url(#pe19b8e6f72)">
     <use xlink:href="#m0648ec3c68" x="333.750009" y="273.210398" style="fill: #ff0000; stroke: #ff0000"/>
     <use xlink:href="#m0648ec3c68" x="371.419166" y="258.106476" style="fill: #ff0000; stroke: #ff0000"/>
     <use xlink:href="#m0648ec3c68" x="371.197759" y="273.510309" style="fill: #ff0000; stroke: #ff0000"/>
     <use xlink:href="#m0648ec3c68" x="349.80209" y="273.162938" style="fill: #ff0000; stroke: #ff0000"/>
     <use xlink:href="#m0648ec3c68" x="227.96418" y="268.95521" style="fill: #ff0000; stroke: #ff0000"/>
     <use xlink:href="#m0648ec3c68" x="373.315904" y="270.133365" style="fill: #ff0000; stroke: #ff0000"/>
     <use xlink:href="#m0648ec3c68" x="398.487273" y="285.051548" style="fill: #ff0000; stroke: #ff0000"/>
     <use xlink:href="#m0648ec3c68" x="190.781297" y="254.65598" style="fill: #ff0000; stroke: #ff0000"/>
     <use xlink:href="#m0648ec3c68" x="219.815534" y="282.545955" style="fill: #ff0000; stroke: #ff0000"/>
     <use xlink:href="#m0648ec3c68" x="232.463642" y="275.812149" style="fill: #ff0000; stroke: #ff0000"/>
     <use xlink:href="#m0648ec3c68" x="276.455546" y="275.40075" style="fill: #ff0000; stroke: #ff0000"/>
     <use xlink:href="#m0648ec3c68" x="277.463351" y="271.702033" style="fill: #ff0000; stroke: #ff0000"/>
     <use xlink:href="#m0648ec3c68" x="385.937186" y="276.379589" style="fill: #ff0000; stroke: #ff0000"/>
     <use xlink:href="#m0648ec3c68" x="218.846168" y="247.333346" style="fill: #ff0000; stroke: #ff0000"/>
     <use xlink:href="#m0648ec3c68" x="341.148704" y="274.803128" style="fill: #ff0000; stroke: #ff0000"/>
     <use xlink:href="#m0648ec3c68" x="331.661248" y="269.835133" style="fill: #ff0000; stroke: #ff0000"/>
     <use xlink:href="#m0648ec3c68" x="190.081069" y="269.622103" style="fill: #ff0000; stroke: #ff0000"/>
     <use xlink:href="#m0648ec3c68" x="268.183521" y="271.103575" style="fill: #ff0000; stroke: #ff0000"/>
     <use xlink:href="#m0648ec3c68" x="206.819055" y="295.488" style="fill: #ff0000; stroke: #ff0000"/>
     <use xlink:href="#m0648ec3c68" x="304.143595" y="264.564346" style="fill: #ff0000; stroke: #ff0000"/>
     <use xlink:href="#m0648ec3c68" x="259.432188" y="279.887932" style="fill: #ff0000; stroke: #ff0000"/>
     <use xlink:href="#m0648ec3c68" x="304.503761" y="267.320481" style="fill: #ff0000; stroke: #ff0000"/>
     <use xlink:href="#m0648ec3c68" x="383.840908" y="273.901195" style="fill: #ff0000; stroke: #ff0000"/>
     <use xlink:href="#m0648ec3c68" x="199.766832" y="270.379952" style="fill: #ff0000; stroke: #ff0000"/>
     <use xlink:href="#m0648ec3c68" x="293.110465" y="271.637451" style="fill: #ff0000; stroke: #ff0000"/>
     <use xlink:href="#m0648ec3c68" x="225.991818" y="262.179777" style="fill: #ff0000; stroke: #ff0000"/>
     <use xlink:href="#m0648ec3c68" x="353.184032" y="272.575245" style="fill: #ff0000; stroke: #ff0000"/>
     <use xlink:href="#m0648ec3c68" x="218.860028" y="265.548074" style="fill: #ff0000; stroke: #ff0000"/>
     <use xlink:href="#m0648ec3c68" x="323.619614" y="275.551745" style="fill: #ff0000; stroke: #ff0000"/>
     <use xlink:href="#m0648ec3c68" x="365.879087" y="276.060765" style="fill: #ff0000; stroke: #ff0000"/>
     <use xlink:href="#m0648ec3c68" x="233.309886" y="260.414468" style="fill: #ff0000; stroke: #ff0000"/>
     <use xlink:href="#m0648ec3c68" x="262.409533" y="279.728635" style="fill: #ff0000; stroke: #ff0000"/>
     <use xlink:href="#m0648ec3c68" x="392.108608" y="262.496364" style="fill: #ff0000; stroke: #ff0000"/>
     <use xlink:href="#m0648ec3c68" x="378.770696" y="278.471948" style="fill: #ff0000; stroke: #ff0000"/>
     <use xlink:href="#m0648ec3c68" x="194.730647" y="271.582369" style="fill: #ff0000; stroke: #ff0000"/>
     <use xlink:href="#m0648ec3c68" x="249.33137" y="265.950424" style="fill: #ff0000; stroke: #ff0000"/>
     <use xlink:href="#m0648ec3c68" x="275.425763" y="268.532187" style="fill: #ff0000; stroke: #ff0000"/>
     <use xlink:href="#m0648ec3c68" x="246.27767" y="281.281001" style="fill: #ff0000; stroke: #ff0000"/>
     <use xlink:href="#m0648ec3c68" x="345.992267" y="275.942436" style="fill: #ff0000; stroke: #ff0000"/>
     <use xlink:href="#m0648ec3c68" x="257.882086" y="280.857123" style="fill: #ff0000; stroke: #ff0000"/>
     <use xlink:href="#m0648ec3c68" x="229.189027" y="274.236484" style="fill: #ff0000; stroke: #ff0000"/>
     <use xlink:href="#m0648ec3c68" x="385.672234" y="264.555166" style="fill: #ff0000; stroke: #ff0000"/>
     <use xlink:href="#m0648ec3c68" x="255.930744" y="272.160966" style="fill: #ff0000; stroke: #ff0000"/>
     <use xlink:href="#m0648ec3c68" x="363.112799" y="270.055362" style="fill: #ff0000; stroke: #ff0000"/>
     <use xlink:href="#m0648ec3c68" x="190.803882" y="267.24472" style="fill: #ff0000; stroke: #ff0000"/>
     <use xlink:href="#m0648ec3c68" x="190.123871" y="277.031334" style="fill: #ff0000; stroke: #ff0000"/>
     <use xlink:href="#m0648ec3c68" x="258.374732" y="264.459291" style="fill: #ff0000; stroke: #ff0000"/>
     <use xlink:href="#m0648ec3c68" x="358.912358" y="262.931417" style="fill: #ff0000; stroke: #ff0000"/>
     <use xlink:href="#m0648ec3c68" x="344.690062" y="269.380888" style="fill: #ff0000; stroke: #ff0000"/>
     <use xlink:href="#m0648ec3c68" x="348.686157" y="283.211384" style="fill: #ff0000; stroke: #ff0000"/>
     <use xlink:href="#m0648ec3c68" x="296.465878" y="265.202016" style="fill: #ff0000; stroke: #ff0000"/>
     <use xlink:href="#m0648ec3c68" x="235.514921" y="264.396614" style="fill: #ff0000; stroke: #ff0000"/>
     <use xlink:href="#m0648ec3c68" x="297.038546" y="273.129515" style="fill: #ff0000; stroke: #ff0000"/>
     <use xlink:href="#m0648ec3c68" x="254.098957" y="262.337989" style="fill: #ff0000; stroke: #ff0000"/>
     <use xlink:href="#m0648ec3c68" x="296.885973" y="271.641783" style="fill: #ff0000; stroke: #ff0000"/>
     <use xlink:href="#m0648ec3c68" x="292.677282" y="285.550199" style="fill: #ff0000; stroke: #ff0000"/>
     <use xlink:href="#m0648ec3c68" x="303.654874" y="257.836806" style="fill: #ff0000; stroke: #ff0000"/>
     <use xlink:href="#m0648ec3c68" x="220.759718" y="263.144674" style="fill: #ff0000; stroke: #ff0000"/>
     <use xlink:href="#m0648ec3c68" x="215.811093" y="263.194739" style="fill: #ff0000; stroke: #ff0000"/>
     <use xlink:href="#m0648ec3c68" x="266.594297" y="277.899245" style="fill: #ff0000; stroke: #ff0000"/>
     <use xlink:href="#m0648ec3c68" x="290.640023" y="284.115135" style="fill: #ff0000; stroke: #ff0000"/>
     <use xlink:href="#m0648ec3c68" x="381.626533" y="281.878655" style="fill: #ff0000; stroke: #ff0000"/>
     <use xlink:href="#m0648ec3c68" x="223.086972" y="276.017462" style="fill: #ff0000; stroke: #ff0000"/>
     <use xlink:href="#m0648ec3c68" x="383.257139" y="267.49045" style="fill: #ff0000; stroke: #ff0000"/>
     <use xlink:href="#m0648ec3c68" x="367.742058" y="257.859571" style="fill: #ff0000; stroke: #ff0000"/>
     <use xlink:href="#m0648ec3c68" x="294.383977" y="254.167358" style="fill: #ff0000; stroke: #ff0000"/>
     <use xlink:href="#m0648ec3c68" x="391.997699" y="267.206763" style="fill: #ff0000; stroke: #ff0000"/>
     <use xlink:href="#m0648ec3c68" x="216.45513" y="284.83439" style="fill: #ff0000; stroke: #ff0000"/>
     <use xlink:href="#m0648ec3c68" x="354.470127" y="267.776356" style="fill: #ff0000; stroke: #ff0000"/>
     <use xlink:href="#m0648ec3c68" x="342.553734" y="266.28866" style="fill: #ff0000; stroke: #ff0000"/>
     <use xlink:href="#m0648ec3c68" x="356.422961" y="293.028951" style="fill: #ff0000; stroke: #ff0000"/>
     <use xlink:href="#m0648ec3c68" x="322.937257" y="283.590698" style="fill: #ff0000; stroke: #ff0000"/>
     <use xlink:href="#m0648ec3c68" x="240.388819" y="291.150332" style="fill: #ff0000; stroke: #ff0000"/>
     <use xlink:href="#m0648ec3c68" x="217.394109" y="270.860629" style="fill: #ff0000; stroke: #ff0000"/>
     <use xlink:href="#m0648ec3c68" x="199.569352" y="285.948601" style="fill: #ff0000; stroke: #ff0000"/>
     <use xlink:href="#m0648ec3c68" x="337.258986" y="279.406596" style="fill: #ff0000; stroke: #ff0000"/>
     <use xlink:href="#m0648ec3c68" x="203.003279" y="269.377616" style="fill: #ff0000; stroke: #ff0000"/>
     <use xlink:href="#m0648ec3c68" x="216.574271" y="278.677197" style="fill: #ff0000; stroke: #ff0000"/>
     <use xlink:href="#m0648ec3c68" x="371.542746" y="270.336767" style="fill: #ff0000; stroke: #ff0000"/>
     <use xlink:href="#m0648ec3c68" x="341.896583" y="274.225557" style="fill: #ff0000; stroke: #ff0000"/>
     <use xlink:href="#m0648ec3c68" x="199.098536" y="284.264866" style="fill: #ff0000; stroke: #ff0000"/>
     <use xlink:href="#m0648ec3c68" x="317.573295" y="271.750528" style="fill: #ff0000; stroke: #ff0000"/>
     <use xlink:href="#m0648ec3c68" x="335.064934" y="269.773007" style="fill: #ff0000; stroke: #ff0000"/>
     <use xlink:href="#m0648ec3c68" x="304.03179" y="280.900507" style="fill: #ff0000; stroke: #ff0000"/>
     <use xlink:href="#m0648ec3c68" x="288.073982" y="281.254338" style="fill: #ff0000; stroke: #ff0000"/>
     <use xlink:href="#m0648ec3c68" x="244.379877" y="289.893551" style="fill: #ff0000; stroke: #ff0000"/>
     <use xlink:href="#m0648ec3c68" x="364.947381" y="256.620043" style="fill: #ff0000; stroke: #ff0000"/>
     <use xlink:href="#m0648ec3c68" x="238.61681" y="284.445863" style="fill: #ff0000; stroke: #ff0000"/>
     <use xlink:href="#m0648ec3c68" x="239.977365" y="273.158016" style="fill: #ff0000; stroke: #ff0000"/>
     <use xlink:href="#m0648ec3c68" x="190.410696" y="265.905937" style="fill: #ff0000; stroke: #ff0000"/>
     <use xlink:href="#m0648ec3c68" x="283.373869" y="283.285983" style="fill: #ff0000; stroke: #ff0000"/>
     <use xlink:href="#m0648ec3c68" x="377.530821" y="249.885107" style="fill: #ff0000; stroke: #ff0000"/>
     <use xlink:href="#m0648ec3c68" x="218.337552" y="274.168176" style="fill: #ff0000; stroke: #ff0000"/>
     <use xlink:href="#m0648ec3c68" x="234.522163" y="275.49505" style="fill: #ff0000; stroke: #ff0000"/>
     <use xlink:href="#m0648ec3c68" x="378.212464" y="279.59215" style="fill: #ff0000; stroke: #ff0000"/>
     <use xlink:href="#m0648ec3c68" x="291.267618" y="282.847477" style="fill: #ff0000; stroke: #ff0000"/>
     <use xlink:href="#m0648ec3c68" x="359.23038" y="262.858713" style="fill: #ff0000; stroke: #ff0000"/>
     <use xlink:href="#m0648ec3c68" x="206.235115" y="262.55715" style="fill: #ff0000; stroke: #ff0000"/>
     <use xlink:href="#m0648ec3c68" x="293.338774" y="275.351071" style="fill: #ff0000; stroke: #ff0000"/>
     <use xlink:href="#m0648ec3c68" x="292.931132" y="274.442033" style="fill: #ff0000; stroke: #ff0000"/>
     <use xlink:href="#m0648ec3c68" x="114.908041" y="256.174933" style="fill: #ff0000; stroke: #ff0000"/>
     <use xlink:href="#m0648ec3c68" x="148.367195" y="260.722497" style="fill: #ff0000; stroke: #ff0000"/>
     <use xlink:href="#m0648ec3c68" x="73.832727" y="282.672142" style="fill: #ff0000; stroke: #ff0000"/>
     <use xlink:href="#m0648ec3c68" x="86.652271" y="273.06947" style="fill: #ff0000; stroke: #ff0000"/>
     <use xlink:href="#m0648ec3c68" x="124.946082" y="278.152474" style="fill: #ff0000; stroke: #ff0000"/>
     <use xlink:href="#m0648ec3c68" x="145.372403" y="274.431792" style="fill: #ff0000; stroke: #ff0000"/>
     <use xlink:href="#m0648ec3c68" x="104.984711" y="278.104084" style="fill: #ff0000; stroke: #ff0000"/>
     <use xlink:href="#m0648ec3c68" x="152.407875" y="274.204044" style="fill: #ff0000; stroke: #ff0000"/>
     <use xlink:href="#m0648ec3c68" x="144.837132" y="270.370575" style="fill: #ff0000; stroke: #ff0000"/>
     <use xlink:href="#m0648ec3c68" x="136.513162" y="270.732761" style="fill: #ff0000; stroke: #ff0000"/>
     <use xlink:href="#m0648ec3c68" x="82.854046" y="280.462199" style="fill: #ff0000; stroke: #ff0000"/>
     <use xlink:href="#m0648ec3c68" x="131.085902" y="259.304444" style="fill: #ff0000; stroke: #ff0000"/>
     <use xlink:href="#m0648ec3c68" x="73.865977" y="269.740729" style="fill: #ff0000; stroke: #ff0000"/>
     <use xlink:href="#m0648ec3c68" x="96.818717" y="279.996258" style="fill: #ff0000; stroke: #ff0000"/>
     <use xlink:href="#m0648ec3c68" x="140.008169" y="281.426976" style="fill: #ff0000; stroke: #ff0000"/>
     <use xlink:href="#m0648ec3c68" x="145.265086" y="281.504986" style="fill: #ff0000; stroke: #ff0000"/>
     <use xlink:href="#m0648ec3c68" x="155.572718" y="287.603383" style="fill: #ff0000; stroke: #ff0000"/>
     <use xlink:href="#m0648ec3c68" x="114.864175" y="273.287005" style="fill: #ff0000; stroke: #ff0000"/>
     <use xlink:href="#m0648ec3c68" x="126.625602" y="250.74021" style="fill: #ff0000; stroke: #ff0000"/>
     <use xlink:href="#m0648ec3c68" x="132.258535" y="288.27685" style="fill: #ff0000; stroke: #ff0000"/>
     <use xlink:href="#m0648ec3c68" x="149.343924" y="281.834603" style="fill: #ff0000; stroke: #ff0000"/>
     <use xlink:href="#m0648ec3c68" x="74.919337" y="261.713382" style="fill: #ff0000; stroke: #ff0000"/>
     <use xlink:href="#m0648ec3c68" x="157.556201" y="276.461241" style="fill: #ff0000; stroke: #ff0000"/>
     <use xlink:href="#m0648ec3c68" x="137.787171" y="271.265781" style="fill: #ff0000; stroke: #ff0000"/>
     <use xlink:href="#m0648ec3c68" x="154.113998" y="278.630452" style="fill: #ff0000; stroke: #ff0000"/>
     <use xlink:href="#m0648ec3c68" x="135.961903" y="281.987382" style="fill: #ff0000; stroke: #ff0000"/>
     <use xlink:href="#m0648ec3c68" x="82.407917" y="287.506793" style="fill: #ff0000; stroke: #ff0000"/>
     <use xlink:href="#m0648ec3c68" x="116.886032" y="269.191774" style="fill: #ff0000; stroke: #ff0000"/>
     <use xlink:href="#m0648ec3c68" x="92.456535" y="277.316723" style="fill: #ff0000; stroke: #ff0000"/>
     <use xlink:href="#m0648ec3c68" x="112.752121" y="271.728348" style="fill: #ff0000; stroke: #ff0000"/>
     <use xlink:href="#m0648ec3c68" x="148.494841" y="265.493915" style="fill: #ff0000; stroke: #ff0000"/>
     <use xlink:href="#m0648ec3c68" x="159.889622" y="277.804921" style="fill: #ff0000; stroke: #ff0000"/>
     <use xlink:href="#m0648ec3c68" x="96.075841" y="254.379896" style="fill: #ff0000; stroke: #ff0000"/>
     <use xlink:href="#m0648ec3c68" x="76.691326" y="264.49691" style="fill: #ff0000; stroke: #ff0000"/>
     <use xlink:href="#m0648ec3c68" x="97.025377" y="247.542662" style="fill: #ff0000; stroke: #ff0000"/>
     <use xlink:href="#m0648ec3c68" x="114.353581" y="260.544794" style="fill: #ff0000; stroke: #ff0000"/>
     <use xlink:href="#m0648ec3c68" x="138.903448" y="276.658532" style="fill: #ff0000; stroke: #ff0000"/>
     <use xlink:href="#m0648ec3c68" x="110.143044" y="264.034191" style="fill: #ff0000; stroke: #ff0000"/>
     <use xlink:href="#m0648ec3c68" x="127.249071" y="294.069304" style="fill: #ff0000; stroke: #ff0000"/>
     <use xlink:href="#m0648ec3c68" x="148.235262" y="267.117029" style="fill: #ff0000; stroke: #ff0000"/>
     <use xlink:href="#m0648ec3c68" x="109.148953" y="265.950114" style="fill: #ff0000; stroke: #ff0000"/>
     <use xlink:href="#m0648ec3c68" x="126.47936" y="265.886438" style="fill: #ff0000; stroke: #ff0000"/>
     <use xlink:href="#m0648ec3c68" x="140.33181" y="269.382278" style="fill: #ff0000; stroke: #ff0000"/>
     <use xlink:href="#m0648ec3c68" x="115.977903" y="272.60933" style="fill: #ff0000; stroke: #ff0000"/>
     <use xlink:href="#m0648ec3c68" x="129.251667" y="268.266764" style="fill: #ff0000; stroke: #ff0000"/>
     <use xlink:href="#m0648ec3c68" x="119.652843" y="275.360459" style="fill: #ff0000; stroke: #ff0000"/>
     <use xlink:href="#m0648ec3c68" x="117.553234" y="270.423573" style="fill: #ff0000; stroke: #ff0000"/>
     <use xlink:href="#m0648ec3c68" x="80.563229" y="259.861311" style="fill: #ff0000; stroke: #ff0000"/>
     <use xlink:href="#m0648ec3c68" x="108.500233" y="278.684674" style="fill: #ff0000; stroke: #ff0000"/>
     <use xlink:href="#m0648ec3c68" x="152.423859" y="276.902082" style="fill: #ff0000; stroke: #ff0000"/>
     <use xlink:href="#m0648ec3c68" x="129.34281" y="265.269606" style="fill: #ff0000; stroke: #ff0000"/>
     <use xlink:href="#m0648ec3c68" x="151.53767" y="265.201969" style="fill: #ff0000; stroke: #ff0000"/>
     <use xlink:href="#m0648ec3c68" x="113.399753" y="269.20165" style="fill: #ff0000; stroke: #ff0000"/>
     <use xlink:href="#m0648ec3c68" x="109.999385" y="279.244522" style="fill: #ff0000; stroke: #ff0000"/>
     <use xlink:href="#m0648ec3c68" x="120.524591" y="270.479126" style="fill: #ff0000; stroke: #ff0000"/>
     <use xlink:href="#m0648ec3c68" x="139.434071" y="263.430176" style="fill: #ff0000; stroke: #ff0000"/>
     <use xlink:href="#m0648ec3c68" x="158.127684" y="269.7858" style="fill: #ff0000; stroke: #ff0000"/>
     <use xlink:href="#m0648ec3c68" x="100.806402" y="267.944123" style="fill: #ff0000; stroke: #ff0000"/>
     <use xlink:href="#m0648ec3c68" x="83.508376" y="271.292371" style="fill: #ff0000; stroke: #ff0000"/>
     <use xlink:href="#m0648ec3c68" x="144.82677" y="271.182789" style="fill: #ff0000; stroke: #ff0000"/>
     <use xlink:href="#m0648ec3c68" x="149.775648" y="255.904102" style="fill: #ff0000; stroke: #ff0000"/>
     <use xlink:href="#m0648ec3c68" x="126.126834" y="270.992065" style="fill: #ff0000; stroke: #ff0000"/>
     <use xlink:href="#m0648ec3c68" x="139.211708" y="272.550412" style="fill: #ff0000; stroke: #ff0000"/>
     <use xlink:href="#m0648ec3c68" x="113.068191" y="258.455898" style="fill: #ff0000; stroke: #ff0000"/>
     <use xlink:href="#m0648ec3c68" x="100.114586" y="270.10516" style="fill: #ff0000; stroke: #ff0000"/>
     <use xlink:href="#m0648ec3c68" x="119.690876" y="268.009608" style="fill: #ff0000; stroke: #ff0000"/>
     <use xlink:href="#m0648ec3c68" x="92.768949" y="271.998393" style="fill: #ff0000; stroke: #ff0000"/>
     <use xlink:href="#m0648ec3c68" x="106.525834" y="273.013996" style="fill: #ff0000; stroke: #ff0000"/>
     <use xlink:href="#m0648ec3c68" x="157.217625" y="260.037822" style="fill: #ff0000; stroke: #ff0000"/>
     <use xlink:href="#m0648ec3c68" x="135.277558" y="268.849647" style="fill: #ff0000; stroke: #ff0000"/>
     <use xlink:href="#m0648ec3c68" x="134.778636" y="272.374843" style="fill: #ff0000; stroke: #ff0000"/>
     <use xlink:href="#m0648ec3c68" x="91.584001" y="265.400605" style="fill: #ff0000; stroke: #ff0000"/>
     <use xlink:href="#m0648ec3c68" x="75.957804" y="291.405783" style="fill: #ff0000; stroke: #ff0000"/>
     <use xlink:href="#m0648ec3c68" x="120.29881" y="256.085469" style="fill: #ff0000; stroke: #ff0000"/>
     <use xlink:href="#m0648ec3c68" x="82.707726" y="263.705856" style="fill: #ff0000; stroke: #ff0000"/>
     <use xlink:href="#m0648ec3c68" x="120.924966" y="267.614311" style="fill: #ff0000; stroke: #ff0000"/>
     <use xlink:href="#m0648ec3c68" x="134.309258" y="292.343991" style="fill: #ff0000; stroke: #ff0000"/>
     <use xlink:href="#m0648ec3c68" x="85.591502" y="260.361598" style="fill: #ff0000; stroke: #ff0000"/>
     <use xlink:href="#m0648ec3c68" x="107.918558" y="276.392418" style="fill: #ff0000; stroke: #ff0000"/>
     <use xlink:href="#m0648ec3c68" x="104.390277" y="270.178344" style="fill: #ff0000; stroke: #ff0000"/>
     <use xlink:href="#m0648ec3c68" x="87.205773" y="268.901812" style="fill: #ff0000; stroke: #ff0000"/>
     <use xlink:href="#m0648ec3c68" x="134.589749" y="275.233344" style="fill: #ff0000; stroke: #ff0000"/>
     <use xlink:href="#m0648ec3c68" x="139.782675" y="278.431581" style="fill: #ff0000; stroke: #ff0000"/>
     <use xlink:href="#m0648ec3c68" x="140.364219" y="280.798991" style="fill: #ff0000; stroke: #ff0000"/>
     <use xlink:href="#m0648ec3c68" x="162.827435" y="284.459523" style="fill: #ff0000; stroke: #ff0000"/>
     <use xlink:href="#m0648ec3c68" x="119.466075" y="277.600519" style="fill: #ff0000; stroke: #ff0000"/>
     <use xlink:href="#m0648ec3c68" x="156.061251" y="269.16407" style="fill: #ff0000; stroke: #ff0000"/>
     <use xlink:href="#m0648ec3c68" x="109.195653" y="277.587752" style="fill: #ff0000; stroke: #ff0000"/>
     <use xlink:href="#m0648ec3c68" x="80.324245" y="273.128159" style="fill: #ff0000; stroke: #ff0000"/>
     <use xlink:href="#m0648ec3c68" x="140.855622" y="287.996625" style="fill: #ff0000; stroke: #ff0000"/>
     <use xlink:href="#m0648ec3c68" x="91.936243" y="270.711835" style="fill: #ff0000; stroke: #ff0000"/>
     <use xlink:href="#m0648ec3c68" x="115.827263" y="277.038752" style="fill: #ff0000; stroke: #ff0000"/>
     <use xlink:href="#m0648ec3c68" x="119.45552" y="264.887717" style="fill: #ff0000; stroke: #ff0000"/>
     <use xlink:href="#m0648ec3c68" x="133.524923" y="276.554201" style="fill: #ff0000; stroke: #ff0000"/>
     <use xlink:href="#m0648ec3c68" x="158.038557" y="261.109806" style="fill: #ff0000; stroke: #ff0000"/>
     <use xlink:href="#m0648ec3c68" x="129.478445" y="269.581978" style="fill: #ff0000; stroke: #ff0000"/>
     <use xlink:href="#m0648ec3c68" x="104.483315" y="269.536698" style="fill: #ff0000; stroke: #ff0000"/>
     <use xlink:href="#m0648ec3c68" x="144.204174" y="263.0113" style="fill: #ff0000; stroke: #ff0000"/>
     <use xlink:href="#m0648ec3c68" x="142.975939" y="290.890208" style="fill: #ff0000; stroke: #ff0000"/>
     <use xlink:href="#m0648ec3c68" x="91.714846" y="266.030443" style="fill: #ff0000; stroke: #ff0000"/>
    </g>
   </g>
   <g id="matplotlib.axis_1">
    <g id="xtick_1">
     <g id="line2d_1">
      <defs>
       <path id="md10e84093b" d="M 0 0 
L 0 3.5 
" style="stroke: #000000; stroke-width: 0.8"/>
      </defs>
      <g>
       <use xlink:href="#md10e84093b" x="73.799815" y="307.584" style="stroke: #000000; stroke-width: 0.8"/>
      </g>
     </g>
     <g id="text_1">
      <!-- 0 -->
      <g transform="translate(70.618565 322.182437) scale(0.1 -0.1)">
       <defs>
        <path id="DejaVuSans-30" d="M 2034 4250 
Q 1547 4250 1301 3770 
Q 1056 3291 1056 2328 
Q 1056 1369 1301 889 
Q 1547 409 2034 409 
Q 2525 409 2770 889 
Q 3016 1369 3016 2328 
Q 3016 3291 2770 3770 
Q 2525 4250 2034 4250 
z
M 2034 4750 
Q 2819 4750 3233 4129 
Q 3647 3509 3647 2328 
Q 3647 1150 3233 529 
Q 2819 -91 2034 -91 
Q 1250 -91 836 529 
Q 422 1150 422 2328 
Q 422 3509 836 4129 
Q 1250 4750 2034 4750 
z
" transform="scale(0.015625)"/>
       </defs>
       <use xlink:href="#DejaVuSans-30"/>
      </g>
     </g>
    </g>
    <g id="xtick_2">
     <g id="line2d_2">
      <g>
       <use xlink:href="#md10e84093b" x="118.431114" y="307.584" style="stroke: #000000; stroke-width: 0.8"/>
      </g>
     </g>
     <g id="text_2">
      <!-- 20 -->
      <g transform="translate(112.068614 322.182437) scale(0.1 -0.1)">
       <defs>
        <path id="DejaVuSans-32" d="M 1228 531 
L 3431 531 
L 3431 0 
L 469 0 
L 469 531 
Q 828 903 1448 1529 
Q 2069 2156 2228 2338 
Q 2531 2678 2651 2914 
Q 2772 3150 2772 3378 
Q 2772 3750 2511 3984 
Q 2250 4219 1831 4219 
Q 1534 4219 1204 4116 
Q 875 4013 500 3803 
L 500 4441 
Q 881 4594 1212 4672 
Q 1544 4750 1819 4750 
Q 2544 4750 2975 4387 
Q 3406 4025 3406 3419 
Q 3406 3131 3298 2873 
Q 3191 2616 2906 2266 
Q 2828 2175 2409 1742 
Q 1991 1309 1228 531 
z
" transform="scale(0.015625)"/>
       </defs>
       <use xlink:href="#DejaVuSans-32"/>
       <use xlink:href="#DejaVuSans-30" x="63.623047"/>
      </g>
     </g>
    </g>
    <g id="xtick_3">
     <g id="line2d_3">
      <g>
       <use xlink:href="#md10e84093b" x="163.062414" y="307.584" style="stroke: #000000; stroke-width: 0.8"/>
      </g>
     </g>
     <g id="text_3">
      <!-- 40 -->
      <g transform="translate(156.699914 322.182437) scale(0.1 -0.1)">
       <defs>
        <path id="DejaVuSans-34" d="M 2419 4116 
L 825 1625 
L 2419 1625 
L 2419 4116 
z
M 2253 4666 
L 3047 4666 
L 3047 1625 
L 3713 1625 
L 3713 1100 
L 3047 1100 
L 3047 0 
L 2419 0 
L 2419 1100 
L 313 1100 
L 313 1709 
L 2253 4666 
z
" transform="scale(0.015625)"/>
       </defs>
       <use xlink:href="#DejaVuSans-34"/>
       <use xlink:href="#DejaVuSans-30" x="63.623047"/>
      </g>
     </g>
    </g>
    <g id="xtick_4">
     <g id="line2d_4">
      <g>
       <use xlink:href="#md10e84093b" x="207.693713" y="307.584" style="stroke: #000000; stroke-width: 0.8"/>
      </g>
     </g>
     <g id="text_4">
      <!-- 60 -->
      <g transform="translate(201.331213 322.182437) scale(0.1 -0.1)">
       <defs>
        <path id="DejaVuSans-36" d="M 2113 2584 
Q 1688 2584 1439 2293 
Q 1191 2003 1191 1497 
Q 1191 994 1439 701 
Q 1688 409 2113 409 
Q 2538 409 2786 701 
Q 3034 994 3034 1497 
Q 3034 2003 2786 2293 
Q 2538 2584 2113 2584 
z
M 3366 4563 
L 3366 3988 
Q 3128 4100 2886 4159 
Q 2644 4219 2406 4219 
Q 1781 4219 1451 3797 
Q 1122 3375 1075 2522 
Q 1259 2794 1537 2939 
Q 1816 3084 2150 3084 
Q 2853 3084 3261 2657 
Q 3669 2231 3669 1497 
Q 3669 778 3244 343 
Q 2819 -91 2113 -91 
Q 1303 -91 875 529 
Q 447 1150 447 2328 
Q 447 3434 972 4092 
Q 1497 4750 2381 4750 
Q 2619 4750 2861 4703 
Q 3103 4656 3366 4563 
z
" transform="scale(0.015625)"/>
       </defs>
       <use xlink:href="#DejaVuSans-36"/>
       <use xlink:href="#DejaVuSans-30" x="63.623047"/>
      </g>
     </g>
    </g>
    <g id="xtick_5">
     <g id="line2d_5">
      <g>
       <use xlink:href="#md10e84093b" x="252.325013" y="307.584" style="stroke: #000000; stroke-width: 0.8"/>
      </g>
     </g>
     <g id="text_5">
      <!-- 80 -->
      <g transform="translate(245.962513 322.182437) scale(0.1 -0.1)">
       <defs>
        <path id="DejaVuSans-38" d="M 2034 2216 
Q 1584 2216 1326 1975 
Q 1069 1734 1069 1313 
Q 1069 891 1326 650 
Q 1584 409 2034 409 
Q 2484 409 2743 651 
Q 3003 894 3003 1313 
Q 3003 1734 2745 1975 
Q 2488 2216 2034 2216 
z
M 1403 2484 
Q 997 2584 770 2862 
Q 544 3141 544 3541 
Q 544 4100 942 4425 
Q 1341 4750 2034 4750 
Q 2731 4750 3128 4425 
Q 3525 4100 3525 3541 
Q 3525 3141 3298 2862 
Q 3072 2584 2669 2484 
Q 3125 2378 3379 2068 
Q 3634 1759 3634 1313 
Q 3634 634 3220 271 
Q 2806 -91 2034 -91 
Q 1263 -91 848 271 
Q 434 634 434 1313 
Q 434 1759 690 2068 
Q 947 2378 1403 2484 
z
M 1172 3481 
Q 1172 3119 1398 2916 
Q 1625 2713 2034 2713 
Q 2441 2713 2670 2916 
Q 2900 3119 2900 3481 
Q 2900 3844 2670 4047 
Q 2441 4250 2034 4250 
Q 1625 4250 1398 4047 
Q 1172 3844 1172 3481 
z
" transform="scale(0.015625)"/>
       </defs>
       <use xlink:href="#DejaVuSans-38"/>
       <use xlink:href="#DejaVuSans-30" x="63.623047"/>
      </g>
     </g>
    </g>
    <g id="xtick_6">
     <g id="line2d_6">
      <g>
       <use xlink:href="#md10e84093b" x="296.956313" y="307.584" style="stroke: #000000; stroke-width: 0.8"/>
      </g>
     </g>
     <g id="text_6">
      <!-- 100 -->
      <g transform="translate(287.412563 322.182437) scale(0.1 -0.1)">
       <defs>
        <path id="DejaVuSans-31" d="M 794 531 
L 1825 531 
L 1825 4091 
L 703 3866 
L 703 4441 
L 1819 4666 
L 2450 4666 
L 2450 531 
L 3481 531 
L 3481 0 
L 794 0 
L 794 531 
z
" transform="scale(0.015625)"/>
       </defs>
       <use xlink:href="#DejaVuSans-31"/>
       <use xlink:href="#DejaVuSans-30" x="63.623047"/>
       <use xlink:href="#DejaVuSans-30" x="127.246094"/>
      </g>
     </g>
    </g>
    <g id="xtick_7">
     <g id="line2d_7">
      <g>
       <use xlink:href="#md10e84093b" x="341.587612" y="307.584" style="stroke: #000000; stroke-width: 0.8"/>
      </g>
     </g>
     <g id="text_7">
      <!-- 120 -->
      <g transform="translate(332.043862 322.182437) scale(0.1 -0.1)">
       <use xlink:href="#DejaVuSans-31"/>
       <use xlink:href="#DejaVuSans-32" x="63.623047"/>
       <use xlink:href="#DejaVuSans-30" x="127.246094"/>
      </g>
     </g>
    </g>
    <g id="xtick_8">
     <g id="line2d_8">
      <g>
       <use xlink:href="#md10e84093b" x="386.218912" y="307.584" style="stroke: #000000; stroke-width: 0.8"/>
      </g>
     </g>
     <g id="text_8">
      <!-- 140 -->
      <g transform="translate(376.675162 322.182437) scale(0.1 -0.1)">
       <use xlink:href="#DejaVuSans-31"/>
       <use xlink:href="#DejaVuSans-34" x="63.623047"/>
       <use xlink:href="#DejaVuSans-30" x="127.246094"/>
      </g>
     </g>
    </g>
   </g>
   <g id="matplotlib.axis_2">
    <g id="ytick_1">
     <g id="line2d_9">
      <defs>
       <path id="m05d1f0df15" d="M 0 0 
L -3.5 0 
" style="stroke: #000000; stroke-width: 0.8"/>
      </defs>
      <g>
       <use xlink:href="#m05d1f0df15" x="57.6" y="271.995144" style="stroke: #000000; stroke-width: 0.8"/>
      </g>
     </g>
     <g id="text_9">
      <!-- 100 -->
      <g transform="translate(31.5125 275.794363) scale(0.1 -0.1)">
       <use xlink:href="#DejaVuSans-31"/>
       <use xlink:href="#DejaVuSans-30" x="63.623047"/>
       <use xlink:href="#DejaVuSans-30" x="127.246094"/>
      </g>
     </g>
    </g>
    <g id="ytick_2">
     <g id="line2d_10">
      <g>
       <use xlink:href="#m05d1f0df15" x="57.6" y="235.976728" style="stroke: #000000; stroke-width: 0.8"/>
      </g>
     </g>
     <g id="text_10">
      <!-- 120 -->
      <g transform="translate(31.5125 239.775946) scale(0.1 -0.1)">
       <use xlink:href="#DejaVuSans-31"/>
       <use xlink:href="#DejaVuSans-32" x="63.623047"/>
       <use xlink:href="#DejaVuSans-30" x="127.246094"/>
      </g>
     </g>
    </g>
    <g id="ytick_3">
     <g id="line2d_11">
      <g>
       <use xlink:href="#m05d1f0df15" x="57.6" y="199.958311" style="stroke: #000000; stroke-width: 0.8"/>
      </g>
     </g>
     <g id="text_11">
      <!-- 140 -->
      <g transform="translate(31.5125 203.75753) scale(0.1 -0.1)">
       <use xlink:href="#DejaVuSans-31"/>
       <use xlink:href="#DejaVuSans-34" x="63.623047"/>
       <use xlink:href="#DejaVuSans-30" x="127.246094"/>
      </g>
     </g>
    </g>
    <g id="ytick_4">
     <g id="line2d_12">
      <g>
       <use xlink:href="#m05d1f0df15" x="57.6" y="163.939894" style="stroke: #000000; stroke-width: 0.8"/>
      </g>
     </g>
     <g id="text_12">
      <!-- 160 -->
      <g transform="translate(31.5125 167.739113) scale(0.1 -0.1)">
       <use xlink:href="#DejaVuSans-31"/>
       <use xlink:href="#DejaVuSans-36" x="63.623047"/>
       <use xlink:href="#DejaVuSans-30" x="127.246094"/>
      </g>
     </g>
    </g>
    <g id="ytick_5">
     <g id="line2d_13">
      <g>
       <use xlink:href="#m05d1f0df15" x="57.6" y="127.921477" style="stroke: #000000; stroke-width: 0.8"/>
      </g>
     </g>
     <g id="text_13">
      <!-- 180 -->
      <g transform="translate(31.5125 131.720696) scale(0.1 -0.1)">
       <use xlink:href="#DejaVuSans-31"/>
       <use xlink:href="#DejaVuSans-38" x="63.623047"/>
       <use xlink:href="#DejaVuSans-30" x="127.246094"/>
      </g>
     </g>
    </g>
    <g id="ytick_6">
     <g id="line2d_14">
      <g>
       <use xlink:href="#m05d1f0df15" x="57.6" y="91.903061" style="stroke: #000000; stroke-width: 0.8"/>
      </g>
     </g>
     <g id="text_14">
      <!-- 200 -->
      <g transform="translate(31.5125 95.702279) scale(0.1 -0.1)">
       <use xlink:href="#DejaVuSans-32"/>
       <use xlink:href="#DejaVuSans-30" x="63.623047"/>
       <use xlink:href="#DejaVuSans-30" x="127.246094"/>
      </g>
     </g>
    </g>
    <g id="ytick_7">
     <g id="line2d_15">
      <g>
       <use xlink:href="#m05d1f0df15" x="57.6" y="55.884644" style="stroke: #000000; stroke-width: 0.8"/>
      </g>
     </g>
     <g id="text_15">
      <!-- 220 -->
      <g transform="translate(31.5125 59.683863) scale(0.1 -0.1)">
       <use xlink:href="#DejaVuSans-32"/>
       <use xlink:href="#DejaVuSans-32" x="63.623047"/>
       <use xlink:href="#DejaVuSans-30" x="127.246094"/>
      </g>
     </g>
    </g>
   </g>
   <g id="line2d_16">
    <path d="M 57.6 211.551865 
L 414.72 211.551865 
" clip-path="url(#pe19b8e6f72)" style="fill: none; stroke: #1f77b4; stroke-width: 1.5; stroke-linecap: square"/>
   </g>
   <g id="patch_3">
    <path d="M 57.6 307.584 
L 57.6 41.472 
" style="fill: none; stroke: #000000; stroke-width: 0.8; stroke-linejoin: miter; stroke-linecap: square"/>
   </g>
   <g id="patch_4">
    <path d="M 414.72 307.584 
L 414.72 41.472 
" style="fill: none; stroke: #000000; stroke-width: 0.8; stroke-linejoin: miter; stroke-linecap: square"/>
   </g>
   <g id="patch_5">
    <path d="M 57.6 307.584 
L 414.72 307.584 
" style="fill: none; stroke: #000000; stroke-width: 0.8; stroke-linejoin: miter; stroke-linecap: square"/>
   </g>
   <g id="patch_6">
    <path d="M 57.6 41.472 
L 414.72 41.472 
" style="fill: none; stroke: #000000; stroke-width: 0.8; stroke-linejoin: miter; stroke-linecap: square"/>
   </g>
  </g>
 </g>
 <defs>
  <clipPath id="pe19b8e6f72">
   <rect x="57.6" y="41.472" width="357.12" height="266.112"/>
  </clipPath>
 </defs>
</svg>
