<?xml version="1.0" encoding="utf-8" standalone="no"?>
<!DOCTYPE svg PUBLIC "-//W3C//DTD SVG 1.1//EN"
  "http://www.w3.org/Graphics/SVG/1.1/DTD/svg11.dtd">
<svg xmlns:xlink="http://www.w3.org/1999/xlink" width="460.8pt" height="345.6pt" viewBox="0 0 460.8 345.6" xmlns="http://www.w3.org/2000/svg" version="1.1">
 <metadata>
  <rdf:RDF xmlns:dc="http://purl.org/dc/elements/1.1/" xmlns:cc="http://creativecommons.org/ns#" xmlns:rdf="http://www.w3.org/1999/02/22-rdf-syntax-ns#">
   <cc:Work>
    <dc:type rdf:resource="http://purl.org/dc/dcmitype/StillImage"/>
    <dc:date>2023-04-17T10:00:15.954674</dc:date>
    <dc:format>image/svg+xml</dc:format>
    <dc:creator>
     <cc:Agent>
      <dc:title>Matplotlib v3.7.1, https://matplotlib.org/</dc:title>
     </cc:Agent>
    </dc:creator>
   </cc:Work>
  </rdf:RDF>
 </metadata>
 <defs>
  <style type="text/css">*{stroke-linejoin: round; stroke-linecap: butt}</style>
 </defs>
 <g id="figure_1">
  <g id="patch_1">
   <path d="M 0 345.6 
L 460.8 345.6 
L 460.8 0 
L 0 0 
z
" style="fill: #ffffff"/>
  </g>
  <g id="axes_1">
   <g id="patch_2">
    <path d="M 57.6 307.584 
L 414.72 307.584 
L 414.72 41.472 
L 57.6 41.472 
z
" style="fill: #ffffff"/>
   </g>
   <g id="PathCollection_1">
    <defs>
     <path id="m0ec1de0360" d="M 0 3 
C 0.795609 3 1.55874 2.683901 2.12132 2.12132 
C 2.683901 1.55874 3 0.795609 3 0 
C 3 -0.795609 2.683901 -1.55874 2.12132 -2.12132 
C 1.55874 -2.683901 0.795609 -3 0 -3 
C -0.795609 -3 -1.55874 -2.683901 -2.12132 -2.12132 
C -2.683901 -1.55874 -3 -0.795609 -3 0 
C -3 0.795609 -2.683901 1.55874 -2.12132 2.12132 
C -1.55874 2.683901 -0.795609 3 0 3 
z
" style="stroke: #ff0000"/>
    </defs>
    <g clip-path="url(#p680e293976)">
     <use xlink:href="#m0ec1de0360" x="257.085075" y="94.09777" style="fill: #ff0000; stroke: #ff0000"/>
     <use xlink:href="#m0ec1de0360" x="304.900007" y="95.381712" style="fill: #ff0000; stroke: #ff0000"/>
     <use xlink:href="#m0ec1de0360" x="248.316225" y="86.847428" style="fill: #ff0000; stroke: #ff0000"/>
     <use xlink:href="#m0ec1de0360" x="288.261594" y="100.959326" style="fill: #ff0000; stroke: #ff0000"/>
     <use xlink:href="#m0ec1de0360" x="275.638176" y="103.95251" style="fill: #ff0000; stroke: #ff0000"/>
     <use xlink:href="#m0ec1de0360" x="96.438434" y="86.811505" style="fill: #ff0000; stroke: #ff0000"/>
     <use xlink:href="#m0ec1de0360" x="309.866323" y="89.060412" style="fill: #ff0000; stroke: #ff0000"/>
     <use xlink:href="#m0ec1de0360" x="305.950521" y="88.902418" style="fill: #ff0000; stroke: #ff0000"/>
     <use xlink:href="#m0ec1de0360" x="248.573677" y="96.493005" style="fill: #ff0000; stroke: #ff0000"/>
     <use xlink:href="#m0ec1de0360" x="284.742459" y="84.168865" style="fill: #ff0000; stroke: #ff0000"/>
     <use xlink:href="#m0ec1de0360" x="292.485745" y="83.285529" style="fill: #ff0000; stroke: #ff0000"/>
     <use xlink:href="#m0ec1de0360" x="123.042746" y="80.510247" style="fill: #ff0000; stroke: #ff0000"/>
     <use xlink:href="#m0ec1de0360" x="272.677012" y="91.951547" style="fill: #ff0000; stroke: #ff0000"/>
     <use xlink:href="#m0ec1de0360" x="115.012766" y="103.38725" style="fill: #ff0000; stroke: #ff0000"/>
     <use xlink:href="#m0ec1de0360" x="289.480155" y="103.957876" style="fill: #ff0000; stroke: #ff0000"/>
     <use xlink:href="#m0ec1de0360" x="293.069717" y="82.784102" style="fill: #ff0000; stroke: #ff0000"/>
     <use xlink:href="#m0ec1de0360" x="238.965901" y="63.344032" style="fill: #ff0000; stroke: #ff0000"/>
     <use xlink:href="#m0ec1de0360" x="125.081504" y="93.447476" style="fill: #ff0000; stroke: #ff0000"/>
     <use xlink:href="#m0ec1de0360" x="255.393992" y="82.386287" style="fill: #ff0000; stroke: #ff0000"/>
     <use xlink:href="#m0ec1de0360" x="156.221939" y="66.272935" style="fill: #ff0000; stroke: #ff0000"/>
     <use xlink:href="#m0ec1de0360" x="283.960965" y="71.973632" style="fill: #ff0000; stroke: #ff0000"/>
     <use xlink:href="#m0ec1de0360" x="313.504365" y="93.044719" style="fill: #ff0000; stroke: #ff0000"/>
     <use xlink:href="#m0ec1de0360" x="265.000484" y="84.559034" style="fill: #ff0000; stroke: #ff0000"/>
     <use xlink:href="#m0ec1de0360" x="234.816829" y="81.905592" style="fill: #ff0000; stroke: #ff0000"/>
     <use xlink:href="#m0ec1de0360" x="123.197322" y="90.154144" style="fill: #ff0000; stroke: #ff0000"/>
     <use xlink:href="#m0ec1de0360" x="240.003458" y="105.088553" style="fill: #ff0000; stroke: #ff0000"/>
     <use xlink:href="#m0ec1de0360" x="279.602299" y="82.58691" style="fill: #ff0000; stroke: #ff0000"/>
     <use xlink:href="#m0ec1de0360" x="245.589615" y="66.034451" style="fill: #ff0000; stroke: #ff0000"/>
     <use xlink:href="#m0ec1de0360" x="112.688455" y="113.07145" style="fill: #ff0000; stroke: #ff0000"/>
     <use xlink:href="#m0ec1de0360" x="306.64711" y="86.563551" style="fill: #ff0000; stroke: #ff0000"/>
     <use xlink:href="#m0ec1de0360" x="294.075714" y="92.911185" style="fill: #ff0000; stroke: #ff0000"/>
     <use xlink:href="#m0ec1de0360" x="296.574636" y="80.889963" style="fill: #ff0000; stroke: #ff0000"/>
     <use xlink:href="#m0ec1de0360" x="308.240709" y="90.136651" style="fill: #ff0000; stroke: #ff0000"/>
     <use xlink:href="#m0ec1de0360" x="248.919552" y="64.674619" style="fill: #ff0000; stroke: #ff0000"/>
     <use xlink:href="#m0ec1de0360" x="253.902012" y="87.372322" style="fill: #ff0000; stroke: #ff0000"/>
     <use xlink:href="#m0ec1de0360" x="119.306937" y="90.335336" style="fill: #ff0000; stroke: #ff0000"/>
     <use xlink:href="#m0ec1de0360" x="228.456316" y="108.634331" style="fill: #ff0000; stroke: #ff0000"/>
     <use xlink:href="#m0ec1de0360" x="266.516865" y="69.475434" style="fill: #ff0000; stroke: #ff0000"/>
     <use xlink:href="#m0ec1de0360" x="262.877247" y="74.640041" style="fill: #ff0000; stroke: #ff0000"/>
     <use xlink:href="#m0ec1de0360" x="122.794061" y="98.491798" style="fill: #ff0000; stroke: #ff0000"/>
     <use xlink:href="#m0ec1de0360" x="269.004578" y="77.805976" style="fill: #ff0000; stroke: #ff0000"/>
     <use xlink:href="#m0ec1de0360" x="257.721269" y="91.249442" style="fill: #ff0000; stroke: #ff0000"/>
     <use xlink:href="#m0ec1de0360" x="302.715615" y="81.774688" style="fill: #ff0000; stroke: #ff0000"/>
     <use xlink:href="#m0ec1de0360" x="109.080959" y="105.279623" style="fill: #ff0000; stroke: #ff0000"/>
     <use xlink:href="#m0ec1de0360" x="275.775535" y="93.673373" style="fill: #ff0000; stroke: #ff0000"/>
     <use xlink:href="#m0ec1de0360" x="88.35844" y="74.860057" style="fill: #ff0000; stroke: #ff0000"/>
     <use xlink:href="#m0ec1de0360" x="124.729156" y="80.795719" style="fill: #ff0000; stroke: #ff0000"/>
     <use xlink:href="#m0ec1de0360" x="85.922153" y="87.214015" style="fill: #ff0000; stroke: #ff0000"/>
     <use xlink:href="#m0ec1de0360" x="109.445484" y="77.851395" style="fill: #ff0000; stroke: #ff0000"/>
     <use xlink:href="#m0ec1de0360" x="268.209755" y="83.105725" style="fill: #ff0000; stroke: #ff0000"/>
     <use xlink:href="#m0ec1de0360" x="134.596702" y="90.789385" style="fill: #ff0000; stroke: #ff0000"/>
     <use xlink:href="#m0ec1de0360" x="235.609915" y="91.310909" style="fill: #ff0000; stroke: #ff0000"/>
     <use xlink:href="#m0ec1de0360" x="121.88401" y="82.333176" style="fill: #ff0000; stroke: #ff0000"/>
     <use xlink:href="#m0ec1de0360" x="251.951605" y="109.990876" style="fill: #ff0000; stroke: #ff0000"/>
     <use xlink:href="#m0ec1de0360" x="131.517562" y="82.23351" style="fill: #ff0000; stroke: #ff0000"/>
     <use xlink:href="#m0ec1de0360" x="291.196253" y="63.90134" style="fill: #ff0000; stroke: #ff0000"/>
     <use xlink:href="#m0ec1de0360" x="255.140583" y="62.971107" style="fill: #ff0000; stroke: #ff0000"/>
     <use xlink:href="#m0ec1de0360" x="280.961773" y="98.335066" style="fill: #ff0000; stroke: #ff0000"/>
     <use xlink:href="#m0ec1de0360" x="129.530531" y="92.820183" style="fill: #ff0000; stroke: #ff0000"/>
     <use xlink:href="#m0ec1de0360" x="279.66534" y="70.578546" style="fill: #ff0000; stroke: #ff0000"/>
     <use xlink:href="#m0ec1de0360" x="318.712763" y="78.765546" style="fill: #ff0000; stroke: #ff0000"/>
     <use xlink:href="#m0ec1de0360" x="287.75716" y="103.119956" style="fill: #ff0000; stroke: #ff0000"/>
     <use xlink:href="#m0ec1de0360" x="117.415311" y="85.941956" style="fill: #ff0000; stroke: #ff0000"/>
     <use xlink:href="#m0ec1de0360" x="83.97311" y="92.256357" style="fill: #ff0000; stroke: #ff0000"/>
     <use xlink:href="#m0ec1de0360" x="234.410794" y="72.257637" style="fill: #ff0000; stroke: #ff0000"/>
     <use xlink:href="#m0ec1de0360" x="111.180433" y="105.083379" style="fill: #ff0000; stroke: #ff0000"/>
     <use xlink:href="#m0ec1de0360" x="280.696183" y="82.755591" style="fill: #ff0000; stroke: #ff0000"/>
     <use xlink:href="#m0ec1de0360" x="254.176775" y="71.406769" style="fill: #ff0000; stroke: #ff0000"/>
     <use xlink:href="#m0ec1de0360" x="254.695696" y="102.200477" style="fill: #ff0000; stroke: #ff0000"/>
     <use xlink:href="#m0ec1de0360" x="129.635331" y="87.080108" style="fill: #ff0000; stroke: #ff0000"/>
     <use xlink:href="#m0ec1de0360" x="291.145568" y="75.348469" style="fill: #ff0000; stroke: #ff0000"/>
     <use xlink:href="#m0ec1de0360" x="108.81473" y="88.126833" style="fill: #ff0000; stroke: #ff0000"/>
     <use xlink:href="#m0ec1de0360" x="141.868449" y="59.633795" style="fill: #ff0000; stroke: #ff0000"/>
     <use xlink:href="#m0ec1de0360" x="269.405463" y="98.281161" style="fill: #ff0000; stroke: #ff0000"/>
     <use xlink:href="#m0ec1de0360" x="127.668942" y="70.239726" style="fill: #ff0000; stroke: #ff0000"/>
     <use xlink:href="#m0ec1de0360" x="304.611911" y="98.06018" style="fill: #ff0000; stroke: #ff0000"/>
     <use xlink:href="#m0ec1de0360" x="163.055988" y="67.12857" style="fill: #ff0000; stroke: #ff0000"/>
     <use xlink:href="#m0ec1de0360" x="240.511934" y="84.838655" style="fill: #ff0000; stroke: #ff0000"/>
     <use xlink:href="#m0ec1de0360" x="317.921135" y="53.568" style="fill: #ff0000; stroke: #ff0000"/>
     <use xlink:href="#m0ec1de0360" x="270.189804" y="83.945918" style="fill: #ff0000; stroke: #ff0000"/>
     <use xlink:href="#m0ec1de0360" x="245.71386" y="87.775196" style="fill: #ff0000; stroke: #ff0000"/>
     <use xlink:href="#m0ec1de0360" x="212.118775" y="79.795925" style="fill: #ff0000; stroke: #ff0000"/>
     <use xlink:href="#m0ec1de0360" x="239.104529" y="103.747908" style="fill: #ff0000; stroke: #ff0000"/>
     <use xlink:href="#m0ec1de0360" x="225.832838" y="82.2372" style="fill: #ff0000; stroke: #ff0000"/>
     <use xlink:href="#m0ec1de0360" x="304.739583" y="90.967663" style="fill: #ff0000; stroke: #ff0000"/>
     <use xlink:href="#m0ec1de0360" x="289.167672" y="87.788034" style="fill: #ff0000; stroke: #ff0000"/>
     <use xlink:href="#m0ec1de0360" x="111.163422" y="78.340619" style="fill: #ff0000; stroke: #ff0000"/>
     <use xlink:href="#m0ec1de0360" x="239.771756" y="94.269437" style="fill: #ff0000; stroke: #ff0000"/>
     <use xlink:href="#m0ec1de0360" x="94.5624" y="78.007651" style="fill: #ff0000; stroke: #ff0000"/>
     <use xlink:href="#m0ec1de0360" x="230.626933" y="91.67317" style="fill: #ff0000; stroke: #ff0000"/>
     <use xlink:href="#m0ec1de0360" x="235.981147" y="63.140635" style="fill: #ff0000; stroke: #ff0000"/>
     <use xlink:href="#m0ec1de0360" x="120.241218" y="81.295816" style="fill: #ff0000; stroke: #ff0000"/>
     <use xlink:href="#m0ec1de0360" x="143.820462" y="88.63652" style="fill: #ff0000; stroke: #ff0000"/>
     <use xlink:href="#m0ec1de0360" x="243.020663" y="77.627921" style="fill: #ff0000; stroke: #ff0000"/>
     <use xlink:href="#m0ec1de0360" x="240.65563" y="90.857336" style="fill: #ff0000; stroke: #ff0000"/>
     <use xlink:href="#m0ec1de0360" x="315.072857" y="93.64127" style="fill: #ff0000; stroke: #ff0000"/>
     <use xlink:href="#m0ec1de0360" x="109.314775" y="89.007669" style="fill: #ff0000; stroke: #ff0000"/>
     <use xlink:href="#m0ec1de0360" x="114.53009" y="97.086641" style="fill: #ff0000; stroke: #ff0000"/>
     <use xlink:href="#m0ec1de0360" x="106.223109" y="96.224479" style="fill: #ff0000; stroke: #ff0000"/>
     <use xlink:href="#m0ec1de0360" x="256.097181" y="83.879004" style="fill: #ff0000; stroke: #ff0000"/>
    </g>
   </g>
   <g id="PathCollection_2">
    <g clip-path="url(#p680e293976)">
     <use xlink:href="#m0ec1de0360" x="193.862128" y="276.498682" style="fill: #ff0000; stroke: #ff0000"/>
     <use xlink:href="#m0ec1de0360" x="345.640288" y="277.348974" style="fill: #ff0000; stroke: #ff0000"/>
     <use xlink:href="#m0ec1de0360" x="317.358827" y="257.224443" style="fill: #ff0000; stroke: #ff0000"/>
     <use xlink:href="#m0ec1de0360" x="381.3041" y="261.294868" style="fill: #ff0000; stroke: #ff0000"/>
     <use xlink:href="#m0ec1de0360" x="289.764467" y="272.663039" style="fill: #ff0000; stroke: #ff0000"/>
     <use xlink:href="#m0ec1de0360" x="291.501383" y="264.836694" style="fill: #ff0000; stroke: #ff0000"/>
     <use xlink:href="#m0ec1de0360" x="306.156386" y="276.225199" style="fill: #ff0000; stroke: #ff0000"/>
     <use xlink:href="#m0ec1de0360" x="332.866349" y="258.668612" style="fill: #ff0000; stroke: #ff0000"/>
     <use xlink:href="#m0ec1de0360" x="384.282263" y="265.917177" style="fill: #ff0000; stroke: #ff0000"/>
     <use xlink:href="#m0ec1de0360" x="213.623834" y="267.320253" style="fill: #ff0000; stroke: #ff0000"/>
     <use xlink:href="#m0ec1de0360" x="346.021871" y="260.043249" style="fill: #ff0000; stroke: #ff0000"/>
     <use xlink:href="#m0ec1de0360" x="203.260112" y="282.744417" style="fill: #ff0000; stroke: #ff0000"/>
     <use xlink:href="#m0ec1de0360" x="227.070337" y="274.942615" style="fill: #ff0000; stroke: #ff0000"/>
     <use xlink:href="#m0ec1de0360" x="390.964281" y="266.206288" style="fill: #ff0000; stroke: #ff0000"/>
     <use xlink:href="#m0ec1de0360" x="295.091783" y="261.450834" style="fill: #ff0000; stroke: #ff0000"/>
     <use xlink:href="#m0ec1de0360" x="226.035183" y="270.986743" style="fill: #ff0000; stroke: #ff0000"/>
     <use xlink:href="#m0ec1de0360" x="269.492273" y="281.063533" style="fill: #ff0000; stroke: #ff0000"/>
     <use xlink:href="#m0ec1de0360" x="368.623776" y="271.847286" style="fill: #ff0000; stroke: #ff0000"/>
     <use xlink:href="#m0ec1de0360" x="198.611472" y="291.139557" style="fill: #ff0000; stroke: #ff0000"/>
     <use xlink:href="#m0ec1de0360" x="383.435528" y="265.832493" style="fill: #ff0000; stroke: #ff0000"/>
     <use xlink:href="#m0ec1de0360" x="238.510529" y="271.439922" style="fill: #ff0000; stroke: #ff0000"/>
     <use xlink:href="#m0ec1de0360" x="384.19558" y="281.587376" style="fill: #ff0000; stroke: #ff0000"/>
     <use xlink:href="#m0ec1de0360" x="210.130419" y="273.141679" style="fill: #ff0000; stroke: #ff0000"/>
     <use xlink:href="#m0ec1de0360" x="238.017021" y="270.58041" style="fill: #ff0000; stroke: #ff0000"/>
     <use xlink:href="#m0ec1de0360" x="264.217111" y="286.612798" style="fill: #ff0000; stroke: #ff0000"/>
     <use xlink:href="#m0ec1de0360" x="205.295727" y="271.440683" style="fill: #ff0000; stroke: #ff0000"/>
     <use xlink:href="#m0ec1de0360" x="351.039552" y="265.145584" style="fill: #ff0000; stroke: #ff0000"/>
     <use xlink:href="#m0ec1de0360" x="371.43737" y="266.255591" style="fill: #ff0000; stroke: #ff0000"/>
     <use xlink:href="#m0ec1de0360" x="398.487273" y="267.332052" style="fill: #ff0000; stroke: #ff0000"/>
     <use xlink:href="#m0ec1de0360" x="323.437322" y="269.823484" style="fill: #ff0000; stroke: #ff0000"/>
     <use xlink:href="#m0ec1de0360" x="310.415328" y="286.942428" style="fill: #ff0000; stroke: #ff0000"/>
     <use xlink:href="#m0ec1de0360" x="286.276325" y="279.440643" style="fill: #ff0000; stroke: #ff0000"/>
     <use xlink:href="#m0ec1de0360" x="392.886859" y="268.869745" style="fill: #ff0000; stroke: #ff0000"/>
     <use xlink:href="#m0ec1de0360" x="263.304912" y="256.025744" style="fill: #ff0000; stroke: #ff0000"/>
     <use xlink:href="#m0ec1de0360" x="345.722688" y="281.056934" style="fill: #ff0000; stroke: #ff0000"/>
     <use xlink:href="#m0ec1de0360" x="335.244687" y="264.712312" style="fill: #ff0000; stroke: #ff0000"/>
     <use xlink:href="#m0ec1de0360" x="391.117661" y="279.51229" style="fill: #ff0000; stroke: #ff0000"/>
     <use xlink:href="#m0ec1de0360" x="247.035343" y="265.170689" style="fill: #ff0000; stroke: #ff0000"/>
     <use xlink:href="#m0ec1de0360" x="209.301011" y="278.38221" style="fill: #ff0000; stroke: #ff0000"/>
     <use xlink:href="#m0ec1de0360" x="232.390255" y="271.932761" style="fill: #ff0000; stroke: #ff0000"/>
     <use xlink:href="#m0ec1de0360" x="330.030127" y="268.699143" style="fill: #ff0000; stroke: #ff0000"/>
     <use xlink:href="#m0ec1de0360" x="189.585664" y="280.730539" style="fill: #ff0000; stroke: #ff0000"/>
     <use xlink:href="#m0ec1de0360" x="255.272643" y="269.433535" style="fill: #ff0000; stroke: #ff0000"/>
     <use xlink:href="#m0ec1de0360" x="300.491084" y="270.7521" style="fill: #ff0000; stroke: #ff0000"/>
     <use xlink:href="#m0ec1de0360" x="346.855718" y="275.721409" style="fill: #ff0000; stroke: #ff0000"/>
     <use xlink:href="#m0ec1de0360" x="231.631134" y="271.4306" style="fill: #ff0000; stroke: #ff0000"/>
     <use xlink:href="#m0ec1de0360" x="358.042662" y="275.760016" style="fill: #ff0000; stroke: #ff0000"/>
     <use xlink:href="#m0ec1de0360" x="223.085477" y="268.794036" style="fill: #ff0000; stroke: #ff0000"/>
     <use xlink:href="#m0ec1de0360" x="326.854809" y="273.619737" style="fill: #ff0000; stroke: #ff0000"/>
     <use xlink:href="#m0ec1de0360" x="328.459559" y="266.621939" style="fill: #ff0000; stroke: #ff0000"/>
     <use xlink:href="#m0ec1de0360" x="246.416192" y="275.296944" style="fill: #ff0000; stroke: #ff0000"/>
     <use xlink:href="#m0ec1de0360" x="238.527766" y="282.707849" style="fill: #ff0000; stroke: #ff0000"/>
     <use xlink:href="#m0ec1de0360" x="314.471155" y="264.888961" style="fill: #ff0000; stroke: #ff0000"/>
     <use xlink:href="#m0ec1de0360" x="253.443249" y="280.119392" style="fill: #ff0000; stroke: #ff0000"/>
     <use xlink:href="#m0ec1de0360" x="393.206102" y="269.063737" style="fill: #ff0000; stroke: #ff0000"/>
     <use xlink:href="#m0ec1de0360" x="279.081225" y="269.869418" style="fill: #ff0000; stroke: #ff0000"/>
     <use xlink:href="#m0ec1de0360" x="377.157068" y="288.278268" style="fill: #ff0000; stroke: #ff0000"/>
     <use xlink:href="#m0ec1de0360" x="266.824929" y="295.488" style="fill: #ff0000; stroke: #ff0000"/>
     <use xlink:href="#m0ec1de0360" x="214.386481" y="268.608865" style="fill: #ff0000; stroke: #ff0000"/>
     <use xlink:href="#m0ec1de0360" x="234.842695" y="269.10412" style="fill: #ff0000; stroke: #ff0000"/>
     <use xlink:href="#m0ec1de0360" x="239.054829" y="250.731938" style="fill: #ff0000; stroke: #ff0000"/>
     <use xlink:href="#m0ec1de0360" x="184.365368" y="270.208627" style="fill: #ff0000; stroke: #ff0000"/>
     <use xlink:href="#m0ec1de0360" x="316.747582" y="269.852117" style="fill: #ff0000; stroke: #ff0000"/>
     <use xlink:href="#m0ec1de0360" x="226.465838" y="277.798795" style="fill: #ff0000; stroke: #ff0000"/>
     <use xlink:href="#m0ec1de0360" x="380.869129" y="276.326268" style="fill: #ff0000; stroke: #ff0000"/>
     <use xlink:href="#m0ec1de0360" x="376.255397" y="280.552123" style="fill: #ff0000; stroke: #ff0000"/>
     <use xlink:href="#m0ec1de0360" x="319.646448" y="281.59328" style="fill: #ff0000; stroke: #ff0000"/>
     <use xlink:href="#m0ec1de0360" x="336.0396" y="266.939267" style="fill: #ff0000; stroke: #ff0000"/>
     <use xlink:href="#m0ec1de0360" x="380.557503" y="275.072235" style="fill: #ff0000; stroke: #ff0000"/>
     <use xlink:href="#m0ec1de0360" x="244.320596" y="279.267222" style="fill: #ff0000; stroke: #ff0000"/>
     <use xlink:href="#m0ec1de0360" x="238.098549" y="279.454806" style="fill: #ff0000; stroke: #ff0000"/>
     <use xlink:href="#m0ec1de0360" x="296.16503" y="269.126434" style="fill: #ff0000; stroke: #ff0000"/>
     <use xlink:href="#m0ec1de0360" x="195.365936" y="279.879799" style="fill: #ff0000; stroke: #ff0000"/>
     <use xlink:href="#m0ec1de0360" x="397.954813" y="272.874247" style="fill: #ff0000; stroke: #ff0000"/>
     <use xlink:href="#m0ec1de0360" x="277.142615" y="273.251503" style="fill: #ff0000; stroke: #ff0000"/>
     <use xlink:href="#m0ec1de0360" x="207.677694" y="268.1133" style="fill: #ff0000; stroke: #ff0000"/>
     <use xlink:href="#m0ec1de0360" x="225.857188" y="262.975534" style="fill: #ff0000; stroke: #ff0000"/>
     <use xlink:href="#m0ec1de0360" x="359.172236" y="265.192015" style="fill: #ff0000; stroke: #ff0000"/>
     <use xlink:href="#m0ec1de0360" x="248.373581" y="277.057826" style="fill: #ff0000; stroke: #ff0000"/>
     <use xlink:href="#m0ec1de0360" x="395.380559" y="282.146657" style="fill: #ff0000; stroke: #ff0000"/>
     <use xlink:href="#m0ec1de0360" x="188.576606" y="289.399635" style="fill: #ff0000; stroke: #ff0000"/>
     <use xlink:href="#m0ec1de0360" x="250.535223" y="261.640128" style="fill: #ff0000; stroke: #ff0000"/>
     <use xlink:href="#m0ec1de0360" x="280.292823" y="274.260319" style="fill: #ff0000; stroke: #ff0000"/>
     <use xlink:href="#m0ec1de0360" x="394.138723" y="277.247661" style="fill: #ff0000; stroke: #ff0000"/>
     <use xlink:href="#m0ec1de0360" x="352.822255" y="274.713247" style="fill: #ff0000; stroke: #ff0000"/>
     <use xlink:href="#m0ec1de0360" x="317.644253" y="266.454812" style="fill: #ff0000; stroke: #ff0000"/>
     <use xlink:href="#m0ec1de0360" x="383.07791" y="292.494952" style="fill: #ff0000; stroke: #ff0000"/>
     <use xlink:href="#m0ec1de0360" x="341.12256" y="261.893775" style="fill: #ff0000; stroke: #ff0000"/>
     <use xlink:href="#m0ec1de0360" x="276.531747" y="261.69725" style="fill: #ff0000; stroke: #ff0000"/>
     <use xlink:href="#m0ec1de0360" x="363.007268" y="271.985168" style="fill: #ff0000; stroke: #ff0000"/>
     <use xlink:href="#m0ec1de0360" x="311.03312" y="291.683193" style="fill: #ff0000; stroke: #ff0000"/>
     <use xlink:href="#m0ec1de0360" x="247.006463" y="265.052418" style="fill: #ff0000; stroke: #ff0000"/>
     <use xlink:href="#m0ec1de0360" x="226.868728" y="259.26129" style="fill: #ff0000; stroke: #ff0000"/>
     <use xlink:href="#m0ec1de0360" x="260.379002" y="282.736476" style="fill: #ff0000; stroke: #ff0000"/>
     <use xlink:href="#m0ec1de0360" x="215.084375" y="256.047958" style="fill: #ff0000; stroke: #ff0000"/>
     <use xlink:href="#m0ec1de0360" x="222.20348" y="254.91908" style="fill: #ff0000; stroke: #ff0000"/>
     <use xlink:href="#m0ec1de0360" x="346.641687" y="269.751054" style="fill: #ff0000; stroke: #ff0000"/>
     <use xlink:href="#m0ec1de0360" x="196.078806" y="260.968113" style="fill: #ff0000; stroke: #ff0000"/>
     <use xlink:href="#m0ec1de0360" x="390.747136" y="254.812601" style="fill: #ff0000; stroke: #ff0000"/>
     <use xlink:href="#m0ec1de0360" x="283.080075" y="270.404833" style="fill: #ff0000; stroke: #ff0000"/>
     <use xlink:href="#m0ec1de0360" x="152.948702" y="279.916014" style="fill: #ff0000; stroke: #ff0000"/>
     <use xlink:href="#m0ec1de0360" x="146.151769" y="288.65544" style="fill: #ff0000; stroke: #ff0000"/>
     <use xlink:href="#m0ec1de0360" x="98.295314" y="279.209241" style="fill: #ff0000; stroke: #ff0000"/>
     <use xlink:href="#m0ec1de0360" x="108.138491" y="266.830796" style="fill: #ff0000; stroke: #ff0000"/>
     <use xlink:href="#m0ec1de0360" x="141.107677" y="253.742002" style="fill: #ff0000; stroke: #ff0000"/>
     <use xlink:href="#m0ec1de0360" x="124.495042" y="270.555269" style="fill: #ff0000; stroke: #ff0000"/>
     <use xlink:href="#m0ec1de0360" x="86.93762" y="261.648247" style="fill: #ff0000; stroke: #ff0000"/>
     <use xlink:href="#m0ec1de0360" x="79.223953" y="275.150889" style="fill: #ff0000; stroke: #ff0000"/>
     <use xlink:href="#m0ec1de0360" x="95.118417" y="268.330901" style="fill: #ff0000; stroke: #ff0000"/>
     <use xlink:href="#m0ec1de0360" x="84.129848" y="274.21718" style="fill: #ff0000; stroke: #ff0000"/>
     <use xlink:href="#m0ec1de0360" x="125.030548" y="277.037271" style="fill: #ff0000; stroke: #ff0000"/>
     <use xlink:href="#m0ec1de0360" x="105.17623" y="263.588207" style="fill: #ff0000; stroke: #ff0000"/>
     <use xlink:href="#m0ec1de0360" x="86.812897" y="275.775188" style="fill: #ff0000; stroke: #ff0000"/>
     <use xlink:href="#m0ec1de0360" x="116.29767" y="263.968023" style="fill: #ff0000; stroke: #ff0000"/>
     <use xlink:href="#m0ec1de0360" x="145.947641" y="263.848615" style="fill: #ff0000; stroke: #ff0000"/>
     <use xlink:href="#m0ec1de0360" x="105.228088" y="264.524078" style="fill: #ff0000; stroke: #ff0000"/>
     <use xlink:href="#m0ec1de0360" x="81.20537" y="273.165124" style="fill: #ff0000; stroke: #ff0000"/>
     <use xlink:href="#m0ec1de0360" x="83.538422" y="266.821561" style="fill: #ff0000; stroke: #ff0000"/>
     <use xlink:href="#m0ec1de0360" x="111.112873" y="288.889056" style="fill: #ff0000; stroke: #ff0000"/>
     <use xlink:href="#m0ec1de0360" x="159.298608" y="265.354043" style="fill: #ff0000; stroke: #ff0000"/>
     <use xlink:href="#m0ec1de0360" x="144.724242" y="264.381909" style="fill: #ff0000; stroke: #ff0000"/>
     <use xlink:href="#m0ec1de0360" x="125.165116" y="275.139645" style="fill: #ff0000; stroke: #ff0000"/>
     <use xlink:href="#m0ec1de0360" x="127.93557" y="273.948614" style="fill: #ff0000; stroke: #ff0000"/>
     <use xlink:href="#m0ec1de0360" x="112.515678" y="266.085568" style="fill: #ff0000; stroke: #ff0000"/>
     <use xlink:href="#m0ec1de0360" x="81.338951" y="279.973022" style="fill: #ff0000; stroke: #ff0000"/>
     <use xlink:href="#m0ec1de0360" x="154.002296" y="269.623719" style="fill: #ff0000; stroke: #ff0000"/>
     <use xlink:href="#m0ec1de0360" x="138.227956" y="272.670668" style="fill: #ff0000; stroke: #ff0000"/>
     <use xlink:href="#m0ec1de0360" x="76.76554" y="261.524937" style="fill: #ff0000; stroke: #ff0000"/>
     <use xlink:href="#m0ec1de0360" x="124.852815" y="288.99384" style="fill: #ff0000; stroke: #ff0000"/>
     <use xlink:href="#m0ec1de0360" x="146.808671" y="286.866206" style="fill: #ff0000; stroke: #ff0000"/>
     <use xlink:href="#m0ec1de0360" x="85.968109" y="259.453172" style="fill: #ff0000; stroke: #ff0000"/>
     <use xlink:href="#m0ec1de0360" x="119.812852" y="263.56936" style="fill: #ff0000; stroke: #ff0000"/>
     <use xlink:href="#m0ec1de0360" x="73.832727" y="267.408801" style="fill: #ff0000; stroke: #ff0000"/>
     <use xlink:href="#m0ec1de0360" x="126.790863" y="278.472735" style="fill: #ff0000; stroke: #ff0000"/>
     <use xlink:href="#m0ec1de0360" x="118.806104" y="253.844422" style="fill: #ff0000; stroke: #ff0000"/>
     <use xlink:href="#m0ec1de0360" x="92.820673" y="272.031676" style="fill: #ff0000; stroke: #ff0000"/>
     <use xlink:href="#m0ec1de0360" x="88.712157" y="294.423086" style="fill: #ff0000; stroke: #ff0000"/>
     <use xlink:href="#m0ec1de0360" x="145.95034" y="276.504602" style="fill: #ff0000; stroke: #ff0000"/>
     <use xlink:href="#m0ec1de0360" x="82.692885" y="265.925262" style="fill: #ff0000; stroke: #ff0000"/>
     <use xlink:href="#m0ec1de0360" x="127.562478" y="265.98745" style="fill: #ff0000; stroke: #ff0000"/>
     <use xlink:href="#m0ec1de0360" x="135.963853" y="266.397439" style="fill: #ff0000; stroke: #ff0000"/>
     <use xlink:href="#m0ec1de0360" x="85.305215" y="268.278948" style="fill: #ff0000; stroke: #ff0000"/>
     <use xlink:href="#m0ec1de0360" x="79.982112" y="263.374915" style="fill: #ff0000; stroke: #ff0000"/>
     <use xlink:href="#m0ec1de0360" x="92.77919" y="281.668892" style="fill: #ff0000; stroke: #ff0000"/>
     <use xlink:href="#m0ec1de0360" x="121.863082" y="265.024873" style="fill: #ff0000; stroke: #ff0000"/>
     <use xlink:href="#m0ec1de0360" x="86.294784" y="267.906433" style="fill: #ff0000; stroke: #ff0000"/>
     <use xlink:href="#m0ec1de0360" x="119.131868" y="264.002735" style="fill: #ff0000; stroke: #ff0000"/>
     <use xlink:href="#m0ec1de0360" x="129.243003" y="265.19819" style="fill: #ff0000; stroke: #ff0000"/>
     <use xlink:href="#m0ec1de0360" x="89.412829" y="268.30235" style="fill: #ff0000; stroke: #ff0000"/>
     <use xlink:href="#m0ec1de0360" x="141.535248" y="280.765808" style="fill: #ff0000; stroke: #ff0000"/>
     <use xlink:href="#m0ec1de0360" x="135.404597" y="281.08116" style="fill: #ff0000; stroke: #ff0000"/>
     <use xlink:href="#m0ec1de0360" x="100.122764" y="264.159922" style="fill: #ff0000; stroke: #ff0000"/>
     <use xlink:href="#m0ec1de0360" x="106.609206" y="273.680625" style="fill: #ff0000; stroke: #ff0000"/>
     <use xlink:href="#m0ec1de0360" x="91.948367" y="269.572921" style="fill: #ff0000; stroke: #ff0000"/>
     <use xlink:href="#m0ec1de0360" x="124.050267" y="265.953389" style="fill: #ff0000; stroke: #ff0000"/>
     <use xlink:href="#m0ec1de0360" x="101.735369" y="271.240071" style="fill: #ff0000; stroke: #ff0000"/>
     <use xlink:href="#m0ec1de0360" x="119.829376" y="276.345894" style="fill: #ff0000; stroke: #ff0000"/>
     <use xlink:href="#m0ec1de0360" x="137.299743" y="282.33284" style="fill: #ff0000; stroke: #ff0000"/>
     <use xlink:href="#m0ec1de0360" x="149.07477" y="261.765528" style="fill: #ff0000; stroke: #ff0000"/>
     <use xlink:href="#m0ec1de0360" x="118.216064" y="274.881892" style="fill: #ff0000; stroke: #ff0000"/>
     <use xlink:href="#m0ec1de0360" x="88.768051" y="290.400658" style="fill: #ff0000; stroke: #ff0000"/>
     <use xlink:href="#m0ec1de0360" x="144.564136" y="261.485342" style="fill: #ff0000; stroke: #ff0000"/>
     <use xlink:href="#m0ec1de0360" x="93.688606" y="273.25965" style="fill: #ff0000; stroke: #ff0000"/>
     <use xlink:href="#m0ec1de0360" x="158.953457" y="274.411584" style="fill: #ff0000; stroke: #ff0000"/>
     <use xlink:href="#m0ec1de0360" x="107.905981" y="268.486506" style="fill: #ff0000; stroke: #ff0000"/>
     <use xlink:href="#m0ec1de0360" x="154.54988" y="273.635496" style="fill: #ff0000; stroke: #ff0000"/>
     <use xlink:href="#m0ec1de0360" x="157.0965" y="289.735154" style="fill: #ff0000; stroke: #ff0000"/>
     <use xlink:href="#m0ec1de0360" x="121.994306" y="285.414108" style="fill: #ff0000; stroke: #ff0000"/>
     <use xlink:href="#m0ec1de0360" x="123.432385" y="273.95714" style="fill: #ff0000; stroke: #ff0000"/>
     <use xlink:href="#m0ec1de0360" x="122.922938" y="285.330334" style="fill: #ff0000; stroke: #ff0000"/>
     <use xlink:href="#m0ec1de0360" x="147.264045" y="255.54923" style="fill: #ff0000; stroke: #ff0000"/>
     <use xlink:href="#m0ec1de0360" x="141.057578" y="255.195879" style="fill: #ff0000; stroke: #ff0000"/>
     <use xlink:href="#m0ec1de0360" x="97.582461" y="272.419312" style="fill: #ff0000; stroke: #ff0000"/>
     <use xlink:href="#m0ec1de0360" x="79.400704" y="267.490943" style="fill: #ff0000; stroke: #ff0000"/>
     <use xlink:href="#m0ec1de0360" x="76.916224" y="269.902092" style="fill: #ff0000; stroke: #ff0000"/>
     <use xlink:href="#m0ec1de0360" x="146.699333" y="263.855243" style="fill: #ff0000; stroke: #ff0000"/>
     <use xlink:href="#m0ec1de0360" x="146.214503" y="258.675722" style="fill: #ff0000; stroke: #ff0000"/>
     <use xlink:href="#m0ec1de0360" x="138.654227" y="281.119603" style="fill: #ff0000; stroke: #ff0000"/>
     <use xlink:href="#m0ec1de0360" x="81.894835" y="265.724191" style="fill: #ff0000; stroke: #ff0000"/>
     <use xlink:href="#m0ec1de0360" x="117.219832" y="263.357943" style="fill: #ff0000; stroke: #ff0000"/>
     <use xlink:href="#m0ec1de0360" x="142.13075" y="274.983391" style="fill: #ff0000; stroke: #ff0000"/>
     <use xlink:href="#m0ec1de0360" x="88.417153" y="256.457343" style="fill: #ff0000; stroke: #ff0000"/>
     <use xlink:href="#m0ec1de0360" x="138.08443" y="271.895652" style="fill: #ff0000; stroke: #ff0000"/>
     <use xlink:href="#m0ec1de0360" x="108.517445" y="268.09275" style="fill: #ff0000; stroke: #ff0000"/>
     <use xlink:href="#m0ec1de0360" x="106.240341" y="277.850063" style="fill: #ff0000; stroke: #ff0000"/>
     <use xlink:href="#m0ec1de0360" x="86.967665" y="271.222876" style="fill: #ff0000; stroke: #ff0000"/>
     <use xlink:href="#m0ec1de0360" x="114.65804" y="277.929624" style="fill: #ff0000; stroke: #ff0000"/>
     <use xlink:href="#m0ec1de0360" x="115.537184" y="247.715259" style="fill: #ff0000; stroke: #ff0000"/>
     <use xlink:href="#m0ec1de0360" x="131.039684" y="263.755694" style="fill: #ff0000; stroke: #ff0000"/>
     <use xlink:href="#m0ec1de0360" x="120.068805" y="256.643722" style="fill: #ff0000; stroke: #ff0000"/>
     <use xlink:href="#m0ec1de0360" x="89.131187" y="279.570341" style="fill: #ff0000; stroke: #ff0000"/>
     <use xlink:href="#m0ec1de0360" x="103.225465" y="253.638358" style="fill: #ff0000; stroke: #ff0000"/>
     <use xlink:href="#m0ec1de0360" x="110.702672" y="292.020073" style="fill: #ff0000; stroke: #ff0000"/>
     <use xlink:href="#m0ec1de0360" x="117.830868" y="268.310584" style="fill: #ff0000; stroke: #ff0000"/>
     <use xlink:href="#m0ec1de0360" x="115.867349" y="272.674887" style="fill: #ff0000; stroke: #ff0000"/>
     <use xlink:href="#m0ec1de0360" x="120.220077" y="266.337395" style="fill: #ff0000; stroke: #ff0000"/>
     <use xlink:href="#m0ec1de0360" x="160.042744" y="262.164446" style="fill: #ff0000; stroke: #ff0000"/>
     <use xlink:href="#m0ec1de0360" x="120.001294" y="269.334132" style="fill: #ff0000; stroke: #ff0000"/>
     <use xlink:href="#m0ec1de0360" x="114.188226" y="279.166586" style="fill: #ff0000; stroke: #ff0000"/>
     <use xlink:href="#m0ec1de0360" x="135.242762" y="275.312053" style="fill: #ff0000; stroke: #ff0000"/>
    </g>
   </g>
   <g id="matplotlib.axis_1">
    <g id="xtick_1">
     <g id="line2d_1">
      <defs>
       <path id="m1fd12e0e2f" d="M 0 0 
L 0 3.5 
" style="stroke: #000000; stroke-width: 0.8"/>
      </defs>
      <g>
       <use xlink:href="#m1fd12e0e2f" x="73.517934" y="307.584" style="stroke: #000000; stroke-width: 0.8"/>
      </g>
     </g>
     <g id="text_1">
      <!-- 0 -->
      <g transform="translate(70.336684 322.182437) scale(0.1 -0.1)">
       <defs>
        <path id="DejaVuSans-30" d="M 2034 4250 
Q 1547 4250 1301 3770 
Q 1056 3291 1056 2328 
Q 1056 1369 1301 889 
Q 1547 409 2034 409 
Q 2525 409 2770 889 
Q 3016 1369 3016 2328 
Q 3016 3291 2770 3770 
Q 2525 4250 2034 4250 
z
M 2034 4750 
Q 2819 4750 3233 4129 
Q 3647 3509 3647 2328 
Q 3647 1150 3233 529 
Q 2819 -91 2034 -91 
Q 1250 -91 836 529 
Q 422 1150 422 2328 
Q 422 3509 836 4129 
Q 1250 4750 2034 4750 
z
" transform="scale(0.015625)"/>
       </defs>
       <use xlink:href="#DejaVuSans-30"/>
      </g>
     </g>
    </g>
    <g id="xtick_2">
     <g id="line2d_2">
      <g>
       <use xlink:href="#m1fd12e0e2f" x="117.338347" y="307.584" style="stroke: #000000; stroke-width: 0.8"/>
      </g>
     </g>
     <g id="text_2">
      <!-- 20 -->
      <g transform="translate(110.975847 322.182437) scale(0.1 -0.1)">
       <defs>
        <path id="DejaVuSans-32" d="M 1228 531 
L 3431 531 
L 3431 0 
L 469 0 
L 469 531 
Q 828 903 1448 1529 
Q 2069 2156 2228 2338 
Q 2531 2678 2651 2914 
Q 2772 3150 2772 3378 
Q 2772 3750 2511 3984 
Q 2250 4219 1831 4219 
Q 1534 4219 1204 4116 
Q 875 4013 500 3803 
L 500 4441 
Q 881 4594 1212 4672 
Q 1544 4750 1819 4750 
Q 2544 4750 2975 4387 
Q 3406 4025 3406 3419 
Q 3406 3131 3298 2873 
Q 3191 2616 2906 2266 
Q 2828 2175 2409 1742 
Q 1991 1309 1228 531 
z
" transform="scale(0.015625)"/>
       </defs>
       <use xlink:href="#DejaVuSans-32"/>
       <use xlink:href="#DejaVuSans-30" x="63.623047"/>
      </g>
     </g>
    </g>
    <g id="xtick_3">
     <g id="line2d_3">
      <g>
       <use xlink:href="#m1fd12e0e2f" x="161.158761" y="307.584" style="stroke: #000000; stroke-width: 0.8"/>
      </g>
     </g>
     <g id="text_3">
      <!-- 40 -->
      <g transform="translate(154.796261 322.182437) scale(0.1 -0.1)">
       <defs>
        <path id="DejaVuSans-34" d="M 2419 4116 
L 825 1625 
L 2419 1625 
L 2419 4116 
z
M 2253 4666 
L 3047 4666 
L 3047 1625 
L 3713 1625 
L 3713 1100 
L 3047 1100 
L 3047 0 
L 2419 0 
L 2419 1100 
L 313 1100 
L 313 1709 
L 2253 4666 
z
" transform="scale(0.015625)"/>
       </defs>
       <use xlink:href="#DejaVuSans-34"/>
       <use xlink:href="#DejaVuSans-30" x="63.623047"/>
      </g>
     </g>
    </g>
    <g id="xtick_4">
     <g id="line2d_4">
      <g>
       <use xlink:href="#m1fd12e0e2f" x="204.979174" y="307.584" style="stroke: #000000; stroke-width: 0.8"/>
      </g>
     </g>
     <g id="text_4">
      <!-- 60 -->
      <g transform="translate(198.616674 322.182437) scale(0.1 -0.1)">
       <defs>
        <path id="DejaVuSans-36" d="M 2113 2584 
Q 1688 2584 1439 2293 
Q 1191 2003 1191 1497 
Q 1191 994 1439 701 
Q 1688 409 2113 409 
Q 2538 409 2786 701 
Q 3034 994 3034 1497 
Q 3034 2003 2786 2293 
Q 2538 2584 2113 2584 
z
M 3366 4563 
L 3366 3988 
Q 3128 4100 2886 4159 
Q 2644 4219 2406 4219 
Q 1781 4219 1451 3797 
Q 1122 3375 1075 2522 
Q 1259 2794 1537 2939 
Q 1816 3084 2150 3084 
Q 2853 3084 3261 2657 
Q 3669 2231 3669 1497 
Q 3669 778 3244 343 
Q 2819 -91 2113 -91 
Q 1303 -91 875 529 
Q 447 1150 447 2328 
Q 447 3434 972 4092 
Q 1497 4750 2381 4750 
Q 2619 4750 2861 4703 
Q 3103 4656 3366 4563 
z
" transform="scale(0.015625)"/>
       </defs>
       <use xlink:href="#DejaVuSans-36"/>
       <use xlink:href="#DejaVuSans-30" x="63.623047"/>
      </g>
     </g>
    </g>
    <g id="xtick_5">
     <g id="line2d_5">
      <g>
       <use xlink:href="#m1fd12e0e2f" x="248.799587" y="307.584" style="stroke: #000000; stroke-width: 0.8"/>
      </g>
     </g>
     <g id="text_5">
      <!-- 80 -->
      <g transform="translate(242.437087 322.182437) scale(0.1 -0.1)">
       <defs>
        <path id="DejaVuSans-38" d="M 2034 2216 
Q 1584 2216 1326 1975 
Q 1069 1734 1069 1313 
Q 1069 891 1326 650 
Q 1584 409 2034 409 
Q 2484 409 2743 651 
Q 3003 894 3003 1313 
Q 3003 1734 2745 1975 
Q 2488 2216 2034 2216 
z
M 1403 2484 
Q 997 2584 770 2862 
Q 544 3141 544 3541 
Q 544 4100 942 4425 
Q 1341 4750 2034 4750 
Q 2731 4750 3128 4425 
Q 3525 4100 3525 3541 
Q 3525 3141 3298 2862 
Q 3072 2584 2669 2484 
Q 3125 2378 3379 2068 
Q 3634 1759 3634 1313 
Q 3634 634 3220 271 
Q 2806 -91 2034 -91 
Q 1263 -91 848 271 
Q 434 634 434 1313 
Q 434 1759 690 2068 
Q 947 2378 1403 2484 
z
M 1172 3481 
Q 1172 3119 1398 2916 
Q 1625 2713 2034 2713 
Q 2441 2713 2670 2916 
Q 2900 3119 2900 3481 
Q 2900 3844 2670 4047 
Q 2441 4250 2034 4250 
Q 1625 4250 1398 4047 
Q 1172 3844 1172 3481 
z
" transform="scale(0.015625)"/>
       </defs>
       <use xlink:href="#DejaVuSans-38"/>
       <use xlink:href="#DejaVuSans-30" x="63.623047"/>
      </g>
     </g>
    </g>
    <g id="xtick_6">
     <g id="line2d_6">
      <g>
       <use xlink:href="#m1fd12e0e2f" x="292.620001" y="307.584" style="stroke: #000000; stroke-width: 0.8"/>
      </g>
     </g>
     <g id="text_6">
      <!-- 100 -->
      <g transform="translate(283.076251 322.182437) scale(0.1 -0.1)">
       <defs>
        <path id="DejaVuSans-31" d="M 794 531 
L 1825 531 
L 1825 4091 
L 703 3866 
L 703 4441 
L 1819 4666 
L 2450 4666 
L 2450 531 
L 3481 531 
L 3481 0 
L 794 0 
L 794 531 
z
" transform="scale(0.015625)"/>
       </defs>
       <use xlink:href="#DejaVuSans-31"/>
       <use xlink:href="#DejaVuSans-30" x="63.623047"/>
       <use xlink:href="#DejaVuSans-30" x="127.246094"/>
      </g>
     </g>
    </g>
    <g id="xtick_7">
     <g id="line2d_7">
      <g>
       <use xlink:href="#m1fd12e0e2f" x="336.440414" y="307.584" style="stroke: #000000; stroke-width: 0.8"/>
      </g>
     </g>
     <g id="text_7">
      <!-- 120 -->
      <g transform="translate(326.896664 322.182437) scale(0.1 -0.1)">
       <use xlink:href="#DejaVuSans-31"/>
       <use xlink:href="#DejaVuSans-32" x="63.623047"/>
       <use xlink:href="#DejaVuSans-30" x="127.246094"/>
      </g>
     </g>
    </g>
    <g id="xtick_8">
     <g id="line2d_8">
      <g>
       <use xlink:href="#m1fd12e0e2f" x="380.260827" y="307.584" style="stroke: #000000; stroke-width: 0.8"/>
      </g>
     </g>
     <g id="text_8">
      <!-- 140 -->
      <g transform="translate(370.717077 322.182437) scale(0.1 -0.1)">
       <use xlink:href="#DejaVuSans-31"/>
       <use xlink:href="#DejaVuSans-34" x="63.623047"/>
       <use xlink:href="#DejaVuSans-30" x="127.246094"/>
      </g>
     </g>
    </g>
   </g>
   <g id="matplotlib.axis_2">
    <g id="ytick_1">
     <g id="line2d_9">
      <defs>
       <path id="m9e5b33c985" d="M 0 0 
L -3.5 0 
" style="stroke: #000000; stroke-width: 0.8"/>
      </defs>
      <g>
       <use xlink:href="#m9e5b33c985" x="57.6" y="271.701299" style="stroke: #000000; stroke-width: 0.8"/>
      </g>
     </g>
     <g id="text_9">
      <!-- 100 -->
      <g transform="translate(31.5125 275.500517) scale(0.1 -0.1)">
       <use xlink:href="#DejaVuSans-31"/>
       <use xlink:href="#DejaVuSans-30" x="63.623047"/>
       <use xlink:href="#DejaVuSans-30" x="127.246094"/>
      </g>
     </g>
    </g>
    <g id="ytick_2">
     <g id="line2d_10">
      <g>
       <use xlink:href="#m9e5b33c985" x="57.6" y="234.111249" style="stroke: #000000; stroke-width: 0.8"/>
      </g>
     </g>
     <g id="text_10">
      <!-- 120 -->
      <g transform="translate(31.5125 237.910468) scale(0.1 -0.1)">
       <use xlink:href="#DejaVuSans-31"/>
       <use xlink:href="#DejaVuSans-32" x="63.623047"/>
       <use xlink:href="#DejaVuSans-30" x="127.246094"/>
      </g>
     </g>
    </g>
    <g id="ytick_3">
     <g id="line2d_11">
      <g>
       <use xlink:href="#m9e5b33c985" x="57.6" y="196.521199" style="stroke: #000000; stroke-width: 0.8"/>
      </g>
     </g>
     <g id="text_11">
      <!-- 140 -->
      <g transform="translate(31.5125 200.320418) scale(0.1 -0.1)">
       <use xlink:href="#DejaVuSans-31"/>
       <use xlink:href="#DejaVuSans-34" x="63.623047"/>
       <use xlink:href="#DejaVuSans-30" x="127.246094"/>
      </g>
     </g>
    </g>
    <g id="ytick_4">
     <g id="line2d_12">
      <g>
       <use xlink:href="#m9e5b33c985" x="57.6" y="158.93115" style="stroke: #000000; stroke-width: 0.8"/>
      </g>
     </g>
     <g id="text_12">
      <!-- 160 -->
      <g transform="translate(31.5125 162.730368) scale(0.1 -0.1)">
       <use xlink:href="#DejaVuSans-31"/>
       <use xlink:href="#DejaVuSans-36" x="63.623047"/>
       <use xlink:href="#DejaVuSans-30" x="127.246094"/>
      </g>
     </g>
    </g>
    <g id="ytick_5">
     <g id="line2d_13">
      <g>
       <use xlink:href="#m9e5b33c985" x="57.6" y="121.3411" style="stroke: #000000; stroke-width: 0.8"/>
      </g>
     </g>
     <g id="text_13">
      <!-- 180 -->
      <g transform="translate(31.5125 125.140319) scale(0.1 -0.1)">
       <use xlink:href="#DejaVuSans-31"/>
       <use xlink:href="#DejaVuSans-38" x="63.623047"/>
       <use xlink:href="#DejaVuSans-30" x="127.246094"/>
      </g>
     </g>
    </g>
    <g id="ytick_6">
     <g id="line2d_14">
      <g>
       <use xlink:href="#m9e5b33c985" x="57.6" y="83.75105" style="stroke: #000000; stroke-width: 0.8"/>
      </g>
     </g>
     <g id="text_14">
      <!-- 200 -->
      <g transform="translate(31.5125 87.550269) scale(0.1 -0.1)">
       <use xlink:href="#DejaVuSans-32"/>
       <use xlink:href="#DejaVuSans-30" x="63.623047"/>
       <use xlink:href="#DejaVuSans-30" x="127.246094"/>
      </g>
     </g>
    </g>
    <g id="ytick_7">
     <g id="line2d_15">
      <g>
       <use xlink:href="#m9e5b33c985" x="57.6" y="46.161001" style="stroke: #000000; stroke-width: 0.8"/>
      </g>
     </g>
     <g id="text_15">
      <!-- 220 -->
      <g transform="translate(31.5125 49.96022) scale(0.1 -0.1)">
       <use xlink:href="#DejaVuSans-32"/>
       <use xlink:href="#DejaVuSans-32" x="63.623047"/>
       <use xlink:href="#DejaVuSans-30" x="127.246094"/>
      </g>
     </g>
    </g>
   </g>
   <g id="line2d_16">
    <path d="M 57.6 209.634727 
L 414.72 209.634727 
" clip-path="url(#p680e293976)" style="fill: none; stroke: #1f77b4; stroke-width: 1.5; stroke-linecap: square"/>
   </g>
   <g id="patch_3">
    <path d="M 57.6 307.584 
L 57.6 41.472 
" style="fill: none; stroke: #000000; stroke-width: 0.8; stroke-linejoin: miter; stroke-linecap: square"/>
   </g>
   <g id="patch_4">
    <path d="M 414.72 307.584 
L 414.72 41.472 
" style="fill: none; stroke: #000000; stroke-width: 0.8; stroke-linejoin: miter; stroke-linecap: square"/>
   </g>
   <g id="patch_5">
    <path d="M 57.6 307.584 
L 414.72 307.584 
" style="fill: none; stroke: #000000; stroke-width: 0.8; stroke-linejoin: miter; stroke-linecap: square"/>
   </g>
   <g id="patch_6">
    <path d="M 57.6 41.472 
L 414.72 41.472 
" style="fill: none; stroke: #000000; stroke-width: 0.8; stroke-linejoin: miter; stroke-linecap: square"/>
   </g>
  </g>
 </g>
 <defs>
  <clipPath id="p680e293976">
   <rect x="57.6" y="41.472" width="357.12" height="266.112"/>
  </clipPath>
 </defs>
</svg>
