<?xml version="1.0" encoding="utf-8" standalone="no"?>
<!DOCTYPE svg PUBLIC "-//W3C//DTD SVG 1.1//EN"
  "http://www.w3.org/Graphics/SVG/1.1/DTD/svg11.dtd">
<svg xmlns:xlink="http://www.w3.org/1999/xlink" width="460.8pt" height="345.6pt" viewBox="0 0 460.8 345.6" xmlns="http://www.w3.org/2000/svg" version="1.1">
 <metadata>
  <rdf:RDF xmlns:dc="http://purl.org/dc/elements/1.1/" xmlns:cc="http://creativecommons.org/ns#" xmlns:rdf="http://www.w3.org/1999/02/22-rdf-syntax-ns#">
   <cc:Work>
    <dc:type rdf:resource="http://purl.org/dc/dcmitype/StillImage"/>
    <dc:date>2023-04-12T11:45:24.580514</dc:date>
    <dc:format>image/svg+xml</dc:format>
    <dc:creator>
     <cc:Agent>
      <dc:title>Matplotlib v3.6.2, https://matplotlib.org/</dc:title>
     </cc:Agent>
    </dc:creator>
   </cc:Work>
  </rdf:RDF>
 </metadata>
 <defs>
  <style type="text/css">*{stroke-linejoin: round; stroke-linecap: butt}</style>
 </defs>
 <g id="figure_1">
  <g id="patch_1">
   <path d="M 0 345.6 
L 460.8 345.6 
L 460.8 0 
L 0 0 
z
" style="fill: #ffffff"/>
  </g>
  <g id="axes_1">
   <g id="patch_2">
    <path d="M 57.6 307.584 
L 414.72 307.584 
L 414.72 41.472 
L 57.6 41.472 
z
" style="fill: #ffffff"/>
   </g>
   <g id="PathCollection_1">
    <defs>
     <path id="me7f2534c55" d="M 0 3 
C 0.795609 3 1.55874 2.683901 2.12132 2.12132 
C 2.683901 1.55874 3 0.795609 3 0 
C 3 -0.795609 2.683901 -1.55874 2.12132 -2.12132 
C 1.55874 -2.683901 0.795609 -3 0 -3 
C -0.795609 -3 -1.55874 -2.683901 -2.12132 -2.12132 
C -2.683901 -1.55874 -3 -0.795609 -3 0 
C -3 0.795609 -2.683901 1.55874 -2.12132 2.12132 
C -1.55874 2.683901 -0.795609 3 0 3 
z
" style="stroke: #ff0000"/>
    </defs>
    <g clip-path="url(#p60060a08e8)">
     <use xlink:href="#me7f2534c55" x="284.97548" y="74.941906" style="fill: #ff0000; stroke: #ff0000"/>
     <use xlink:href="#me7f2534c55" x="291.926708" y="94.007099" style="fill: #ff0000; stroke: #ff0000"/>
     <use xlink:href="#me7f2534c55" x="288.985673" y="81.995855" style="fill: #ff0000; stroke: #ff0000"/>
     <use xlink:href="#me7f2534c55" x="251.443898" y="72.494537" style="fill: #ff0000; stroke: #ff0000"/>
     <use xlink:href="#me7f2534c55" x="248.035454" y="101.028408" style="fill: #ff0000; stroke: #ff0000"/>
     <use xlink:href="#me7f2534c55" x="229.198168" y="98.76224" style="fill: #ff0000; stroke: #ff0000"/>
     <use xlink:href="#me7f2534c55" x="248.961156" y="101.889341" style="fill: #ff0000; stroke: #ff0000"/>
     <use xlink:href="#me7f2534c55" x="294.31621" y="90.059427" style="fill: #ff0000; stroke: #ff0000"/>
     <use xlink:href="#me7f2534c55" x="280.045431" y="80.560367" style="fill: #ff0000; stroke: #ff0000"/>
     <use xlink:href="#me7f2534c55" x="233.796841" y="82.740418" style="fill: #ff0000; stroke: #ff0000"/>
     <use xlink:href="#me7f2534c55" x="125.205635" y="109.247431" style="fill: #ff0000; stroke: #ff0000"/>
     <use xlink:href="#me7f2534c55" x="262.013162" y="97.240116" style="fill: #ff0000; stroke: #ff0000"/>
     <use xlink:href="#me7f2534c55" x="252.225239" y="71.297362" style="fill: #ff0000; stroke: #ff0000"/>
     <use xlink:href="#me7f2534c55" x="149.385046" y="106.861004" style="fill: #ff0000; stroke: #ff0000"/>
     <use xlink:href="#me7f2534c55" x="303.072296" y="91.245976" style="fill: #ff0000; stroke: #ff0000"/>
     <use xlink:href="#me7f2534c55" x="265.453803" y="105.552553" style="fill: #ff0000; stroke: #ff0000"/>
     <use xlink:href="#me7f2534c55" x="107.145034" y="84.829665" style="fill: #ff0000; stroke: #ff0000"/>
     <use xlink:href="#me7f2534c55" x="141.973382" y="77.696263" style="fill: #ff0000; stroke: #ff0000"/>
     <use xlink:href="#me7f2534c55" x="309.167869" y="53.568" style="fill: #ff0000; stroke: #ff0000"/>
     <use xlink:href="#me7f2534c55" x="113.060719" y="82.292866" style="fill: #ff0000; stroke: #ff0000"/>
     <use xlink:href="#me7f2534c55" x="211.133276" y="106.050663" style="fill: #ff0000; stroke: #ff0000"/>
     <use xlink:href="#me7f2534c55" x="154.332761" y="103.775029" style="fill: #ff0000; stroke: #ff0000"/>
     <use xlink:href="#me7f2534c55" x="216.373451" y="90.712482" style="fill: #ff0000; stroke: #ff0000"/>
     <use xlink:href="#me7f2534c55" x="120.771213" y="99.302672" style="fill: #ff0000; stroke: #ff0000"/>
     <use xlink:href="#me7f2534c55" x="132.317816" y="118.59671" style="fill: #ff0000; stroke: #ff0000"/>
     <use xlink:href="#me7f2534c55" x="125.068876" y="97.251852" style="fill: #ff0000; stroke: #ff0000"/>
     <use xlink:href="#me7f2534c55" x="244.923886" y="96.316719" style="fill: #ff0000; stroke: #ff0000"/>
     <use xlink:href="#me7f2534c55" x="315.492089" y="79.069397" style="fill: #ff0000; stroke: #ff0000"/>
     <use xlink:href="#me7f2534c55" x="276.300034" y="109.558438" style="fill: #ff0000; stroke: #ff0000"/>
     <use xlink:href="#me7f2534c55" x="257.913969" y="102.681276" style="fill: #ff0000; stroke: #ff0000"/>
     <use xlink:href="#me7f2534c55" x="271.276076" y="93.116602" style="fill: #ff0000; stroke: #ff0000"/>
     <use xlink:href="#me7f2534c55" x="123.846249" y="113.521981" style="fill: #ff0000; stroke: #ff0000"/>
     <use xlink:href="#me7f2534c55" x="96.946384" y="77.737678" style="fill: #ff0000; stroke: #ff0000"/>
     <use xlink:href="#me7f2534c55" x="142.083245" y="116.788112" style="fill: #ff0000; stroke: #ff0000"/>
     <use xlink:href="#me7f2534c55" x="241.914172" y="75.301154" style="fill: #ff0000; stroke: #ff0000"/>
     <use xlink:href="#me7f2534c55" x="236.438909" y="107.548146" style="fill: #ff0000; stroke: #ff0000"/>
     <use xlink:href="#me7f2534c55" x="293.880905" y="89.315045" style="fill: #ff0000; stroke: #ff0000"/>
     <use xlink:href="#me7f2534c55" x="135.679144" y="92.425865" style="fill: #ff0000; stroke: #ff0000"/>
     <use xlink:href="#me7f2534c55" x="106.457824" y="87.310445" style="fill: #ff0000; stroke: #ff0000"/>
     <use xlink:href="#me7f2534c55" x="322.949217" y="78.6807" style="fill: #ff0000; stroke: #ff0000"/>
     <use xlink:href="#me7f2534c55" x="108.229536" y="98.836085" style="fill: #ff0000; stroke: #ff0000"/>
     <use xlink:href="#me7f2534c55" x="304.185583" y="108.685599" style="fill: #ff0000; stroke: #ff0000"/>
     <use xlink:href="#me7f2534c55" x="299.396231" y="76.934739" style="fill: #ff0000; stroke: #ff0000"/>
     <use xlink:href="#me7f2534c55" x="305.457314" y="103.468848" style="fill: #ff0000; stroke: #ff0000"/>
     <use xlink:href="#me7f2534c55" x="105.579481" y="87.526789" style="fill: #ff0000; stroke: #ff0000"/>
     <use xlink:href="#me7f2534c55" x="313.886272" y="95.818667" style="fill: #ff0000; stroke: #ff0000"/>
     <use xlink:href="#me7f2534c55" x="299.67095" y="110.089281" style="fill: #ff0000; stroke: #ff0000"/>
     <use xlink:href="#me7f2534c55" x="269.365748" y="73.182278" style="fill: #ff0000; stroke: #ff0000"/>
     <use xlink:href="#me7f2534c55" x="294.745207" y="109.044344" style="fill: #ff0000; stroke: #ff0000"/>
     <use xlink:href="#me7f2534c55" x="299.930195" y="94.827202" style="fill: #ff0000; stroke: #ff0000"/>
     <use xlink:href="#me7f2534c55" x="280.997677" y="86.697117" style="fill: #ff0000; stroke: #ff0000"/>
     <use xlink:href="#me7f2534c55" x="261.138012" y="133.694703" style="fill: #ff0000; stroke: #ff0000"/>
     <use xlink:href="#me7f2534c55" x="226.189374" y="88.456461" style="fill: #ff0000; stroke: #ff0000"/>
     <use xlink:href="#me7f2534c55" x="296.232786" y="86.984323" style="fill: #ff0000; stroke: #ff0000"/>
     <use xlink:href="#me7f2534c55" x="122.540039" y="103.381755" style="fill: #ff0000; stroke: #ff0000"/>
     <use xlink:href="#me7f2534c55" x="246.511323" y="102.969376" style="fill: #ff0000; stroke: #ff0000"/>
     <use xlink:href="#me7f2534c55" x="242.746532" y="90.941813" style="fill: #ff0000; stroke: #ff0000"/>
     <use xlink:href="#me7f2534c55" x="291.708217" y="74.085836" style="fill: #ff0000; stroke: #ff0000"/>
     <use xlink:href="#me7f2534c55" x="105.02459" y="100.69513" style="fill: #ff0000; stroke: #ff0000"/>
     <use xlink:href="#me7f2534c55" x="91.41364" y="91.613398" style="fill: #ff0000; stroke: #ff0000"/>
     <use xlink:href="#me7f2534c55" x="133.845676" y="89.788403" style="fill: #ff0000; stroke: #ff0000"/>
     <use xlink:href="#me7f2534c55" x="293.897022" y="79.405779" style="fill: #ff0000; stroke: #ff0000"/>
     <use xlink:href="#me7f2534c55" x="255.413652" y="113.287552" style="fill: #ff0000; stroke: #ff0000"/>
     <use xlink:href="#me7f2534c55" x="258.426915" y="77.057524" style="fill: #ff0000; stroke: #ff0000"/>
     <use xlink:href="#me7f2534c55" x="219.152644" y="119.315121" style="fill: #ff0000; stroke: #ff0000"/>
     <use xlink:href="#me7f2534c55" x="277.239231" y="91.187694" style="fill: #ff0000; stroke: #ff0000"/>
     <use xlink:href="#me7f2534c55" x="260.047529" y="89.553232" style="fill: #ff0000; stroke: #ff0000"/>
     <use xlink:href="#me7f2534c55" x="241.960694" y="104.779816" style="fill: #ff0000; stroke: #ff0000"/>
     <use xlink:href="#me7f2534c55" x="105.201671" y="71.823075" style="fill: #ff0000; stroke: #ff0000"/>
     <use xlink:href="#me7f2534c55" x="119.504837" y="86.129169" style="fill: #ff0000; stroke: #ff0000"/>
     <use xlink:href="#me7f2534c55" x="235.103925" y="97.798901" style="fill: #ff0000; stroke: #ff0000"/>
     <use xlink:href="#me7f2534c55" x="269.713894" y="84.661097" style="fill: #ff0000; stroke: #ff0000"/>
     <use xlink:href="#me7f2534c55" x="115.897504" y="106.169882" style="fill: #ff0000; stroke: #ff0000"/>
     <use xlink:href="#me7f2534c55" x="129.628667" y="107.696395" style="fill: #ff0000; stroke: #ff0000"/>
     <use xlink:href="#me7f2534c55" x="150.088487" y="98.481405" style="fill: #ff0000; stroke: #ff0000"/>
     <use xlink:href="#me7f2534c55" x="242.437667" y="90.009364" style="fill: #ff0000; stroke: #ff0000"/>
     <use xlink:href="#me7f2534c55" x="256.099217" y="89.526562" style="fill: #ff0000; stroke: #ff0000"/>
     <use xlink:href="#me7f2534c55" x="250.918149" y="92.797284" style="fill: #ff0000; stroke: #ff0000"/>
     <use xlink:href="#me7f2534c55" x="292.284252" y="76.726116" style="fill: #ff0000; stroke: #ff0000"/>
     <use xlink:href="#me7f2534c55" x="104.248778" y="112.569706" style="fill: #ff0000; stroke: #ff0000"/>
     <use xlink:href="#me7f2534c55" x="232.763625" y="89.298748" style="fill: #ff0000; stroke: #ff0000"/>
     <use xlink:href="#me7f2534c55" x="295.661737" y="93.474719" style="fill: #ff0000; stroke: #ff0000"/>
     <use xlink:href="#me7f2534c55" x="119.098844" y="106.374281" style="fill: #ff0000; stroke: #ff0000"/>
     <use xlink:href="#me7f2534c55" x="128.885526" y="93.234257" style="fill: #ff0000; stroke: #ff0000"/>
     <use xlink:href="#me7f2534c55" x="237.077717" y="78.927191" style="fill: #ff0000; stroke: #ff0000"/>
     <use xlink:href="#me7f2534c55" x="279.911168" y="88.004876" style="fill: #ff0000; stroke: #ff0000"/>
     <use xlink:href="#me7f2534c55" x="255.552971" y="85.257952" style="fill: #ff0000; stroke: #ff0000"/>
     <use xlink:href="#me7f2534c55" x="205.905623" y="88.554386" style="fill: #ff0000; stroke: #ff0000"/>
     <use xlink:href="#me7f2534c55" x="112.656196" y="110.62865" style="fill: #ff0000; stroke: #ff0000"/>
     <use xlink:href="#me7f2534c55" x="279.539515" y="93.174584" style="fill: #ff0000; stroke: #ff0000"/>
     <use xlink:href="#me7f2534c55" x="240.872385" y="113.507478" style="fill: #ff0000; stroke: #ff0000"/>
     <use xlink:href="#me7f2534c55" x="104.260477" y="96.057526" style="fill: #ff0000; stroke: #ff0000"/>
     <use xlink:href="#me7f2534c55" x="298.379021" y="86.309882" style="fill: #ff0000; stroke: #ff0000"/>
     <use xlink:href="#me7f2534c55" x="249.179753" y="82.380222" style="fill: #ff0000; stroke: #ff0000"/>
     <use xlink:href="#me7f2534c55" x="141.347721" y="81.352445" style="fill: #ff0000; stroke: #ff0000"/>
     <use xlink:href="#me7f2534c55" x="258.699736" y="91.154725" style="fill: #ff0000; stroke: #ff0000"/>
     <use xlink:href="#me7f2534c55" x="274.084345" y="82.901163" style="fill: #ff0000; stroke: #ff0000"/>
     <use xlink:href="#me7f2534c55" x="106.333449" y="94.478809" style="fill: #ff0000; stroke: #ff0000"/>
     <use xlink:href="#me7f2534c55" x="308.777022" y="99.108593" style="fill: #ff0000; stroke: #ff0000"/>
     <use xlink:href="#me7f2534c55" x="121.61513" y="79.278113" style="fill: #ff0000; stroke: #ff0000"/>
    </g>
   </g>
   <g id="PathCollection_2">
    <g clip-path="url(#p60060a08e8)">
     <use xlink:href="#me7f2534c55" x="233.369695" y="271.098779" style="fill: #ff0000; stroke: #ff0000"/>
     <use xlink:href="#me7f2534c55" x="349.98657" y="260.923935" style="fill: #ff0000; stroke: #ff0000"/>
     <use xlink:href="#me7f2534c55" x="340.240059" y="271.546994" style="fill: #ff0000; stroke: #ff0000"/>
     <use xlink:href="#me7f2534c55" x="236.895691" y="268.937207" style="fill: #ff0000; stroke: #ff0000"/>
     <use xlink:href="#me7f2534c55" x="362.970462" y="260.657963" style="fill: #ff0000; stroke: #ff0000"/>
     <use xlink:href="#me7f2534c55" x="335.521635" y="261.011993" style="fill: #ff0000; stroke: #ff0000"/>
     <use xlink:href="#me7f2534c55" x="212.58148" y="272.900391" style="fill: #ff0000; stroke: #ff0000"/>
     <use xlink:href="#me7f2534c55" x="336.154922" y="265.290703" style="fill: #ff0000; stroke: #ff0000"/>
     <use xlink:href="#me7f2534c55" x="348.745567" y="268.909556" style="fill: #ff0000; stroke: #ff0000"/>
     <use xlink:href="#me7f2534c55" x="186.71091" y="274.261204" style="fill: #ff0000; stroke: #ff0000"/>
     <use xlink:href="#me7f2534c55" x="292.393636" y="259.290909" style="fill: #ff0000; stroke: #ff0000"/>
     <use xlink:href="#me7f2534c55" x="238.10936" y="274.567053" style="fill: #ff0000; stroke: #ff0000"/>
     <use xlink:href="#me7f2534c55" x="250.378939" y="283.541069" style="fill: #ff0000; stroke: #ff0000"/>
     <use xlink:href="#me7f2534c55" x="253.718574" y="261.451821" style="fill: #ff0000; stroke: #ff0000"/>
     <use xlink:href="#me7f2534c55" x="358.054855" y="265.026984" style="fill: #ff0000; stroke: #ff0000"/>
     <use xlink:href="#me7f2534c55" x="394.433096" y="262.074797" style="fill: #ff0000; stroke: #ff0000"/>
     <use xlink:href="#me7f2534c55" x="292.556754" y="277.075952" style="fill: #ff0000; stroke: #ff0000"/>
     <use xlink:href="#me7f2534c55" x="241.091292" y="257.459372" style="fill: #ff0000; stroke: #ff0000"/>
     <use xlink:href="#me7f2534c55" x="214.979777" y="264.729681" style="fill: #ff0000; stroke: #ff0000"/>
     <use xlink:href="#me7f2534c55" x="307.235175" y="273.63697" style="fill: #ff0000; stroke: #ff0000"/>
     <use xlink:href="#me7f2534c55" x="343.927972" y="274.070287" style="fill: #ff0000; stroke: #ff0000"/>
     <use xlink:href="#me7f2534c55" x="204.36143" y="263.782065" style="fill: #ff0000; stroke: #ff0000"/>
     <use xlink:href="#me7f2534c55" x="232.922501" y="270.362899" style="fill: #ff0000; stroke: #ff0000"/>
     <use xlink:href="#me7f2534c55" x="271.820868" y="260.752598" style="fill: #ff0000; stroke: #ff0000"/>
     <use xlink:href="#me7f2534c55" x="321.288124" y="295.488" style="fill: #ff0000; stroke: #ff0000"/>
     <use xlink:href="#me7f2534c55" x="242.127453" y="281.961904" style="fill: #ff0000; stroke: #ff0000"/>
     <use xlink:href="#me7f2534c55" x="308.336975" y="277.169012" style="fill: #ff0000; stroke: #ff0000"/>
     <use xlink:href="#me7f2534c55" x="299.036244" y="272.319785" style="fill: #ff0000; stroke: #ff0000"/>
     <use xlink:href="#me7f2534c55" x="240.863396" y="258.999498" style="fill: #ff0000; stroke: #ff0000"/>
     <use xlink:href="#me7f2534c55" x="327.915466" y="279.700717" style="fill: #ff0000; stroke: #ff0000"/>
     <use xlink:href="#me7f2534c55" x="281.229207" y="276.809688" style="fill: #ff0000; stroke: #ff0000"/>
     <use xlink:href="#me7f2534c55" x="386.09138" y="291.742187" style="fill: #ff0000; stroke: #ff0000"/>
     <use xlink:href="#me7f2534c55" x="230.900677" y="281.184301" style="fill: #ff0000; stroke: #ff0000"/>
     <use xlink:href="#me7f2534c55" x="240.982958" y="273.673624" style="fill: #ff0000; stroke: #ff0000"/>
     <use xlink:href="#me7f2534c55" x="281.958909" y="285.565871" style="fill: #ff0000; stroke: #ff0000"/>
     <use xlink:href="#me7f2534c55" x="356.967491" y="285.792957" style="fill: #ff0000; stroke: #ff0000"/>
     <use xlink:href="#me7f2534c55" x="398.487273" y="279.710721" style="fill: #ff0000; stroke: #ff0000"/>
     <use xlink:href="#me7f2534c55" x="317.046088" y="266.815614" style="fill: #ff0000; stroke: #ff0000"/>
     <use xlink:href="#me7f2534c55" x="237.092665" y="264.343587" style="fill: #ff0000; stroke: #ff0000"/>
     <use xlink:href="#me7f2534c55" x="226.445034" y="272.263798" style="fill: #ff0000; stroke: #ff0000"/>
     <use xlink:href="#me7f2534c55" x="364.950763" y="278.604539" style="fill: #ff0000; stroke: #ff0000"/>
     <use xlink:href="#me7f2534c55" x="243.181465" y="253.713715" style="fill: #ff0000; stroke: #ff0000"/>
     <use xlink:href="#me7f2534c55" x="299.510902" y="270.521479" style="fill: #ff0000; stroke: #ff0000"/>
     <use xlink:href="#me7f2534c55" x="289.001817" y="284.124915" style="fill: #ff0000; stroke: #ff0000"/>
     <use xlink:href="#me7f2534c55" x="311.804499" y="270.17641" style="fill: #ff0000; stroke: #ff0000"/>
     <use xlink:href="#me7f2534c55" x="362.491344" y="268.426782" style="fill: #ff0000; stroke: #ff0000"/>
     <use xlink:href="#me7f2534c55" x="273.635447" y="281.807654" style="fill: #ff0000; stroke: #ff0000"/>
     <use xlink:href="#me7f2534c55" x="181.767673" y="272.99704" style="fill: #ff0000; stroke: #ff0000"/>
     <use xlink:href="#me7f2534c55" x="356.376122" y="271.281653" style="fill: #ff0000; stroke: #ff0000"/>
     <use xlink:href="#me7f2534c55" x="215.178774" y="265.926719" style="fill: #ff0000; stroke: #ff0000"/>
     <use xlink:href="#me7f2534c55" x="345.202509" y="277.120435" style="fill: #ff0000; stroke: #ff0000"/>
     <use xlink:href="#me7f2534c55" x="244.455201" y="258.589353" style="fill: #ff0000; stroke: #ff0000"/>
     <use xlink:href="#me7f2534c55" x="356.309509" y="269.005268" style="fill: #ff0000; stroke: #ff0000"/>
     <use xlink:href="#me7f2534c55" x="330.317762" y="267.551714" style="fill: #ff0000; stroke: #ff0000"/>
     <use xlink:href="#me7f2534c55" x="266.811185" y="265.028231" style="fill: #ff0000; stroke: #ff0000"/>
     <use xlink:href="#me7f2534c55" x="380.57742" y="268.427332" style="fill: #ff0000; stroke: #ff0000"/>
     <use xlink:href="#me7f2534c55" x="306.167243" y="279.020607" style="fill: #ff0000; stroke: #ff0000"/>
     <use xlink:href="#me7f2534c55" x="208.692954" y="281.443479" style="fill: #ff0000; stroke: #ff0000"/>
     <use xlink:href="#me7f2534c55" x="247.890292" y="275.048721" style="fill: #ff0000; stroke: #ff0000"/>
     <use xlink:href="#me7f2534c55" x="321.518985" y="269.164172" style="fill: #ff0000; stroke: #ff0000"/>
     <use xlink:href="#me7f2534c55" x="229.744025" y="272.255733" style="fill: #ff0000; stroke: #ff0000"/>
     <use xlink:href="#me7f2534c55" x="193.954458" y="290.63625" style="fill: #ff0000; stroke: #ff0000"/>
     <use xlink:href="#me7f2534c55" x="328.116184" y="277.946476" style="fill: #ff0000; stroke: #ff0000"/>
     <use xlink:href="#me7f2534c55" x="348.005199" y="273.061602" style="fill: #ff0000; stroke: #ff0000"/>
     <use xlink:href="#me7f2534c55" x="284.986686" y="268.650161" style="fill: #ff0000; stroke: #ff0000"/>
     <use xlink:href="#me7f2534c55" x="299.046307" y="271.450614" style="fill: #ff0000; stroke: #ff0000"/>
     <use xlink:href="#me7f2534c55" x="327.569581" y="281.905213" style="fill: #ff0000; stroke: #ff0000"/>
     <use xlink:href="#me7f2534c55" x="274.678105" y="258.766237" style="fill: #ff0000; stroke: #ff0000"/>
     <use xlink:href="#me7f2534c55" x="352.510867" y="265.988646" style="fill: #ff0000; stroke: #ff0000"/>
     <use xlink:href="#me7f2534c55" x="310.082367" y="274.384109" style="fill: #ff0000; stroke: #ff0000"/>
     <use xlink:href="#me7f2534c55" x="265.360423" y="270.212656" style="fill: #ff0000; stroke: #ff0000"/>
     <use xlink:href="#me7f2534c55" x="321.88688" y="271.130045" style="fill: #ff0000; stroke: #ff0000"/>
     <use xlink:href="#me7f2534c55" x="196.249613" y="269.294854" style="fill: #ff0000; stroke: #ff0000"/>
     <use xlink:href="#me7f2534c55" x="396.411499" y="274.944983" style="fill: #ff0000; stroke: #ff0000"/>
     <use xlink:href="#me7f2534c55" x="226.103512" y="271.457483" style="fill: #ff0000; stroke: #ff0000"/>
     <use xlink:href="#me7f2534c55" x="372.887376" y="274.780947" style="fill: #ff0000; stroke: #ff0000"/>
     <use xlink:href="#me7f2534c55" x="358.67845" y="259.229919" style="fill: #ff0000; stroke: #ff0000"/>
     <use xlink:href="#me7f2534c55" x="226.233377" y="273.983235" style="fill: #ff0000; stroke: #ff0000"/>
     <use xlink:href="#me7f2534c55" x="383.304924" y="278.685474" style="fill: #ff0000; stroke: #ff0000"/>
     <use xlink:href="#me7f2534c55" x="303.234672" y="275.632953" style="fill: #ff0000; stroke: #ff0000"/>
     <use xlink:href="#me7f2534c55" x="230.966044" y="279.173645" style="fill: #ff0000; stroke: #ff0000"/>
     <use xlink:href="#me7f2534c55" x="309.158872" y="277.507989" style="fill: #ff0000; stroke: #ff0000"/>
     <use xlink:href="#me7f2534c55" x="305.167036" y="271.941852" style="fill: #ff0000; stroke: #ff0000"/>
     <use xlink:href="#me7f2534c55" x="339.198171" y="265.639269" style="fill: #ff0000; stroke: #ff0000"/>
     <use xlink:href="#me7f2534c55" x="238.705454" y="280.810788" style="fill: #ff0000; stroke: #ff0000"/>
     <use xlink:href="#me7f2534c55" x="274.078626" y="269.745457" style="fill: #ff0000; stroke: #ff0000"/>
     <use xlink:href="#me7f2534c55" x="357.692592" y="261.20371" style="fill: #ff0000; stroke: #ff0000"/>
     <use xlink:href="#me7f2534c55" x="264.57122" y="266.391561" style="fill: #ff0000; stroke: #ff0000"/>
     <use xlink:href="#me7f2534c55" x="256.640875" y="278.163268" style="fill: #ff0000; stroke: #ff0000"/>
     <use xlink:href="#me7f2534c55" x="390.956461" y="269.86736" style="fill: #ff0000; stroke: #ff0000"/>
     <use xlink:href="#me7f2534c55" x="357.274932" y="272.32296" style="fill: #ff0000; stroke: #ff0000"/>
     <use xlink:href="#me7f2534c55" x="288.183105" y="263.371481" style="fill: #ff0000; stroke: #ff0000"/>
     <use xlink:href="#me7f2534c55" x="261.192662" y="279.954929" style="fill: #ff0000; stroke: #ff0000"/>
     <use xlink:href="#me7f2534c55" x="356.963513" y="266.809691" style="fill: #ff0000; stroke: #ff0000"/>
     <use xlink:href="#me7f2534c55" x="343.047773" y="259.269874" style="fill: #ff0000; stroke: #ff0000"/>
     <use xlink:href="#me7f2534c55" x="364.959153" y="259.785342" style="fill: #ff0000; stroke: #ff0000"/>
     <use xlink:href="#me7f2534c55" x="389.80653" y="271.509081" style="fill: #ff0000; stroke: #ff0000"/>
     <use xlink:href="#me7f2534c55" x="288.554311" y="269.923487" style="fill: #ff0000; stroke: #ff0000"/>
     <use xlink:href="#me7f2534c55" x="384.52012" y="266.751005" style="fill: #ff0000; stroke: #ff0000"/>
     <use xlink:href="#me7f2534c55" x="334.893565" y="257.86523" style="fill: #ff0000; stroke: #ff0000"/>
     <use xlink:href="#me7f2534c55" x="109.520338" y="288.338791" style="fill: #ff0000; stroke: #ff0000"/>
     <use xlink:href="#me7f2534c55" x="79.340458" y="266.678704" style="fill: #ff0000; stroke: #ff0000"/>
     <use xlink:href="#me7f2534c55" x="133.896691" y="267.326979" style="fill: #ff0000; stroke: #ff0000"/>
     <use xlink:href="#me7f2534c55" x="91.472018" y="272.046368" style="fill: #ff0000; stroke: #ff0000"/>
     <use xlink:href="#me7f2534c55" x="131.734976" y="270.014016" style="fill: #ff0000; stroke: #ff0000"/>
     <use xlink:href="#me7f2534c55" x="93.454157" y="260.400158" style="fill: #ff0000; stroke: #ff0000"/>
     <use xlink:href="#me7f2534c55" x="86.382857" y="266.135842" style="fill: #ff0000; stroke: #ff0000"/>
     <use xlink:href="#me7f2534c55" x="123.684643" y="270.112095" style="fill: #ff0000; stroke: #ff0000"/>
     <use xlink:href="#me7f2534c55" x="110.577555" y="257.166009" style="fill: #ff0000; stroke: #ff0000"/>
     <use xlink:href="#me7f2534c55" x="80.292583" y="258.172772" style="fill: #ff0000; stroke: #ff0000"/>
     <use xlink:href="#me7f2534c55" x="91.545976" y="270.819706" style="fill: #ff0000; stroke: #ff0000"/>
     <use xlink:href="#me7f2534c55" x="106.593781" y="269.279439" style="fill: #ff0000; stroke: #ff0000"/>
     <use xlink:href="#me7f2534c55" x="106.691823" y="277.428216" style="fill: #ff0000; stroke: #ff0000"/>
     <use xlink:href="#me7f2534c55" x="141.776404" y="275.484895" style="fill: #ff0000; stroke: #ff0000"/>
     <use xlink:href="#me7f2534c55" x="117.257211" y="273.173976" style="fill: #ff0000; stroke: #ff0000"/>
     <use xlink:href="#me7f2534c55" x="120.446318" y="253.773736" style="fill: #ff0000; stroke: #ff0000"/>
     <use xlink:href="#me7f2534c55" x="118.952762" y="271.432371" style="fill: #ff0000; stroke: #ff0000"/>
     <use xlink:href="#me7f2534c55" x="125.183657" y="275.563497" style="fill: #ff0000; stroke: #ff0000"/>
     <use xlink:href="#me7f2534c55" x="89.128312" y="269.032766" style="fill: #ff0000; stroke: #ff0000"/>
     <use xlink:href="#me7f2534c55" x="121.25509" y="265.104909" style="fill: #ff0000; stroke: #ff0000"/>
     <use xlink:href="#me7f2534c55" x="104.126333" y="261.511058" style="fill: #ff0000; stroke: #ff0000"/>
     <use xlink:href="#me7f2534c55" x="78.827614" y="264.330712" style="fill: #ff0000; stroke: #ff0000"/>
     <use xlink:href="#me7f2534c55" x="113.876282" y="278.714442" style="fill: #ff0000; stroke: #ff0000"/>
     <use xlink:href="#me7f2534c55" x="84.405551" y="268.117418" style="fill: #ff0000; stroke: #ff0000"/>
     <use xlink:href="#me7f2534c55" x="146.250489" y="274.335132" style="fill: #ff0000; stroke: #ff0000"/>
     <use xlink:href="#me7f2534c55" x="124.520474" y="268.245995" style="fill: #ff0000; stroke: #ff0000"/>
     <use xlink:href="#me7f2534c55" x="112.7775" y="276.903944" style="fill: #ff0000; stroke: #ff0000"/>
     <use xlink:href="#me7f2534c55" x="130.225453" y="279.795985" style="fill: #ff0000; stroke: #ff0000"/>
     <use xlink:href="#me7f2534c55" x="129.920204" y="285.191694" style="fill: #ff0000; stroke: #ff0000"/>
     <use xlink:href="#me7f2534c55" x="143.103939" y="275.661928" style="fill: #ff0000; stroke: #ff0000"/>
     <use xlink:href="#me7f2534c55" x="89.659664" y="276.482571" style="fill: #ff0000; stroke: #ff0000"/>
     <use xlink:href="#me7f2534c55" x="158.059707" y="269.155516" style="fill: #ff0000; stroke: #ff0000"/>
     <use xlink:href="#me7f2534c55" x="151.711144" y="273.709415" style="fill: #ff0000; stroke: #ff0000"/>
     <use xlink:href="#me7f2534c55" x="87.256277" y="259.020584" style="fill: #ff0000; stroke: #ff0000"/>
     <use xlink:href="#me7f2534c55" x="153.497795" y="273.280502" style="fill: #ff0000; stroke: #ff0000"/>
     <use xlink:href="#me7f2534c55" x="94.608921" y="285.954869" style="fill: #ff0000; stroke: #ff0000"/>
     <use xlink:href="#me7f2534c55" x="114.403646" y="266.000723" style="fill: #ff0000; stroke: #ff0000"/>
     <use xlink:href="#me7f2534c55" x="118.806438" y="255.589966" style="fill: #ff0000; stroke: #ff0000"/>
     <use xlink:href="#me7f2534c55" x="144.24595" y="267.137467" style="fill: #ff0000; stroke: #ff0000"/>
     <use xlink:href="#me7f2534c55" x="142.667412" y="259.416008" style="fill: #ff0000; stroke: #ff0000"/>
     <use xlink:href="#me7f2534c55" x="154.355163" y="277.815445" style="fill: #ff0000; stroke: #ff0000"/>
     <use xlink:href="#me7f2534c55" x="118.415639" y="260.150771" style="fill: #ff0000; stroke: #ff0000"/>
     <use xlink:href="#me7f2534c55" x="105.19834" y="266.39017" style="fill: #ff0000; stroke: #ff0000"/>
     <use xlink:href="#me7f2534c55" x="86.702084" y="262.362659" style="fill: #ff0000; stroke: #ff0000"/>
     <use xlink:href="#me7f2534c55" x="146.013161" y="276.077084" style="fill: #ff0000; stroke: #ff0000"/>
     <use xlink:href="#me7f2534c55" x="108.375088" y="278.439509" style="fill: #ff0000; stroke: #ff0000"/>
     <use xlink:href="#me7f2534c55" x="103.573526" y="277.760437" style="fill: #ff0000; stroke: #ff0000"/>
     <use xlink:href="#me7f2534c55" x="125.207953" y="265.239436" style="fill: #ff0000; stroke: #ff0000"/>
     <use xlink:href="#me7f2534c55" x="156.042563" y="269.830397" style="fill: #ff0000; stroke: #ff0000"/>
     <use xlink:href="#me7f2534c55" x="90.852826" y="265.405111" style="fill: #ff0000; stroke: #ff0000"/>
     <use xlink:href="#me7f2534c55" x="119.4664" y="247.236997" style="fill: #ff0000; stroke: #ff0000"/>
     <use xlink:href="#me7f2534c55" x="79.57749" y="268.876187" style="fill: #ff0000; stroke: #ff0000"/>
     <use xlink:href="#me7f2534c55" x="101.228302" y="283.015748" style="fill: #ff0000; stroke: #ff0000"/>
     <use xlink:href="#me7f2534c55" x="92.60088" y="273.302272" style="fill: #ff0000; stroke: #ff0000"/>
     <use xlink:href="#me7f2534c55" x="158.239638" y="268.418232" style="fill: #ff0000; stroke: #ff0000"/>
     <use xlink:href="#me7f2534c55" x="126.305828" y="263.876287" style="fill: #ff0000; stroke: #ff0000"/>
     <use xlink:href="#me7f2534c55" x="125.756034" y="283.614217" style="fill: #ff0000; stroke: #ff0000"/>
     <use xlink:href="#me7f2534c55" x="127.146483" y="278.653129" style="fill: #ff0000; stroke: #ff0000"/>
     <use xlink:href="#me7f2534c55" x="88.870067" y="271.28511" style="fill: #ff0000; stroke: #ff0000"/>
     <use xlink:href="#me7f2534c55" x="100.607632" y="275.32698" style="fill: #ff0000; stroke: #ff0000"/>
     <use xlink:href="#me7f2534c55" x="136.762024" y="288.391249" style="fill: #ff0000; stroke: #ff0000"/>
     <use xlink:href="#me7f2534c55" x="97.070989" y="264.695335" style="fill: #ff0000; stroke: #ff0000"/>
     <use xlink:href="#me7f2534c55" x="92.4242" y="277.19519" style="fill: #ff0000; stroke: #ff0000"/>
     <use xlink:href="#me7f2534c55" x="114.815989" y="273.386873" style="fill: #ff0000; stroke: #ff0000"/>
     <use xlink:href="#me7f2534c55" x="148.938603" y="268.954661" style="fill: #ff0000; stroke: #ff0000"/>
     <use xlink:href="#me7f2534c55" x="133.145339" y="284.623657" style="fill: #ff0000; stroke: #ff0000"/>
     <use xlink:href="#me7f2534c55" x="97.164545" y="266.922122" style="fill: #ff0000; stroke: #ff0000"/>
     <use xlink:href="#me7f2534c55" x="147.186681" y="281.819747" style="fill: #ff0000; stroke: #ff0000"/>
     <use xlink:href="#me7f2534c55" x="147.339754" y="280.708547" style="fill: #ff0000; stroke: #ff0000"/>
     <use xlink:href="#me7f2534c55" x="102.094955" y="272.339171" style="fill: #ff0000; stroke: #ff0000"/>
     <use xlink:href="#me7f2534c55" x="107.988455" y="255.464616" style="fill: #ff0000; stroke: #ff0000"/>
     <use xlink:href="#me7f2534c55" x="150.719612" y="270.73899" style="fill: #ff0000; stroke: #ff0000"/>
     <use xlink:href="#me7f2534c55" x="127.398653" y="267.361754" style="fill: #ff0000; stroke: #ff0000"/>
     <use xlink:href="#me7f2534c55" x="151.851604" y="253.815707" style="fill: #ff0000; stroke: #ff0000"/>
     <use xlink:href="#me7f2534c55" x="129.689392" y="275.119955" style="fill: #ff0000; stroke: #ff0000"/>
     <use xlink:href="#me7f2534c55" x="147.688869" y="275.619941" style="fill: #ff0000; stroke: #ff0000"/>
     <use xlink:href="#me7f2534c55" x="128.037438" y="263.97978" style="fill: #ff0000; stroke: #ff0000"/>
     <use xlink:href="#me7f2534c55" x="115.13462" y="257.259919" style="fill: #ff0000; stroke: #ff0000"/>
     <use xlink:href="#me7f2534c55" x="95.552735" y="261.206412" style="fill: #ff0000; stroke: #ff0000"/>
     <use xlink:href="#me7f2534c55" x="138.382347" y="290.309224" style="fill: #ff0000; stroke: #ff0000"/>
     <use xlink:href="#me7f2534c55" x="140.153193" y="270.483526" style="fill: #ff0000; stroke: #ff0000"/>
     <use xlink:href="#me7f2534c55" x="158.189193" y="264.791921" style="fill: #ff0000; stroke: #ff0000"/>
     <use xlink:href="#me7f2534c55" x="96.291271" y="272.990674" style="fill: #ff0000; stroke: #ff0000"/>
     <use xlink:href="#me7f2534c55" x="147.902848" y="255.076176" style="fill: #ff0000; stroke: #ff0000"/>
     <use xlink:href="#me7f2534c55" x="103.056906" y="267.468784" style="fill: #ff0000; stroke: #ff0000"/>
     <use xlink:href="#me7f2534c55" x="120.348527" y="264.75134" style="fill: #ff0000; stroke: #ff0000"/>
     <use xlink:href="#me7f2534c55" x="120.265547" y="286.328721" style="fill: #ff0000; stroke: #ff0000"/>
     <use xlink:href="#me7f2534c55" x="144.728252" y="267.560095" style="fill: #ff0000; stroke: #ff0000"/>
     <use xlink:href="#me7f2534c55" x="122.476014" y="283.228455" style="fill: #ff0000; stroke: #ff0000"/>
     <use xlink:href="#me7f2534c55" x="112.730235" y="271.050345" style="fill: #ff0000; stroke: #ff0000"/>
     <use xlink:href="#me7f2534c55" x="156.712917" y="267.921964" style="fill: #ff0000; stroke: #ff0000"/>
     <use xlink:href="#me7f2534c55" x="151.077646" y="276.739061" style="fill: #ff0000; stroke: #ff0000"/>
     <use xlink:href="#me7f2534c55" x="109.99751" y="280.563569" style="fill: #ff0000; stroke: #ff0000"/>
     <use xlink:href="#me7f2534c55" x="145.910029" y="270.585158" style="fill: #ff0000; stroke: #ff0000"/>
     <use xlink:href="#me7f2534c55" x="87.148272" y="265.264074" style="fill: #ff0000; stroke: #ff0000"/>
     <use xlink:href="#me7f2534c55" x="73.832727" y="276.658973" style="fill: #ff0000; stroke: #ff0000"/>
     <use xlink:href="#me7f2534c55" x="139.242942" y="275.64488" style="fill: #ff0000; stroke: #ff0000"/>
     <use xlink:href="#me7f2534c55" x="150.746064" y="276.80539" style="fill: #ff0000; stroke: #ff0000"/>
     <use xlink:href="#me7f2534c55" x="99.864459" y="262.557975" style="fill: #ff0000; stroke: #ff0000"/>
     <use xlink:href="#me7f2534c55" x="141.144637" y="270.713806" style="fill: #ff0000; stroke: #ff0000"/>
    </g>
   </g>
   <g id="matplotlib.axis_1">
    <g id="xtick_1">
     <g id="line2d_1">
      <defs>
       <path id="ma18a839e52" d="M 0 0 
L 0 3.5 
" style="stroke: #000000; stroke-width: 0.8"/>
      </defs>
      <g>
       <use xlink:href="#ma18a839e52" x="72.795053" y="307.584" style="stroke: #000000; stroke-width: 0.8"/>
      </g>
     </g>
     <g id="text_1">
      <!-- 0 -->
      <g transform="translate(69.613803 322.182437) scale(0.1 -0.1)">
       <defs>
        <path id="DejaVuSans-30" d="M 2034 4250 
Q 1547 4250 1301 3770 
Q 1056 3291 1056 2328 
Q 1056 1369 1301 889 
Q 1547 409 2034 409 
Q 2525 409 2770 889 
Q 3016 1369 3016 2328 
Q 3016 3291 2770 3770 
Q 2525 4250 2034 4250 
z
M 2034 4750 
Q 2819 4750 3233 4129 
Q 3647 3509 3647 2328 
Q 3647 1150 3233 529 
Q 2819 -91 2034 -91 
Q 1250 -91 836 529 
Q 422 1150 422 2328 
Q 422 3509 836 4129 
Q 1250 4750 2034 4750 
z
" transform="scale(0.015625)"/>
       </defs>
       <use xlink:href="#DejaVuSans-30"/>
      </g>
     </g>
    </g>
    <g id="xtick_2">
     <g id="line2d_2">
      <g>
       <use xlink:href="#ma18a839e52" x="116.341131" y="307.584" style="stroke: #000000; stroke-width: 0.8"/>
      </g>
     </g>
     <g id="text_2">
      <!-- 20 -->
      <g transform="translate(109.978631 322.182437) scale(0.1 -0.1)">
       <defs>
        <path id="DejaVuSans-32" d="M 1228 531 
L 3431 531 
L 3431 0 
L 469 0 
L 469 531 
Q 828 903 1448 1529 
Q 2069 2156 2228 2338 
Q 2531 2678 2651 2914 
Q 2772 3150 2772 3378 
Q 2772 3750 2511 3984 
Q 2250 4219 1831 4219 
Q 1534 4219 1204 4116 
Q 875 4013 500 3803 
L 500 4441 
Q 881 4594 1212 4672 
Q 1544 4750 1819 4750 
Q 2544 4750 2975 4387 
Q 3406 4025 3406 3419 
Q 3406 3131 3298 2873 
Q 3191 2616 2906 2266 
Q 2828 2175 2409 1742 
Q 1991 1309 1228 531 
z
" transform="scale(0.015625)"/>
       </defs>
       <use xlink:href="#DejaVuSans-32"/>
       <use xlink:href="#DejaVuSans-30" x="63.623047"/>
      </g>
     </g>
    </g>
    <g id="xtick_3">
     <g id="line2d_3">
      <g>
       <use xlink:href="#ma18a839e52" x="159.887208" y="307.584" style="stroke: #000000; stroke-width: 0.8"/>
      </g>
     </g>
     <g id="text_3">
      <!-- 40 -->
      <g transform="translate(153.524708 322.182437) scale(0.1 -0.1)">
       <defs>
        <path id="DejaVuSans-34" d="M 2419 4116 
L 825 1625 
L 2419 1625 
L 2419 4116 
z
M 2253 4666 
L 3047 4666 
L 3047 1625 
L 3713 1625 
L 3713 1100 
L 3047 1100 
L 3047 0 
L 2419 0 
L 2419 1100 
L 313 1100 
L 313 1709 
L 2253 4666 
z
" transform="scale(0.015625)"/>
       </defs>
       <use xlink:href="#DejaVuSans-34"/>
       <use xlink:href="#DejaVuSans-30" x="63.623047"/>
      </g>
     </g>
    </g>
    <g id="xtick_4">
     <g id="line2d_4">
      <g>
       <use xlink:href="#ma18a839e52" x="203.433286" y="307.584" style="stroke: #000000; stroke-width: 0.8"/>
      </g>
     </g>
     <g id="text_4">
      <!-- 60 -->
      <g transform="translate(197.070786 322.182437) scale(0.1 -0.1)">
       <defs>
        <path id="DejaVuSans-36" d="M 2113 2584 
Q 1688 2584 1439 2293 
Q 1191 2003 1191 1497 
Q 1191 994 1439 701 
Q 1688 409 2113 409 
Q 2538 409 2786 701 
Q 3034 994 3034 1497 
Q 3034 2003 2786 2293 
Q 2538 2584 2113 2584 
z
M 3366 4563 
L 3366 3988 
Q 3128 4100 2886 4159 
Q 2644 4219 2406 4219 
Q 1781 4219 1451 3797 
Q 1122 3375 1075 2522 
Q 1259 2794 1537 2939 
Q 1816 3084 2150 3084 
Q 2853 3084 3261 2657 
Q 3669 2231 3669 1497 
Q 3669 778 3244 343 
Q 2819 -91 2113 -91 
Q 1303 -91 875 529 
Q 447 1150 447 2328 
Q 447 3434 972 4092 
Q 1497 4750 2381 4750 
Q 2619 4750 2861 4703 
Q 3103 4656 3366 4563 
z
" transform="scale(0.015625)"/>
       </defs>
       <use xlink:href="#DejaVuSans-36"/>
       <use xlink:href="#DejaVuSans-30" x="63.623047"/>
      </g>
     </g>
    </g>
    <g id="xtick_5">
     <g id="line2d_5">
      <g>
       <use xlink:href="#ma18a839e52" x="246.979364" y="307.584" style="stroke: #000000; stroke-width: 0.8"/>
      </g>
     </g>
     <g id="text_5">
      <!-- 80 -->
      <g transform="translate(240.616864 322.182437) scale(0.1 -0.1)">
       <defs>
        <path id="DejaVuSans-38" d="M 2034 2216 
Q 1584 2216 1326 1975 
Q 1069 1734 1069 1313 
Q 1069 891 1326 650 
Q 1584 409 2034 409 
Q 2484 409 2743 651 
Q 3003 894 3003 1313 
Q 3003 1734 2745 1975 
Q 2488 2216 2034 2216 
z
M 1403 2484 
Q 997 2584 770 2862 
Q 544 3141 544 3541 
Q 544 4100 942 4425 
Q 1341 4750 2034 4750 
Q 2731 4750 3128 4425 
Q 3525 4100 3525 3541 
Q 3525 3141 3298 2862 
Q 3072 2584 2669 2484 
Q 3125 2378 3379 2068 
Q 3634 1759 3634 1313 
Q 3634 634 3220 271 
Q 2806 -91 2034 -91 
Q 1263 -91 848 271 
Q 434 634 434 1313 
Q 434 1759 690 2068 
Q 947 2378 1403 2484 
z
M 1172 3481 
Q 1172 3119 1398 2916 
Q 1625 2713 2034 2713 
Q 2441 2713 2670 2916 
Q 2900 3119 2900 3481 
Q 2900 3844 2670 4047 
Q 2441 4250 2034 4250 
Q 1625 4250 1398 4047 
Q 1172 3844 1172 3481 
z
" transform="scale(0.015625)"/>
       </defs>
       <use xlink:href="#DejaVuSans-38"/>
       <use xlink:href="#DejaVuSans-30" x="63.623047"/>
      </g>
     </g>
    </g>
    <g id="xtick_6">
     <g id="line2d_6">
      <g>
       <use xlink:href="#ma18a839e52" x="290.525441" y="307.584" style="stroke: #000000; stroke-width: 0.8"/>
      </g>
     </g>
     <g id="text_6">
      <!-- 100 -->
      <g transform="translate(280.981691 322.182437) scale(0.1 -0.1)">
       <defs>
        <path id="DejaVuSans-31" d="M 794 531 
L 1825 531 
L 1825 4091 
L 703 3866 
L 703 4441 
L 1819 4666 
L 2450 4666 
L 2450 531 
L 3481 531 
L 3481 0 
L 794 0 
L 794 531 
z
" transform="scale(0.015625)"/>
       </defs>
       <use xlink:href="#DejaVuSans-31"/>
       <use xlink:href="#DejaVuSans-30" x="63.623047"/>
       <use xlink:href="#DejaVuSans-30" x="127.246094"/>
      </g>
     </g>
    </g>
    <g id="xtick_7">
     <g id="line2d_7">
      <g>
       <use xlink:href="#ma18a839e52" x="334.071519" y="307.584" style="stroke: #000000; stroke-width: 0.8"/>
      </g>
     </g>
     <g id="text_7">
      <!-- 120 -->
      <g transform="translate(324.527769 322.182437) scale(0.1 -0.1)">
       <use xlink:href="#DejaVuSans-31"/>
       <use xlink:href="#DejaVuSans-32" x="63.623047"/>
       <use xlink:href="#DejaVuSans-30" x="127.246094"/>
      </g>
     </g>
    </g>
    <g id="xtick_8">
     <g id="line2d_8">
      <g>
       <use xlink:href="#ma18a839e52" x="377.617597" y="307.584" style="stroke: #000000; stroke-width: 0.8"/>
      </g>
     </g>
     <g id="text_8">
      <!-- 140 -->
      <g transform="translate(368.073847 322.182437) scale(0.1 -0.1)">
       <use xlink:href="#DejaVuSans-31"/>
       <use xlink:href="#DejaVuSans-34" x="63.623047"/>
       <use xlink:href="#DejaVuSans-30" x="127.246094"/>
      </g>
     </g>
    </g>
   </g>
   <g id="matplotlib.axis_2">
    <g id="ytick_1">
     <g id="line2d_9">
      <defs>
       <path id="m01b2f1407f" d="M 0 0 
L -3.5 0 
" style="stroke: #000000; stroke-width: 0.8"/>
      </defs>
      <g>
       <use xlink:href="#m01b2f1407f" x="57.6" y="306.901832" style="stroke: #000000; stroke-width: 0.8"/>
      </g>
     </g>
     <g id="text_9">
      <!-- 80 -->
      <g transform="translate(37.875 310.701051) scale(0.1 -0.1)">
       <use xlink:href="#DejaVuSans-38"/>
       <use xlink:href="#DejaVuSans-30" x="63.623047"/>
      </g>
     </g>
    </g>
    <g id="ytick_2">
     <g id="line2d_10">
      <g>
       <use xlink:href="#m01b2f1407f" x="57.6" y="271.397019" style="stroke: #000000; stroke-width: 0.8"/>
      </g>
     </g>
     <g id="text_10">
      <!-- 100 -->
      <g transform="translate(31.5125 275.196238) scale(0.1 -0.1)">
       <use xlink:href="#DejaVuSans-31"/>
       <use xlink:href="#DejaVuSans-30" x="63.623047"/>
       <use xlink:href="#DejaVuSans-30" x="127.246094"/>
      </g>
     </g>
    </g>
    <g id="ytick_3">
     <g id="line2d_11">
      <g>
       <use xlink:href="#m01b2f1407f" x="57.6" y="235.892207" style="stroke: #000000; stroke-width: 0.8"/>
      </g>
     </g>
     <g id="text_11">
      <!-- 120 -->
      <g transform="translate(31.5125 239.691426) scale(0.1 -0.1)">
       <use xlink:href="#DejaVuSans-31"/>
       <use xlink:href="#DejaVuSans-32" x="63.623047"/>
       <use xlink:href="#DejaVuSans-30" x="127.246094"/>
      </g>
     </g>
    </g>
    <g id="ytick_4">
     <g id="line2d_12">
      <g>
       <use xlink:href="#m01b2f1407f" x="57.6" y="200.387394" style="stroke: #000000; stroke-width: 0.8"/>
      </g>
     </g>
     <g id="text_12">
      <!-- 140 -->
      <g transform="translate(31.5125 204.186613) scale(0.1 -0.1)">
       <use xlink:href="#DejaVuSans-31"/>
       <use xlink:href="#DejaVuSans-34" x="63.623047"/>
       <use xlink:href="#DejaVuSans-30" x="127.246094"/>
      </g>
     </g>
    </g>
    <g id="ytick_5">
     <g id="line2d_13">
      <g>
       <use xlink:href="#m01b2f1407f" x="57.6" y="164.882582" style="stroke: #000000; stroke-width: 0.8"/>
      </g>
     </g>
     <g id="text_13">
      <!-- 160 -->
      <g transform="translate(31.5125 168.6818) scale(0.1 -0.1)">
       <use xlink:href="#DejaVuSans-31"/>
       <use xlink:href="#DejaVuSans-36" x="63.623047"/>
       <use xlink:href="#DejaVuSans-30" x="127.246094"/>
      </g>
     </g>
    </g>
    <g id="ytick_6">
     <g id="line2d_14">
      <g>
       <use xlink:href="#m01b2f1407f" x="57.6" y="129.377769" style="stroke: #000000; stroke-width: 0.8"/>
      </g>
     </g>
     <g id="text_14">
      <!-- 180 -->
      <g transform="translate(31.5125 133.176988) scale(0.1 -0.1)">
       <use xlink:href="#DejaVuSans-31"/>
       <use xlink:href="#DejaVuSans-38" x="63.623047"/>
       <use xlink:href="#DejaVuSans-30" x="127.246094"/>
      </g>
     </g>
    </g>
    <g id="ytick_7">
     <g id="line2d_15">
      <g>
       <use xlink:href="#m01b2f1407f" x="57.6" y="93.872956" style="stroke: #000000; stroke-width: 0.8"/>
      </g>
     </g>
     <g id="text_15">
      <!-- 200 -->
      <g transform="translate(31.5125 97.672175) scale(0.1 -0.1)">
       <use xlink:href="#DejaVuSans-32"/>
       <use xlink:href="#DejaVuSans-30" x="63.623047"/>
       <use xlink:href="#DejaVuSans-30" x="127.246094"/>
      </g>
     </g>
    </g>
    <g id="ytick_8">
     <g id="line2d_16">
      <g>
       <use xlink:href="#m01b2f1407f" x="57.6" y="58.368144" style="stroke: #000000; stroke-width: 0.8"/>
      </g>
     </g>
     <g id="text_16">
      <!-- 220 -->
      <g transform="translate(31.5125 62.167363) scale(0.1 -0.1)">
       <use xlink:href="#DejaVuSans-32"/>
       <use xlink:href="#DejaVuSans-32" x="63.623047"/>
       <use xlink:href="#DejaVuSans-30" x="127.246094"/>
      </g>
     </g>
    </g>
   </g>
   <g id="line2d_17">
    <path d="M 57.6 211.756772 
L 414.72 211.756772 
" clip-path="url(#p60060a08e8)" style="fill: none; stroke: #1f77b4; stroke-width: 1.5; stroke-linecap: square"/>
   </g>
   <g id="patch_3">
    <path d="M 57.6 307.584 
L 57.6 41.472 
" style="fill: none; stroke: #000000; stroke-width: 0.8; stroke-linejoin: miter; stroke-linecap: square"/>
   </g>
   <g id="patch_4">
    <path d="M 414.72 307.584 
L 414.72 41.472 
" style="fill: none; stroke: #000000; stroke-width: 0.8; stroke-linejoin: miter; stroke-linecap: square"/>
   </g>
   <g id="patch_5">
    <path d="M 57.6 307.584 
L 414.72 307.584 
" style="fill: none; stroke: #000000; stroke-width: 0.8; stroke-linejoin: miter; stroke-linecap: square"/>
   </g>
   <g id="patch_6">
    <path d="M 57.6 41.472 
L 414.72 41.472 
" style="fill: none; stroke: #000000; stroke-width: 0.8; stroke-linejoin: miter; stroke-linecap: square"/>
   </g>
  </g>
 </g>
 <defs>
  <clipPath id="p60060a08e8">
   <rect x="57.6" y="41.472" width="357.12" height="266.112"/>
  </clipPath>
 </defs>
</svg>
