<?xml version="1.0" encoding="utf-8" standalone="no"?>
<!DOCTYPE svg PUBLIC "-//W3C//DTD SVG 1.1//EN"
  "http://www.w3.org/Graphics/SVG/1.1/DTD/svg11.dtd">
<svg xmlns:xlink="http://www.w3.org/1999/xlink" width="460.8pt" height="345.6pt" viewBox="0 0 460.8 345.6" xmlns="http://www.w3.org/2000/svg" version="1.1">
 <metadata>
  <rdf:RDF xmlns:dc="http://purl.org/dc/elements/1.1/" xmlns:cc="http://creativecommons.org/ns#" xmlns:rdf="http://www.w3.org/1999/02/22-rdf-syntax-ns#">
   <cc:Work>
    <dc:type rdf:resource="http://purl.org/dc/dcmitype/StillImage"/>
    <dc:date>2023-04-13T10:40:55.189627</dc:date>
    <dc:format>image/svg+xml</dc:format>
    <dc:creator>
     <cc:Agent>
      <dc:title>Matplotlib v3.7.1, https://matplotlib.org/</dc:title>
     </cc:Agent>
    </dc:creator>
   </cc:Work>
  </rdf:RDF>
 </metadata>
 <defs>
  <style type="text/css">*{stroke-linejoin: round; stroke-linecap: butt}</style>
 </defs>
 <g id="figure_1">
  <g id="patch_1">
   <path d="M 0 345.6 
L 460.8 345.6 
L 460.8 0 
L 0 0 
z
" style="fill: #ffffff"/>
  </g>
  <g id="axes_1">
   <g id="patch_2">
    <path d="M 57.6 307.584 
L 414.72 307.584 
L 414.72 41.472 
L 57.6 41.472 
z
" style="fill: #ffffff"/>
   </g>
   <g id="PathCollection_1">
    <defs>
     <path id="m496bcadea2" d="M 0 3 
C 0.795609 3 1.55874 2.683901 2.12132 2.12132 
C 2.683901 1.55874 3 0.795609 3 0 
C 3 -0.795609 2.683901 -1.55874 2.12132 -2.12132 
C 1.55874 -2.683901 0.795609 -3 0 -3 
C -0.795609 -3 -1.55874 -2.683901 -2.12132 -2.12132 
C -2.683901 -1.55874 -3 -0.795609 -3 0 
C -3 0.795609 -2.683901 1.55874 -2.12132 2.12132 
C -1.55874 2.683901 -0.795609 3 0 3 
z
" style="stroke: #ff0000"/>
    </defs>
    <g clip-path="url(#pa64ca915bd)">
     <use xlink:href="#m496bcadea2" x="310.895571" y="103.025059" style="fill: #ff0000; stroke: #ff0000"/>
     <use xlink:href="#m496bcadea2" x="251.759837" y="72.82921" style="fill: #ff0000; stroke: #ff0000"/>
     <use xlink:href="#m496bcadea2" x="312.556247" y="93.775777" style="fill: #ff0000; stroke: #ff0000"/>
     <use xlink:href="#m496bcadea2" x="298.858905" y="98.623049" style="fill: #ff0000; stroke: #ff0000"/>
     <use xlink:href="#m496bcadea2" x="254.290097" y="60.745578" style="fill: #ff0000; stroke: #ff0000"/>
     <use xlink:href="#m496bcadea2" x="225.953609" y="96.334162" style="fill: #ff0000; stroke: #ff0000"/>
     <use xlink:href="#m496bcadea2" x="123.416382" y="90.282995" style="fill: #ff0000; stroke: #ff0000"/>
     <use xlink:href="#m496bcadea2" x="265.466011" y="110.714193" style="fill: #ff0000; stroke: #ff0000"/>
     <use xlink:href="#m496bcadea2" x="137.763566" y="68.773037" style="fill: #ff0000; stroke: #ff0000"/>
     <use xlink:href="#m496bcadea2" x="279.377515" y="88.236735" style="fill: #ff0000; stroke: #ff0000"/>
     <use xlink:href="#m496bcadea2" x="112.003066" y="83.050338" style="fill: #ff0000; stroke: #ff0000"/>
     <use xlink:href="#m496bcadea2" x="122.837179" y="74.503301" style="fill: #ff0000; stroke: #ff0000"/>
     <use xlink:href="#m496bcadea2" x="103.949382" y="59.918906" style="fill: #ff0000; stroke: #ff0000"/>
     <use xlink:href="#m496bcadea2" x="284.574081" y="91.867366" style="fill: #ff0000; stroke: #ff0000"/>
     <use xlink:href="#m496bcadea2" x="218.262762" y="68.076461" style="fill: #ff0000; stroke: #ff0000"/>
     <use xlink:href="#m496bcadea2" x="316.144483" y="89.668036" style="fill: #ff0000; stroke: #ff0000"/>
     <use xlink:href="#m496bcadea2" x="223.380417" y="109.737732" style="fill: #ff0000; stroke: #ff0000"/>
     <use xlink:href="#m496bcadea2" x="259.141187" y="63.68803" style="fill: #ff0000; stroke: #ff0000"/>
     <use xlink:href="#m496bcadea2" x="305.187828" y="90.55516" style="fill: #ff0000; stroke: #ff0000"/>
     <use xlink:href="#m496bcadea2" x="133.000247" y="97.76475" style="fill: #ff0000; stroke: #ff0000"/>
     <use xlink:href="#m496bcadea2" x="291.002044" y="107.148334" style="fill: #ff0000; stroke: #ff0000"/>
     <use xlink:href="#m496bcadea2" x="101.016368" y="97.104319" style="fill: #ff0000; stroke: #ff0000"/>
     <use xlink:href="#m496bcadea2" x="256.350502" y="74.621321" style="fill: #ff0000; stroke: #ff0000"/>
     <use xlink:href="#m496bcadea2" x="289.814693" y="97.090761" style="fill: #ff0000; stroke: #ff0000"/>
     <use xlink:href="#m496bcadea2" x="274.694442" y="87.401214" style="fill: #ff0000; stroke: #ff0000"/>
     <use xlink:href="#m496bcadea2" x="236.566465" y="65.559767" style="fill: #ff0000; stroke: #ff0000"/>
     <use xlink:href="#m496bcadea2" x="225.349846" y="67.550999" style="fill: #ff0000; stroke: #ff0000"/>
     <use xlink:href="#m496bcadea2" x="268.676592" y="84.596847" style="fill: #ff0000; stroke: #ff0000"/>
     <use xlink:href="#m496bcadea2" x="119.413512" y="87.482318" style="fill: #ff0000; stroke: #ff0000"/>
     <use xlink:href="#m496bcadea2" x="124.245322" y="85.222206" style="fill: #ff0000; stroke: #ff0000"/>
     <use xlink:href="#m496bcadea2" x="107.142159" y="97.818687" style="fill: #ff0000; stroke: #ff0000"/>
     <use xlink:href="#m496bcadea2" x="262.568882" y="70.243932" style="fill: #ff0000; stroke: #ff0000"/>
     <use xlink:href="#m496bcadea2" x="300.018434" y="91.219153" style="fill: #ff0000; stroke: #ff0000"/>
     <use xlink:href="#m496bcadea2" x="270.760619" y="57.074621" style="fill: #ff0000; stroke: #ff0000"/>
     <use xlink:href="#m496bcadea2" x="243.440126" y="64.723771" style="fill: #ff0000; stroke: #ff0000"/>
     <use xlink:href="#m496bcadea2" x="312.235378" y="91.949228" style="fill: #ff0000; stroke: #ff0000"/>
     <use xlink:href="#m496bcadea2" x="282.190987" y="79.078417" style="fill: #ff0000; stroke: #ff0000"/>
     <use xlink:href="#m496bcadea2" x="280.167598" y="92.940045" style="fill: #ff0000; stroke: #ff0000"/>
     <use xlink:href="#m496bcadea2" x="296.003515" y="66.189724" style="fill: #ff0000; stroke: #ff0000"/>
     <use xlink:href="#m496bcadea2" x="298.518165" y="86.357411" style="fill: #ff0000; stroke: #ff0000"/>
     <use xlink:href="#m496bcadea2" x="292.407596" y="64.497741" style="fill: #ff0000; stroke: #ff0000"/>
     <use xlink:href="#m496bcadea2" x="119.507791" y="90.580474" style="fill: #ff0000; stroke: #ff0000"/>
     <use xlink:href="#m496bcadea2" x="310.338848" y="82.838818" style="fill: #ff0000; stroke: #ff0000"/>
     <use xlink:href="#m496bcadea2" x="94.53165" y="93.53028" style="fill: #ff0000; stroke: #ff0000"/>
     <use xlink:href="#m496bcadea2" x="118.493893" y="78.019618" style="fill: #ff0000; stroke: #ff0000"/>
     <use xlink:href="#m496bcadea2" x="267.411432" y="81.186489" style="fill: #ff0000; stroke: #ff0000"/>
     <use xlink:href="#m496bcadea2" x="238.345805" y="68.349819" style="fill: #ff0000; stroke: #ff0000"/>
     <use xlink:href="#m496bcadea2" x="135.465421" y="80.764165" style="fill: #ff0000; stroke: #ff0000"/>
     <use xlink:href="#m496bcadea2" x="110.548513" y="83.073418" style="fill: #ff0000; stroke: #ff0000"/>
     <use xlink:href="#m496bcadea2" x="137.698458" y="81.879466" style="fill: #ff0000; stroke: #ff0000"/>
     <use xlink:href="#m496bcadea2" x="105.299987" y="65.162478" style="fill: #ff0000; stroke: #ff0000"/>
     <use xlink:href="#m496bcadea2" x="232.775166" y="64.336833" style="fill: #ff0000; stroke: #ff0000"/>
     <use xlink:href="#m496bcadea2" x="279.862564" y="90.890143" style="fill: #ff0000; stroke: #ff0000"/>
     <use xlink:href="#m496bcadea2" x="247.973191" y="95.402461" style="fill: #ff0000; stroke: #ff0000"/>
     <use xlink:href="#m496bcadea2" x="296.997012" y="88.840258" style="fill: #ff0000; stroke: #ff0000"/>
     <use xlink:href="#m496bcadea2" x="249.5948" y="78.76072" style="fill: #ff0000; stroke: #ff0000"/>
     <use xlink:href="#m496bcadea2" x="247.70395" y="74.598184" style="fill: #ff0000; stroke: #ff0000"/>
     <use xlink:href="#m496bcadea2" x="250.810744" y="82.023335" style="fill: #ff0000; stroke: #ff0000"/>
     <use xlink:href="#m496bcadea2" x="303.563089" y="60.59087" style="fill: #ff0000; stroke: #ff0000"/>
     <use xlink:href="#m496bcadea2" x="262.585847" y="79.673631" style="fill: #ff0000; stroke: #ff0000"/>
     <use xlink:href="#m496bcadea2" x="139.757858" y="73.606945" style="fill: #ff0000; stroke: #ff0000"/>
     <use xlink:href="#m496bcadea2" x="119.929539" y="78.801926" style="fill: #ff0000; stroke: #ff0000"/>
     <use xlink:href="#m496bcadea2" x="143.084028" y="61.255034" style="fill: #ff0000; stroke: #ff0000"/>
     <use xlink:href="#m496bcadea2" x="253.853906" y="53.568" style="fill: #ff0000; stroke: #ff0000"/>
     <use xlink:href="#m496bcadea2" x="310.62296" y="86.152779" style="fill: #ff0000; stroke: #ff0000"/>
     <use xlink:href="#m496bcadea2" x="303.05414" y="57.632627" style="fill: #ff0000; stroke: #ff0000"/>
     <use xlink:href="#m496bcadea2" x="130.671859" y="91.340522" style="fill: #ff0000; stroke: #ff0000"/>
     <use xlink:href="#m496bcadea2" x="104.289289" y="70.792762" style="fill: #ff0000; stroke: #ff0000"/>
     <use xlink:href="#m496bcadea2" x="129.222494" y="75.997488" style="fill: #ff0000; stroke: #ff0000"/>
     <use xlink:href="#m496bcadea2" x="120.494808" y="99.258408" style="fill: #ff0000; stroke: #ff0000"/>
     <use xlink:href="#m496bcadea2" x="274.728181" y="87.643973" style="fill: #ff0000; stroke: #ff0000"/>
     <use xlink:href="#m496bcadea2" x="292.329362" y="91.70278" style="fill: #ff0000; stroke: #ff0000"/>
     <use xlink:href="#m496bcadea2" x="131.274317" y="96.11238" style="fill: #ff0000; stroke: #ff0000"/>
     <use xlink:href="#m496bcadea2" x="278.330022" y="76.886184" style="fill: #ff0000; stroke: #ff0000"/>
     <use xlink:href="#m496bcadea2" x="228.730897" y="85.419497" style="fill: #ff0000; stroke: #ff0000"/>
     <use xlink:href="#m496bcadea2" x="257.420042" y="91.648311" style="fill: #ff0000; stroke: #ff0000"/>
     <use xlink:href="#m496bcadea2" x="243.972362" y="66.865405" style="fill: #ff0000; stroke: #ff0000"/>
     <use xlink:href="#m496bcadea2" x="103.607684" y="66.836788" style="fill: #ff0000; stroke: #ff0000"/>
     <use xlink:href="#m496bcadea2" x="225.827884" y="68.166826" style="fill: #ff0000; stroke: #ff0000"/>
     <use xlink:href="#m496bcadea2" x="265.050619" y="79.202408" style="fill: #ff0000; stroke: #ff0000"/>
     <use xlink:href="#m496bcadea2" x="125.874695" y="65.441215" style="fill: #ff0000; stroke: #ff0000"/>
     <use xlink:href="#m496bcadea2" x="110.941247" y="79.412389" style="fill: #ff0000; stroke: #ff0000"/>
     <use xlink:href="#m496bcadea2" x="235.910795" y="85.144659" style="fill: #ff0000; stroke: #ff0000"/>
     <use xlink:href="#m496bcadea2" x="231.279211" y="92.647198" style="fill: #ff0000; stroke: #ff0000"/>
     <use xlink:href="#m496bcadea2" x="260.807859" y="72.904457" style="fill: #ff0000; stroke: #ff0000"/>
     <use xlink:href="#m496bcadea2" x="297.596611" y="92.388519" style="fill: #ff0000; stroke: #ff0000"/>
     <use xlink:href="#m496bcadea2" x="239.824353" y="67.881938" style="fill: #ff0000; stroke: #ff0000"/>
     <use xlink:href="#m496bcadea2" x="289.734875" y="84.398134" style="fill: #ff0000; stroke: #ff0000"/>
     <use xlink:href="#m496bcadea2" x="246.722331" y="89.180586" style="fill: #ff0000; stroke: #ff0000"/>
     <use xlink:href="#m496bcadea2" x="221.07584" y="84.773401" style="fill: #ff0000; stroke: #ff0000"/>
     <use xlink:href="#m496bcadea2" x="120.870775" y="115.628951" style="fill: #ff0000; stroke: #ff0000"/>
     <use xlink:href="#m496bcadea2" x="104.425747" y="85.060064" style="fill: #ff0000; stroke: #ff0000"/>
     <use xlink:href="#m496bcadea2" x="298.373176" y="97.707972" style="fill: #ff0000; stroke: #ff0000"/>
     <use xlink:href="#m496bcadea2" x="226.730552" y="96.606956" style="fill: #ff0000; stroke: #ff0000"/>
     <use xlink:href="#m496bcadea2" x="109.660821" y="85.424652" style="fill: #ff0000; stroke: #ff0000"/>
     <use xlink:href="#m496bcadea2" x="246.012203" y="100.344793" style="fill: #ff0000; stroke: #ff0000"/>
     <use xlink:href="#m496bcadea2" x="134.134138" y="107.97753" style="fill: #ff0000; stroke: #ff0000"/>
     <use xlink:href="#m496bcadea2" x="265.657302" y="78.70078" style="fill: #ff0000; stroke: #ff0000"/>
     <use xlink:href="#m496bcadea2" x="100.466481" y="119.503556" style="fill: #ff0000; stroke: #ff0000"/>
     <use xlink:href="#m496bcadea2" x="236.362496" y="76.30081" style="fill: #ff0000; stroke: #ff0000"/>
    </g>
   </g>
   <g id="PathCollection_2">
    <g clip-path="url(#pa64ca915bd)">
     <use xlink:href="#m496bcadea2" x="248.335771" y="295.488" style="fill: #ff0000; stroke: #ff0000"/>
     <use xlink:href="#m496bcadea2" x="367.925419" y="264.869991" style="fill: #ff0000; stroke: #ff0000"/>
     <use xlink:href="#m496bcadea2" x="293.275507" y="268.303958" style="fill: #ff0000; stroke: #ff0000"/>
     <use xlink:href="#m496bcadea2" x="297.064038" y="273.292129" style="fill: #ff0000; stroke: #ff0000"/>
     <use xlink:href="#m496bcadea2" x="243.452545" y="292.53185" style="fill: #ff0000; stroke: #ff0000"/>
     <use xlink:href="#m496bcadea2" x="219.67132" y="280.437686" style="fill: #ff0000; stroke: #ff0000"/>
     <use xlink:href="#m496bcadea2" x="334.683285" y="286.244956" style="fill: #ff0000; stroke: #ff0000"/>
     <use xlink:href="#m496bcadea2" x="308.948104" y="267.179186" style="fill: #ff0000; stroke: #ff0000"/>
     <use xlink:href="#m496bcadea2" x="330.116916" y="284.892884" style="fill: #ff0000; stroke: #ff0000"/>
     <use xlink:href="#m496bcadea2" x="385.158021" y="275.725813" style="fill: #ff0000; stroke: #ff0000"/>
     <use xlink:href="#m496bcadea2" x="293.585214" y="266.881592" style="fill: #ff0000; stroke: #ff0000"/>
     <use xlink:href="#m496bcadea2" x="188.091095" y="260.684579" style="fill: #ff0000; stroke: #ff0000"/>
     <use xlink:href="#m496bcadea2" x="286.834482" y="262.521715" style="fill: #ff0000; stroke: #ff0000"/>
     <use xlink:href="#m496bcadea2" x="350.93174" y="268.294446" style="fill: #ff0000; stroke: #ff0000"/>
     <use xlink:href="#m496bcadea2" x="329.196048" y="285.379097" style="fill: #ff0000; stroke: #ff0000"/>
     <use xlink:href="#m496bcadea2" x="218.316056" y="262.572261" style="fill: #ff0000; stroke: #ff0000"/>
     <use xlink:href="#m496bcadea2" x="267.263557" y="258.387797" style="fill: #ff0000; stroke: #ff0000"/>
     <use xlink:href="#m496bcadea2" x="345.253313" y="271.755842" style="fill: #ff0000; stroke: #ff0000"/>
     <use xlink:href="#m496bcadea2" x="260.209746" y="267.270834" style="fill: #ff0000; stroke: #ff0000"/>
     <use xlink:href="#m496bcadea2" x="229.605898" y="262.183362" style="fill: #ff0000; stroke: #ff0000"/>
     <use xlink:href="#m496bcadea2" x="256.770409" y="270.242487" style="fill: #ff0000; stroke: #ff0000"/>
     <use xlink:href="#m496bcadea2" x="206.054066" y="288.332003" style="fill: #ff0000; stroke: #ff0000"/>
     <use xlink:href="#m496bcadea2" x="351.505" y="252.865998" style="fill: #ff0000; stroke: #ff0000"/>
     <use xlink:href="#m496bcadea2" x="341.964191" y="282.611685" style="fill: #ff0000; stroke: #ff0000"/>
     <use xlink:href="#m496bcadea2" x="255.208839" y="269.302451" style="fill: #ff0000; stroke: #ff0000"/>
     <use xlink:href="#m496bcadea2" x="198.86003" y="265.515302" style="fill: #ff0000; stroke: #ff0000"/>
     <use xlink:href="#m496bcadea2" x="322.007486" y="265.463561" style="fill: #ff0000; stroke: #ff0000"/>
     <use xlink:href="#m496bcadea2" x="280.259207" y="269.18715" style="fill: #ff0000; stroke: #ff0000"/>
     <use xlink:href="#m496bcadea2" x="229.786176" y="274.365019" style="fill: #ff0000; stroke: #ff0000"/>
     <use xlink:href="#m496bcadea2" x="327.12004" y="270.284708" style="fill: #ff0000; stroke: #ff0000"/>
     <use xlink:href="#m496bcadea2" x="259.799579" y="273.15171" style="fill: #ff0000; stroke: #ff0000"/>
     <use xlink:href="#m496bcadea2" x="337.117471" y="288.710341" style="fill: #ff0000; stroke: #ff0000"/>
     <use xlink:href="#m496bcadea2" x="293.809314" y="281.787867" style="fill: #ff0000; stroke: #ff0000"/>
     <use xlink:href="#m496bcadea2" x="202.062461" y="277.760725" style="fill: #ff0000; stroke: #ff0000"/>
     <use xlink:href="#m496bcadea2" x="212.758855" y="260.142421" style="fill: #ff0000; stroke: #ff0000"/>
     <use xlink:href="#m496bcadea2" x="307.208826" y="282.930979" style="fill: #ff0000; stroke: #ff0000"/>
     <use xlink:href="#m496bcadea2" x="258.928051" y="256.433165" style="fill: #ff0000; stroke: #ff0000"/>
     <use xlink:href="#m496bcadea2" x="257.159914" y="288.575002" style="fill: #ff0000; stroke: #ff0000"/>
     <use xlink:href="#m496bcadea2" x="273.217472" y="265.426598" style="fill: #ff0000; stroke: #ff0000"/>
     <use xlink:href="#m496bcadea2" x="327.277371" y="272.69851" style="fill: #ff0000; stroke: #ff0000"/>
     <use xlink:href="#m496bcadea2" x="218.110844" y="270.993311" style="fill: #ff0000; stroke: #ff0000"/>
     <use xlink:href="#m496bcadea2" x="320.562026" y="265.187798" style="fill: #ff0000; stroke: #ff0000"/>
     <use xlink:href="#m496bcadea2" x="258.152597" y="271.215631" style="fill: #ff0000; stroke: #ff0000"/>
     <use xlink:href="#m496bcadea2" x="333.624569" y="282.762132" style="fill: #ff0000; stroke: #ff0000"/>
     <use xlink:href="#m496bcadea2" x="209.763306" y="265.268972" style="fill: #ff0000; stroke: #ff0000"/>
     <use xlink:href="#m496bcadea2" x="392.016453" y="266.794093" style="fill: #ff0000; stroke: #ff0000"/>
     <use xlink:href="#m496bcadea2" x="203.417496" y="279.741059" style="fill: #ff0000; stroke: #ff0000"/>
     <use xlink:href="#m496bcadea2" x="286.425851" y="277.638893" style="fill: #ff0000; stroke: #ff0000"/>
     <use xlink:href="#m496bcadea2" x="295.950665" y="271.998172" style="fill: #ff0000; stroke: #ff0000"/>
     <use xlink:href="#m496bcadea2" x="203.888486" y="254.016342" style="fill: #ff0000; stroke: #ff0000"/>
     <use xlink:href="#m496bcadea2" x="396.240151" y="259.116095" style="fill: #ff0000; stroke: #ff0000"/>
     <use xlink:href="#m496bcadea2" x="227.696967" y="270.421315" style="fill: #ff0000; stroke: #ff0000"/>
     <use xlink:href="#m496bcadea2" x="288.837504" y="266.780382" style="fill: #ff0000; stroke: #ff0000"/>
     <use xlink:href="#m496bcadea2" x="319.130743" y="265.28206" style="fill: #ff0000; stroke: #ff0000"/>
     <use xlink:href="#m496bcadea2" x="331.949898" y="269.758828" style="fill: #ff0000; stroke: #ff0000"/>
     <use xlink:href="#m496bcadea2" x="226.610527" y="265.142227" style="fill: #ff0000; stroke: #ff0000"/>
     <use xlink:href="#m496bcadea2" x="275.828256" y="278.204613" style="fill: #ff0000; stroke: #ff0000"/>
     <use xlink:href="#m496bcadea2" x="316.331978" y="251.221231" style="fill: #ff0000; stroke: #ff0000"/>
     <use xlink:href="#m496bcadea2" x="238.981736" y="278.196914" style="fill: #ff0000; stroke: #ff0000"/>
     <use xlink:href="#m496bcadea2" x="367.426337" y="289.966672" style="fill: #ff0000; stroke: #ff0000"/>
     <use xlink:href="#m496bcadea2" x="234.201939" y="272.813232" style="fill: #ff0000; stroke: #ff0000"/>
     <use xlink:href="#m496bcadea2" x="195.251274" y="265.368917" style="fill: #ff0000; stroke: #ff0000"/>
     <use xlink:href="#m496bcadea2" x="369.19421" y="271.7218" style="fill: #ff0000; stroke: #ff0000"/>
     <use xlink:href="#m496bcadea2" x="398.487273" y="281.905419" style="fill: #ff0000; stroke: #ff0000"/>
     <use xlink:href="#m496bcadea2" x="381.061082" y="269.340634" style="fill: #ff0000; stroke: #ff0000"/>
     <use xlink:href="#m496bcadea2" x="397.139339" y="257.479309" style="fill: #ff0000; stroke: #ff0000"/>
     <use xlink:href="#m496bcadea2" x="239.677203" y="269.436055" style="fill: #ff0000; stroke: #ff0000"/>
     <use xlink:href="#m496bcadea2" x="226.075534" y="280.782365" style="fill: #ff0000; stroke: #ff0000"/>
     <use xlink:href="#m496bcadea2" x="236.956334" y="274.457983" style="fill: #ff0000; stroke: #ff0000"/>
     <use xlink:href="#m496bcadea2" x="210.957985" y="266.456732" style="fill: #ff0000; stroke: #ff0000"/>
     <use xlink:href="#m496bcadea2" x="395.21445" y="281.053323" style="fill: #ff0000; stroke: #ff0000"/>
     <use xlink:href="#m496bcadea2" x="269.904736" y="265.936918" style="fill: #ff0000; stroke: #ff0000"/>
     <use xlink:href="#m496bcadea2" x="317.086392" y="274.779852" style="fill: #ff0000; stroke: #ff0000"/>
     <use xlink:href="#m496bcadea2" x="218.253911" y="261.146716" style="fill: #ff0000; stroke: #ff0000"/>
     <use xlink:href="#m496bcadea2" x="236.280173" y="273.864735" style="fill: #ff0000; stroke: #ff0000"/>
     <use xlink:href="#m496bcadea2" x="364.431974" y="269.298326" style="fill: #ff0000; stroke: #ff0000"/>
     <use xlink:href="#m496bcadea2" x="385.568527" y="266.26906" style="fill: #ff0000; stroke: #ff0000"/>
     <use xlink:href="#m496bcadea2" x="317.809381" y="275.638521" style="fill: #ff0000; stroke: #ff0000"/>
     <use xlink:href="#m496bcadea2" x="236.516045" y="269.811702" style="fill: #ff0000; stroke: #ff0000"/>
     <use xlink:href="#m496bcadea2" x="264.704595" y="280.360232" style="fill: #ff0000; stroke: #ff0000"/>
     <use xlink:href="#m496bcadea2" x="390.153017" y="278.988665" style="fill: #ff0000; stroke: #ff0000"/>
     <use xlink:href="#m496bcadea2" x="240.291014" y="274.905468" style="fill: #ff0000; stroke: #ff0000"/>
     <use xlink:href="#m496bcadea2" x="302.099629" y="279.084562" style="fill: #ff0000; stroke: #ff0000"/>
     <use xlink:href="#m496bcadea2" x="241.911665" y="259.969858" style="fill: #ff0000; stroke: #ff0000"/>
     <use xlink:href="#m496bcadea2" x="336.805866" y="272.16807" style="fill: #ff0000; stroke: #ff0000"/>
     <use xlink:href="#m496bcadea2" x="359.364077" y="271.586747" style="fill: #ff0000; stroke: #ff0000"/>
     <use xlink:href="#m496bcadea2" x="330.2532" y="253.781141" style="fill: #ff0000; stroke: #ff0000"/>
     <use xlink:href="#m496bcadea2" x="397.27437" y="266.089844" style="fill: #ff0000; stroke: #ff0000"/>
     <use xlink:href="#m496bcadea2" x="284.464779" y="266.455112" style="fill: #ff0000; stroke: #ff0000"/>
     <use xlink:href="#m496bcadea2" x="261.180817" y="267.889818" style="fill: #ff0000; stroke: #ff0000"/>
     <use xlink:href="#m496bcadea2" x="331.710793" y="255.272476" style="fill: #ff0000; stroke: #ff0000"/>
     <use xlink:href="#m496bcadea2" x="261.447518" y="284.550792" style="fill: #ff0000; stroke: #ff0000"/>
     <use xlink:href="#m496bcadea2" x="306.420393" y="265.654052" style="fill: #ff0000; stroke: #ff0000"/>
     <use xlink:href="#m496bcadea2" x="260.459082" y="272.263847" style="fill: #ff0000; stroke: #ff0000"/>
     <use xlink:href="#m496bcadea2" x="276.920009" y="267.029141" style="fill: #ff0000; stroke: #ff0000"/>
     <use xlink:href="#m496bcadea2" x="260.33384" y="270.889577" style="fill: #ff0000; stroke: #ff0000"/>
     <use xlink:href="#m496bcadea2" x="378.445834" y="258.600148" style="fill: #ff0000; stroke: #ff0000"/>
     <use xlink:href="#m496bcadea2" x="233.93192" y="278.178448" style="fill: #ff0000; stroke: #ff0000"/>
     <use xlink:href="#m496bcadea2" x="245.346893" y="280.165583" style="fill: #ff0000; stroke: #ff0000"/>
     <use xlink:href="#m496bcadea2" x="274.113637" y="265.854291" style="fill: #ff0000; stroke: #ff0000"/>
     <use xlink:href="#m496bcadea2" x="115.085987" y="271.873937" style="fill: #ff0000; stroke: #ff0000"/>
     <use xlink:href="#m496bcadea2" x="141.68911" y="275.806799" style="fill: #ff0000; stroke: #ff0000"/>
     <use xlink:href="#m496bcadea2" x="74.784523" y="282.714066" style="fill: #ff0000; stroke: #ff0000"/>
     <use xlink:href="#m496bcadea2" x="143.32965" y="268.285421" style="fill: #ff0000; stroke: #ff0000"/>
     <use xlink:href="#m496bcadea2" x="86.841821" y="263.811522" style="fill: #ff0000; stroke: #ff0000"/>
     <use xlink:href="#m496bcadea2" x="122.668688" y="265.195846" style="fill: #ff0000; stroke: #ff0000"/>
     <use xlink:href="#m496bcadea2" x="76.794071" y="270.905587" style="fill: #ff0000; stroke: #ff0000"/>
     <use xlink:href="#m496bcadea2" x="95.539182" y="269.154828" style="fill: #ff0000; stroke: #ff0000"/>
     <use xlink:href="#m496bcadea2" x="77.316961" y="262.846107" style="fill: #ff0000; stroke: #ff0000"/>
     <use xlink:href="#m496bcadea2" x="94.40009" y="256.980372" style="fill: #ff0000; stroke: #ff0000"/>
     <use xlink:href="#m496bcadea2" x="98.442992" y="282.711572" style="fill: #ff0000; stroke: #ff0000"/>
     <use xlink:href="#m496bcadea2" x="77.789894" y="278.904141" style="fill: #ff0000; stroke: #ff0000"/>
     <use xlink:href="#m496bcadea2" x="74.010829" y="275.970769" style="fill: #ff0000; stroke: #ff0000"/>
     <use xlink:href="#m496bcadea2" x="154.853132" y="266.80408" style="fill: #ff0000; stroke: #ff0000"/>
     <use xlink:href="#m496bcadea2" x="140.767485" y="269.053231" style="fill: #ff0000; stroke: #ff0000"/>
     <use xlink:href="#m496bcadea2" x="76.212211" y="287.047869" style="fill: #ff0000; stroke: #ff0000"/>
     <use xlink:href="#m496bcadea2" x="79.749631" y="257.88618" style="fill: #ff0000; stroke: #ff0000"/>
     <use xlink:href="#m496bcadea2" x="122.231086" y="272.588049" style="fill: #ff0000; stroke: #ff0000"/>
     <use xlink:href="#m496bcadea2" x="86.551297" y="260.316314" style="fill: #ff0000; stroke: #ff0000"/>
     <use xlink:href="#m496bcadea2" x="94.584901" y="270.184768" style="fill: #ff0000; stroke: #ff0000"/>
     <use xlink:href="#m496bcadea2" x="103.344083" y="259.280315" style="fill: #ff0000; stroke: #ff0000"/>
     <use xlink:href="#m496bcadea2" x="99.049026" y="266.828154" style="fill: #ff0000; stroke: #ff0000"/>
     <use xlink:href="#m496bcadea2" x="86.939503" y="270.177128" style="fill: #ff0000; stroke: #ff0000"/>
     <use xlink:href="#m496bcadea2" x="150.565278" y="274.174533" style="fill: #ff0000; stroke: #ff0000"/>
     <use xlink:href="#m496bcadea2" x="147.030636" y="263.529891" style="fill: #ff0000; stroke: #ff0000"/>
     <use xlink:href="#m496bcadea2" x="123.307069" y="263.891581" style="fill: #ff0000; stroke: #ff0000"/>
     <use xlink:href="#m496bcadea2" x="75.044831" y="272.135718" style="fill: #ff0000; stroke: #ff0000"/>
     <use xlink:href="#m496bcadea2" x="101.233598" y="270.617915" style="fill: #ff0000; stroke: #ff0000"/>
     <use xlink:href="#m496bcadea2" x="143.848107" y="267.721872" style="fill: #ff0000; stroke: #ff0000"/>
     <use xlink:href="#m496bcadea2" x="96.4939" y="272.798278" style="fill: #ff0000; stroke: #ff0000"/>
     <use xlink:href="#m496bcadea2" x="140.388166" y="283.248585" style="fill: #ff0000; stroke: #ff0000"/>
     <use xlink:href="#m496bcadea2" x="74.692951" y="287.745394" style="fill: #ff0000; stroke: #ff0000"/>
     <use xlink:href="#m496bcadea2" x="148.833499" y="275.566492" style="fill: #ff0000; stroke: #ff0000"/>
     <use xlink:href="#m496bcadea2" x="77.424229" y="273.342931" style="fill: #ff0000; stroke: #ff0000"/>
     <use xlink:href="#m496bcadea2" x="125.909745" y="253.898918" style="fill: #ff0000; stroke: #ff0000"/>
     <use xlink:href="#m496bcadea2" x="135.253248" y="280.325989" style="fill: #ff0000; stroke: #ff0000"/>
     <use xlink:href="#m496bcadea2" x="83.130074" y="270.340317" style="fill: #ff0000; stroke: #ff0000"/>
     <use xlink:href="#m496bcadea2" x="124.090202" y="273.93709" style="fill: #ff0000; stroke: #ff0000"/>
     <use xlink:href="#m496bcadea2" x="126.92715" y="277.650867" style="fill: #ff0000; stroke: #ff0000"/>
     <use xlink:href="#m496bcadea2" x="151.619445" y="273.188321" style="fill: #ff0000; stroke: #ff0000"/>
     <use xlink:href="#m496bcadea2" x="150.030924" y="269.111951" style="fill: #ff0000; stroke: #ff0000"/>
     <use xlink:href="#m496bcadea2" x="97.556366" y="276.634915" style="fill: #ff0000; stroke: #ff0000"/>
     <use xlink:href="#m496bcadea2" x="147.828094" y="285.192648" style="fill: #ff0000; stroke: #ff0000"/>
     <use xlink:href="#m496bcadea2" x="86.433717" y="281.355872" style="fill: #ff0000; stroke: #ff0000"/>
     <use xlink:href="#m496bcadea2" x="81.716746" y="268.143945" style="fill: #ff0000; stroke: #ff0000"/>
     <use xlink:href="#m496bcadea2" x="144.242208" y="274.535485" style="fill: #ff0000; stroke: #ff0000"/>
     <use xlink:href="#m496bcadea2" x="131.149485" y="275.736013" style="fill: #ff0000; stroke: #ff0000"/>
     <use xlink:href="#m496bcadea2" x="149.078254" y="262.919198" style="fill: #ff0000; stroke: #ff0000"/>
     <use xlink:href="#m496bcadea2" x="83.697309" y="288.452581" style="fill: #ff0000; stroke: #ff0000"/>
     <use xlink:href="#m496bcadea2" x="132.592871" y="275.421759" style="fill: #ff0000; stroke: #ff0000"/>
     <use xlink:href="#m496bcadea2" x="149.346969" y="264.900509" style="fill: #ff0000; stroke: #ff0000"/>
     <use xlink:href="#m496bcadea2" x="100.961761" y="264.605682" style="fill: #ff0000; stroke: #ff0000"/>
     <use xlink:href="#m496bcadea2" x="85.531524" y="262.529136" style="fill: #ff0000; stroke: #ff0000"/>
     <use xlink:href="#m496bcadea2" x="123.549223" y="276.349001" style="fill: #ff0000; stroke: #ff0000"/>
     <use xlink:href="#m496bcadea2" x="103.417848" y="265.526228" style="fill: #ff0000; stroke: #ff0000"/>
     <use xlink:href="#m496bcadea2" x="131.959973" y="253.739389" style="fill: #ff0000; stroke: #ff0000"/>
     <use xlink:href="#m496bcadea2" x="110.579615" y="271.346535" style="fill: #ff0000; stroke: #ff0000"/>
     <use xlink:href="#m496bcadea2" x="108.373693" y="253.217834" style="fill: #ff0000; stroke: #ff0000"/>
     <use xlink:href="#m496bcadea2" x="156.968014" y="278.857479" style="fill: #ff0000; stroke: #ff0000"/>
     <use xlink:href="#m496bcadea2" x="111.205903" y="274.634217" style="fill: #ff0000; stroke: #ff0000"/>
     <use xlink:href="#m496bcadea2" x="98.527995" y="279.508493" style="fill: #ff0000; stroke: #ff0000"/>
     <use xlink:href="#m496bcadea2" x="148.804356" y="270.241817" style="fill: #ff0000; stroke: #ff0000"/>
     <use xlink:href="#m496bcadea2" x="117.042971" y="264.456213" style="fill: #ff0000; stroke: #ff0000"/>
     <use xlink:href="#m496bcadea2" x="103.36317" y="281.106424" style="fill: #ff0000; stroke: #ff0000"/>
     <use xlink:href="#m496bcadea2" x="127.774172" y="276.8089" style="fill: #ff0000; stroke: #ff0000"/>
     <use xlink:href="#m496bcadea2" x="121.951347" y="277.949733" style="fill: #ff0000; stroke: #ff0000"/>
     <use xlink:href="#m496bcadea2" x="107.887387" y="267.486626" style="fill: #ff0000; stroke: #ff0000"/>
     <use xlink:href="#m496bcadea2" x="73.832727" y="275.147234" style="fill: #ff0000; stroke: #ff0000"/>
     <use xlink:href="#m496bcadea2" x="109.398859" y="274.072487" style="fill: #ff0000; stroke: #ff0000"/>
     <use xlink:href="#m496bcadea2" x="159.305488" y="267.869742" style="fill: #ff0000; stroke: #ff0000"/>
     <use xlink:href="#m496bcadea2" x="93.16145" y="265.158463" style="fill: #ff0000; stroke: #ff0000"/>
     <use xlink:href="#m496bcadea2" x="89.334964" y="290.989934" style="fill: #ff0000; stroke: #ff0000"/>
     <use xlink:href="#m496bcadea2" x="86.034731" y="271.326294" style="fill: #ff0000; stroke: #ff0000"/>
     <use xlink:href="#m496bcadea2" x="113.303875" y="277.694576" style="fill: #ff0000; stroke: #ff0000"/>
     <use xlink:href="#m496bcadea2" x="91.663756" y="268.196101" style="fill: #ff0000; stroke: #ff0000"/>
     <use xlink:href="#m496bcadea2" x="139.990674" y="294.0621" style="fill: #ff0000; stroke: #ff0000"/>
     <use xlink:href="#m496bcadea2" x="126.344072" y="272.781393" style="fill: #ff0000; stroke: #ff0000"/>
     <use xlink:href="#m496bcadea2" x="132.040376" y="280.686902" style="fill: #ff0000; stroke: #ff0000"/>
     <use xlink:href="#m496bcadea2" x="97.282457" y="265.070467" style="fill: #ff0000; stroke: #ff0000"/>
     <use xlink:href="#m496bcadea2" x="115.825937" y="268.966401" style="fill: #ff0000; stroke: #ff0000"/>
     <use xlink:href="#m496bcadea2" x="105.34301" y="261.085574" style="fill: #ff0000; stroke: #ff0000"/>
     <use xlink:href="#m496bcadea2" x="129.75241" y="288.836826" style="fill: #ff0000; stroke: #ff0000"/>
     <use xlink:href="#m496bcadea2" x="120.524511" y="278.633439" style="fill: #ff0000; stroke: #ff0000"/>
     <use xlink:href="#m496bcadea2" x="79.306413" y="279.126753" style="fill: #ff0000; stroke: #ff0000"/>
     <use xlink:href="#m496bcadea2" x="82.463072" y="277.901499" style="fill: #ff0000; stroke: #ff0000"/>
     <use xlink:href="#m496bcadea2" x="121.119439" y="265.449374" style="fill: #ff0000; stroke: #ff0000"/>
     <use xlink:href="#m496bcadea2" x="99.792543" y="282.518706" style="fill: #ff0000; stroke: #ff0000"/>
     <use xlink:href="#m496bcadea2" x="126.710371" y="281.615377" style="fill: #ff0000; stroke: #ff0000"/>
     <use xlink:href="#m496bcadea2" x="93.62177" y="281.305371" style="fill: #ff0000; stroke: #ff0000"/>
     <use xlink:href="#m496bcadea2" x="126.373408" y="285.504407" style="fill: #ff0000; stroke: #ff0000"/>
     <use xlink:href="#m496bcadea2" x="110.991307" y="252.950558" style="fill: #ff0000; stroke: #ff0000"/>
     <use xlink:href="#m496bcadea2" x="149.964234" y="279.304316" style="fill: #ff0000; stroke: #ff0000"/>
     <use xlink:href="#m496bcadea2" x="85.898744" y="256.669019" style="fill: #ff0000; stroke: #ff0000"/>
     <use xlink:href="#m496bcadea2" x="84.973368" y="262.765087" style="fill: #ff0000; stroke: #ff0000"/>
     <use xlink:href="#m496bcadea2" x="98.320397" y="255.734813" style="fill: #ff0000; stroke: #ff0000"/>
     <use xlink:href="#m496bcadea2" x="109.331422" y="263.354744" style="fill: #ff0000; stroke: #ff0000"/>
     <use xlink:href="#m496bcadea2" x="92.084214" y="273.462593" style="fill: #ff0000; stroke: #ff0000"/>
     <use xlink:href="#m496bcadea2" x="154.878119" y="259.96528" style="fill: #ff0000; stroke: #ff0000"/>
     <use xlink:href="#m496bcadea2" x="136.699895" y="257.978446" style="fill: #ff0000; stroke: #ff0000"/>
     <use xlink:href="#m496bcadea2" x="134.339291" y="268.824755" style="fill: #ff0000; stroke: #ff0000"/>
    </g>
   </g>
   <g id="matplotlib.axis_1">
    <g id="xtick_1">
     <g id="line2d_1">
      <defs>
       <path id="m7719e1ac1f" d="M 0 0 
L 0 3.5 
" style="stroke: #000000; stroke-width: 0.8"/>
      </defs>
      <g>
       <use xlink:href="#m7719e1ac1f" x="73.178039" y="307.584" style="stroke: #000000; stroke-width: 0.8"/>
      </g>
     </g>
     <g id="text_1">
      <!-- 0 -->
      <g transform="translate(69.996789 322.182437) scale(0.1 -0.1)">
       <defs>
        <path id="DejaVuSans-30" d="M 2034 4250 
Q 1547 4250 1301 3770 
Q 1056 3291 1056 2328 
Q 1056 1369 1301 889 
Q 1547 409 2034 409 
Q 2525 409 2770 889 
Q 3016 1369 3016 2328 
Q 3016 3291 2770 3770 
Q 2525 4250 2034 4250 
z
M 2034 4750 
Q 2819 4750 3233 4129 
Q 3647 3509 3647 2328 
Q 3647 1150 3233 529 
Q 2819 -91 2034 -91 
Q 1250 -91 836 529 
Q 422 1150 422 2328 
Q 422 3509 836 4129 
Q 1250 4750 2034 4750 
z
" transform="scale(0.015625)"/>
       </defs>
       <use xlink:href="#DejaVuSans-30"/>
      </g>
     </g>
    </g>
    <g id="xtick_2">
     <g id="line2d_2">
      <g>
       <use xlink:href="#m7719e1ac1f" x="116.560691" y="307.584" style="stroke: #000000; stroke-width: 0.8"/>
      </g>
     </g>
     <g id="text_2">
      <!-- 20 -->
      <g transform="translate(110.198191 322.182437) scale(0.1 -0.1)">
       <defs>
        <path id="DejaVuSans-32" d="M 1228 531 
L 3431 531 
L 3431 0 
L 469 0 
L 469 531 
Q 828 903 1448 1529 
Q 2069 2156 2228 2338 
Q 2531 2678 2651 2914 
Q 2772 3150 2772 3378 
Q 2772 3750 2511 3984 
Q 2250 4219 1831 4219 
Q 1534 4219 1204 4116 
Q 875 4013 500 3803 
L 500 4441 
Q 881 4594 1212 4672 
Q 1544 4750 1819 4750 
Q 2544 4750 2975 4387 
Q 3406 4025 3406 3419 
Q 3406 3131 3298 2873 
Q 3191 2616 2906 2266 
Q 2828 2175 2409 1742 
Q 1991 1309 1228 531 
z
" transform="scale(0.015625)"/>
       </defs>
       <use xlink:href="#DejaVuSans-32"/>
       <use xlink:href="#DejaVuSans-30" x="63.623047"/>
      </g>
     </g>
    </g>
    <g id="xtick_3">
     <g id="line2d_3">
      <g>
       <use xlink:href="#m7719e1ac1f" x="159.943343" y="307.584" style="stroke: #000000; stroke-width: 0.8"/>
      </g>
     </g>
     <g id="text_3">
      <!-- 40 -->
      <g transform="translate(153.580843 322.182437) scale(0.1 -0.1)">
       <defs>
        <path id="DejaVuSans-34" d="M 2419 4116 
L 825 1625 
L 2419 1625 
L 2419 4116 
z
M 2253 4666 
L 3047 4666 
L 3047 1625 
L 3713 1625 
L 3713 1100 
L 3047 1100 
L 3047 0 
L 2419 0 
L 2419 1100 
L 313 1100 
L 313 1709 
L 2253 4666 
z
" transform="scale(0.015625)"/>
       </defs>
       <use xlink:href="#DejaVuSans-34"/>
       <use xlink:href="#DejaVuSans-30" x="63.623047"/>
      </g>
     </g>
    </g>
    <g id="xtick_4">
     <g id="line2d_4">
      <g>
       <use xlink:href="#m7719e1ac1f" x="203.325994" y="307.584" style="stroke: #000000; stroke-width: 0.8"/>
      </g>
     </g>
     <g id="text_4">
      <!-- 60 -->
      <g transform="translate(196.963494 322.182437) scale(0.1 -0.1)">
       <defs>
        <path id="DejaVuSans-36" d="M 2113 2584 
Q 1688 2584 1439 2293 
Q 1191 2003 1191 1497 
Q 1191 994 1439 701 
Q 1688 409 2113 409 
Q 2538 409 2786 701 
Q 3034 994 3034 1497 
Q 3034 2003 2786 2293 
Q 2538 2584 2113 2584 
z
M 3366 4563 
L 3366 3988 
Q 3128 4100 2886 4159 
Q 2644 4219 2406 4219 
Q 1781 4219 1451 3797 
Q 1122 3375 1075 2522 
Q 1259 2794 1537 2939 
Q 1816 3084 2150 3084 
Q 2853 3084 3261 2657 
Q 3669 2231 3669 1497 
Q 3669 778 3244 343 
Q 2819 -91 2113 -91 
Q 1303 -91 875 529 
Q 447 1150 447 2328 
Q 447 3434 972 4092 
Q 1497 4750 2381 4750 
Q 2619 4750 2861 4703 
Q 3103 4656 3366 4563 
z
" transform="scale(0.015625)"/>
       </defs>
       <use xlink:href="#DejaVuSans-36"/>
       <use xlink:href="#DejaVuSans-30" x="63.623047"/>
      </g>
     </g>
    </g>
    <g id="xtick_5">
     <g id="line2d_5">
      <g>
       <use xlink:href="#m7719e1ac1f" x="246.708646" y="307.584" style="stroke: #000000; stroke-width: 0.8"/>
      </g>
     </g>
     <g id="text_5">
      <!-- 80 -->
      <g transform="translate(240.346146 322.182437) scale(0.1 -0.1)">
       <defs>
        <path id="DejaVuSans-38" d="M 2034 2216 
Q 1584 2216 1326 1975 
Q 1069 1734 1069 1313 
Q 1069 891 1326 650 
Q 1584 409 2034 409 
Q 2484 409 2743 651 
Q 3003 894 3003 1313 
Q 3003 1734 2745 1975 
Q 2488 2216 2034 2216 
z
M 1403 2484 
Q 997 2584 770 2862 
Q 544 3141 544 3541 
Q 544 4100 942 4425 
Q 1341 4750 2034 4750 
Q 2731 4750 3128 4425 
Q 3525 4100 3525 3541 
Q 3525 3141 3298 2862 
Q 3072 2584 2669 2484 
Q 3125 2378 3379 2068 
Q 3634 1759 3634 1313 
Q 3634 634 3220 271 
Q 2806 -91 2034 -91 
Q 1263 -91 848 271 
Q 434 634 434 1313 
Q 434 1759 690 2068 
Q 947 2378 1403 2484 
z
M 1172 3481 
Q 1172 3119 1398 2916 
Q 1625 2713 2034 2713 
Q 2441 2713 2670 2916 
Q 2900 3119 2900 3481 
Q 2900 3844 2670 4047 
Q 2441 4250 2034 4250 
Q 1625 4250 1398 4047 
Q 1172 3844 1172 3481 
z
" transform="scale(0.015625)"/>
       </defs>
       <use xlink:href="#DejaVuSans-38"/>
       <use xlink:href="#DejaVuSans-30" x="63.623047"/>
      </g>
     </g>
    </g>
    <g id="xtick_6">
     <g id="line2d_6">
      <g>
       <use xlink:href="#m7719e1ac1f" x="290.091298" y="307.584" style="stroke: #000000; stroke-width: 0.8"/>
      </g>
     </g>
     <g id="text_6">
      <!-- 100 -->
      <g transform="translate(280.547548 322.182437) scale(0.1 -0.1)">
       <defs>
        <path id="DejaVuSans-31" d="M 794 531 
L 1825 531 
L 1825 4091 
L 703 3866 
L 703 4441 
L 1819 4666 
L 2450 4666 
L 2450 531 
L 3481 531 
L 3481 0 
L 794 0 
L 794 531 
z
" transform="scale(0.015625)"/>
       </defs>
       <use xlink:href="#DejaVuSans-31"/>
       <use xlink:href="#DejaVuSans-30" x="63.623047"/>
       <use xlink:href="#DejaVuSans-30" x="127.246094"/>
      </g>
     </g>
    </g>
    <g id="xtick_7">
     <g id="line2d_7">
      <g>
       <use xlink:href="#m7719e1ac1f" x="333.473949" y="307.584" style="stroke: #000000; stroke-width: 0.8"/>
      </g>
     </g>
     <g id="text_7">
      <!-- 120 -->
      <g transform="translate(323.930199 322.182437) scale(0.1 -0.1)">
       <use xlink:href="#DejaVuSans-31"/>
       <use xlink:href="#DejaVuSans-32" x="63.623047"/>
       <use xlink:href="#DejaVuSans-30" x="127.246094"/>
      </g>
     </g>
    </g>
    <g id="xtick_8">
     <g id="line2d_8">
      <g>
       <use xlink:href="#m7719e1ac1f" x="376.856601" y="307.584" style="stroke: #000000; stroke-width: 0.8"/>
      </g>
     </g>
     <g id="text_8">
      <!-- 140 -->
      <g transform="translate(367.312851 322.182437) scale(0.1 -0.1)">
       <use xlink:href="#DejaVuSans-31"/>
       <use xlink:href="#DejaVuSans-34" x="63.623047"/>
       <use xlink:href="#DejaVuSans-30" x="127.246094"/>
      </g>
     </g>
    </g>
   </g>
   <g id="matplotlib.axis_2">
    <g id="ytick_1">
     <g id="line2d_9">
      <defs>
       <path id="mc5fb6aa4a3" d="M 0 0 
L -3.5 0 
" style="stroke: #000000; stroke-width: 0.8"/>
      </defs>
      <g>
       <use xlink:href="#mc5fb6aa4a3" x="57.6" y="271.792905" style="stroke: #000000; stroke-width: 0.8"/>
      </g>
     </g>
     <g id="text_9">
      <!-- 100 -->
      <g transform="translate(31.5125 275.592124) scale(0.1 -0.1)">
       <use xlink:href="#DejaVuSans-31"/>
       <use xlink:href="#DejaVuSans-30" x="63.623047"/>
       <use xlink:href="#DejaVuSans-30" x="127.246094"/>
      </g>
     </g>
    </g>
    <g id="ytick_2">
     <g id="line2d_10">
      <g>
       <use xlink:href="#mc5fb6aa4a3" x="57.6" y="233.91359" style="stroke: #000000; stroke-width: 0.8"/>
      </g>
     </g>
     <g id="text_10">
      <!-- 120 -->
      <g transform="translate(31.5125 237.712809) scale(0.1 -0.1)">
       <use xlink:href="#DejaVuSans-31"/>
       <use xlink:href="#DejaVuSans-32" x="63.623047"/>
       <use xlink:href="#DejaVuSans-30" x="127.246094"/>
      </g>
     </g>
    </g>
    <g id="ytick_3">
     <g id="line2d_11">
      <g>
       <use xlink:href="#mc5fb6aa4a3" x="57.6" y="196.034275" style="stroke: #000000; stroke-width: 0.8"/>
      </g>
     </g>
     <g id="text_11">
      <!-- 140 -->
      <g transform="translate(31.5125 199.833494) scale(0.1 -0.1)">
       <use xlink:href="#DejaVuSans-31"/>
       <use xlink:href="#DejaVuSans-34" x="63.623047"/>
       <use xlink:href="#DejaVuSans-30" x="127.246094"/>
      </g>
     </g>
    </g>
    <g id="ytick_4">
     <g id="line2d_12">
      <g>
       <use xlink:href="#mc5fb6aa4a3" x="57.6" y="158.154961" style="stroke: #000000; stroke-width: 0.8"/>
      </g>
     </g>
     <g id="text_12">
      <!-- 160 -->
      <g transform="translate(31.5125 161.954179) scale(0.1 -0.1)">
       <use xlink:href="#DejaVuSans-31"/>
       <use xlink:href="#DejaVuSans-36" x="63.623047"/>
       <use xlink:href="#DejaVuSans-30" x="127.246094"/>
      </g>
     </g>
    </g>
    <g id="ytick_5">
     <g id="line2d_13">
      <g>
       <use xlink:href="#mc5fb6aa4a3" x="57.6" y="120.275646" style="stroke: #000000; stroke-width: 0.8"/>
      </g>
     </g>
     <g id="text_13">
      <!-- 180 -->
      <g transform="translate(31.5125 124.074864) scale(0.1 -0.1)">
       <use xlink:href="#DejaVuSans-31"/>
       <use xlink:href="#DejaVuSans-38" x="63.623047"/>
       <use xlink:href="#DejaVuSans-30" x="127.246094"/>
      </g>
     </g>
    </g>
    <g id="ytick_6">
     <g id="line2d_14">
      <g>
       <use xlink:href="#mc5fb6aa4a3" x="57.6" y="82.396331" style="stroke: #000000; stroke-width: 0.8"/>
      </g>
     </g>
     <g id="text_14">
      <!-- 200 -->
      <g transform="translate(31.5125 86.19555) scale(0.1 -0.1)">
       <use xlink:href="#DejaVuSans-32"/>
       <use xlink:href="#DejaVuSans-30" x="63.623047"/>
       <use xlink:href="#DejaVuSans-30" x="127.246094"/>
      </g>
     </g>
    </g>
    <g id="ytick_7">
     <g id="line2d_15">
      <g>
       <use xlink:href="#mc5fb6aa4a3" x="57.6" y="44.517016" style="stroke: #000000; stroke-width: 0.8"/>
      </g>
     </g>
     <g id="text_15">
      <!-- 220 -->
      <g transform="translate(31.5125 48.316235) scale(0.1 -0.1)">
       <use xlink:href="#DejaVuSans-32"/>
       <use xlink:href="#DejaVuSans-32" x="63.623047"/>
       <use xlink:href="#DejaVuSans-30" x="127.246094"/>
      </g>
     </g>
    </g>
   </g>
   <g id="line2d_16">
    <path d="M 57.6 208.592577 
L 414.72 208.592577 
" clip-path="url(#pa64ca915bd)" style="fill: none; stroke: #1f77b4; stroke-width: 1.5; stroke-linecap: square"/>
   </g>
   <g id="patch_3">
    <path d="M 57.6 307.584 
L 57.6 41.472 
" style="fill: none; stroke: #000000; stroke-width: 0.8; stroke-linejoin: miter; stroke-linecap: square"/>
   </g>
   <g id="patch_4">
    <path d="M 414.72 307.584 
L 414.72 41.472 
" style="fill: none; stroke: #000000; stroke-width: 0.8; stroke-linejoin: miter; stroke-linecap: square"/>
   </g>
   <g id="patch_5">
    <path d="M 57.6 307.584 
L 414.72 307.584 
" style="fill: none; stroke: #000000; stroke-width: 0.8; stroke-linejoin: miter; stroke-linecap: square"/>
   </g>
   <g id="patch_6">
    <path d="M 57.6 41.472 
L 414.72 41.472 
" style="fill: none; stroke: #000000; stroke-width: 0.8; stroke-linejoin: miter; stroke-linecap: square"/>
   </g>
  </g>
 </g>
 <defs>
  <clipPath id="pa64ca915bd">
   <rect x="57.6" y="41.472" width="357.12" height="266.112"/>
  </clipPath>
 </defs>
</svg>
