<svg xmlns="http://www.w3.org/2000/svg" xmlns:xlink="http://www.w3.org/1999/xlink" width="1784pt" height="629pt" viewBox="0.00 0.00 1784.00 629.00"><script xmlns=""/>
<g id="graph0" class="graph" transform="scale(1 1) rotate(0) translate(4 625)">
<title>G</title>
<polygon fill="white" stroke="transparent" points="-4,4 -4,-625 1780,-625 1780,4 -4,4"/>
<!-- [3.0..105.0, 3.0..105.0] -->
<g id="node1" class="node">
<title>[3.0..105.0, 3.0..105.0]</title>
<polygon fill="none" stroke="black" points="266,-337 0,-337 0,-284 266,-284 266,-337"/>
<text text-anchor="middle" x="133" y="-321.8" font-family="Times,serif" font-size="14.00">borders: [[3.0, 105.0], [3.0, 105.0]]</text>
<text text-anchor="middle" x="133" y="-306.8" font-family="Times,serif" font-size="14.00">sp: 64.37</text>
<text text-anchor="middle" x="133" y="-291.8" font-family="Times,serif" font-size="14.00">dim: 1</text>
</g>
<!-- [102.0..105.0, 3.0..7.0] -->
<g id="node2" class="node">
<title>[102.0..105.0, 3.0..7.0]</title>
<polygon fill="none" stroke="black" points="568,-444 302,-444 302,-391 568,-391 568,-444"/>
<text text-anchor="middle" x="435" y="-428.8" font-family="Times,serif" font-size="14.00">borders: [[102.0, 105.0], [3.0, 7.0]]</text>
<text text-anchor="middle" x="435" y="-413.8" font-family="Times,serif" font-size="14.00">sp: 4.35</text>
<text text-anchor="middle" x="435" y="-398.8" font-family="Times,serif" font-size="14.00">dim: 1</text>
</g>
<!-- [3.0..105.0, 3.0..105.0]&#45;&gt;[102.0..105.0, 3.0..7.0] -->
<g id="edge1" class="edge">
<title>[3.0..105.0, 3.0..105.0]-&gt;[102.0..105.0, 3.0..7.0]</title>
<path fill="none" stroke="black" d="M208.54,-337.09C251.47,-352.4 305.54,-371.68 349.97,-387.53" stroke-width="1"/>
<polygon fill="none" stroke="black" points="348.99,-390.89 359.58,-390.96 351.34,-384.3 348.99,-390.89"/>
</g>
<!-- [3.0..7.0, 102.0..105.0] -->
<g id="node13" class="node">
<title>[3.0..7.0, 102.0..105.0]</title>
<polygon fill="none" stroke="black" points="568,-231 302,-231 302,-178 568,-178 568,-231"/>
<text text-anchor="middle" x="435" y="-215.8" font-family="Times,serif" font-size="14.00">borders: [[3.0, 7.0], [102.0, 105.0]]</text>
<text text-anchor="middle" x="435" y="-200.8" font-family="Times,serif" font-size="14.00">sp: 103.14</text>
<text text-anchor="middle" x="435" y="-185.8" font-family="Times,serif" font-size="14.00">dim: 1</text>
</g>
<!-- [3.0..105.0, 3.0..105.0]&#45;&gt;[3.0..7.0, 102.0..105.0] -->
<g id="edge2" class="edge">
<title>[3.0..105.0, 3.0..105.0]-&gt;[3.0..7.0, 102.0..105.0]</title>
<path fill="none" stroke="black" d="M209.32,-283.89C251.92,-268.83 305.33,-249.96 349.38,-234.4"/>
<polygon fill="black" stroke="black" points="350.65,-237.66 358.91,-231.03 348.32,-231.06 350.65,-237.66"/>
</g>
<!-- [102.0..103.0, 3.0..4.0] -->
<g id="node3" class="node">
<title>[102.0..103.0, 3.0..4.0]</title>
<polygon fill="none" stroke="black" points="870,-550 604,-550 604,-497 870,-497 870,-550"/>
<text text-anchor="middle" x="737" y="-534.8" font-family="Times,serif" font-size="14.00">borders: [[102.0, 103.0], [3.0, 4.0]]</text>
<text text-anchor="middle" x="737" y="-519.8" font-family="Times,serif" font-size="14.00">sp: 3.1</text>
<text text-anchor="middle" x="737" y="-504.8" font-family="Times,serif" font-size="14.00">dim: 1</text>
</g>
<!-- [102.0..105.0, 3.0..7.0]&#45;&gt;[102.0..103.0, 3.0..4.0] -->
<g id="edge3" class="edge">
<title>[102.0..105.0, 3.0..7.0]-&gt;[102.0..103.0, 3.0..4.0]</title>
<path fill="none" stroke="black" d="M511.32,-444.11C553.92,-459.17 607.33,-478.04 651.38,-493.6"/>
<polygon fill="black" stroke="black" points="650.32,-496.94 660.91,-496.97 652.65,-490.34 650.32,-496.94"/>
</g>
<!-- [102.0..105.0, 5.0..7.0] -->
<g id="node6" class="node">
<title>[102.0..105.0, 5.0..7.0]</title>
<polygon fill="none" stroke="black" points="870,-444 604,-444 604,-391 870,-391 870,-444"/>
<text text-anchor="middle" x="737" y="-428.8" font-family="Times,serif" font-size="14.00">borders: [[102.0, 105.0], [5.0, 7.0]]</text>
<text text-anchor="middle" x="737" y="-413.8" font-family="Times,serif" font-size="14.00">sp: 5.16</text>
<text text-anchor="middle" x="737" y="-398.8" font-family="Times,serif" font-size="14.00">dim: 1</text>
</g>
<!-- [102.0..105.0, 3.0..7.0]&#45;&gt;[102.0..105.0, 5.0..7.0] -->
<g id="edge4" class="edge">
<title>[102.0..105.0, 3.0..7.0]-&gt;[102.0..105.0, 5.0..7.0]</title>
<path fill="none" stroke="black" d="M568.02,-417.5C576.4,-417.5 584.86,-417.5 593.29,-417.5"/>
<polygon fill="none" stroke="black" points="593.54,-421 603.54,-417.5 593.54,-414 593.54,-421"/>
</g>
<!-- [102.0..102.0, 3.0..3.0] -->
<g id="node4" class="node">
<title>[102.0..102.0, 3.0..3.0]</title>
<polygon fill="none" stroke="black" points="1172,-621 906,-621 906,-568 1172,-568 1172,-621"/>
<text text-anchor="middle" x="1039" y="-605.8" font-family="Times,serif" font-size="14.00">borders: [[102.0, 102.0], [3.0, 3.0]]</text>
<text text-anchor="middle" x="1039" y="-590.8" font-family="Times,serif" font-size="14.00">path_length: 3</text>
<text text-anchor="middle" x="1039" y="-575.8" font-family="Times,serif" font-size="14.00">depth: 3</text>
</g>
<!-- [102.0..103.0, 3.0..4.0]&#45;&gt;[102.0..102.0, 3.0..3.0] -->
<g id="edge5" class="edge">
<title>[102.0..103.0, 3.0..4.0]-&gt;[102.0..102.0, 3.0..3.0]</title>
<path fill="none" stroke="black" d="M850.14,-550.04C871.64,-555.13 894.25,-560.48 916.05,-565.64"/>
<polygon fill="black" stroke="black" points="915.46,-569.1 926,-567.99 917.08,-562.28 915.46,-569.1"/>
</g>
<!-- [103.0..103.0, 4.0..4.0] -->
<g id="node5" class="node">
<title>[103.0..103.0, 4.0..4.0]</title>
<polygon fill="none" stroke="black" points="1172,-550 906,-550 906,-497 1172,-497 1172,-550"/>
<text text-anchor="middle" x="1039" y="-534.8" font-family="Times,serif" font-size="14.00">borders: [[103.0, 103.0], [4.0, 4.0]]</text>
<text text-anchor="middle" x="1039" y="-519.8" font-family="Times,serif" font-size="14.00">path_length: 3</text>
<text text-anchor="middle" x="1039" y="-504.8" font-family="Times,serif" font-size="14.00">depth: 3</text>
</g>
<!-- [102.0..103.0, 3.0..4.0]&#45;&gt;[103.0..103.0, 4.0..4.0] -->
<g id="edge6" class="edge">
<title>[102.0..103.0, 3.0..4.0]-&gt;[103.0..103.0, 4.0..4.0]</title>
<path fill="none" stroke="black" d="M870.02,-523.5C878.4,-523.5 886.86,-523.5 895.29,-523.5"/>
<polygon fill="black" stroke="black" points="895.54,-527 905.54,-523.5 895.54,-520 895.54,-527"/>
</g>
<!-- [102.0..105.0, 5.0..5.0] -->
<g id="node7" class="node">
<title>[102.0..105.0, 5.0..5.0]</title>
<polygon fill="none" stroke="black" points="1172,-479 906,-479 906,-426 1172,-426 1172,-479"/>
<text text-anchor="middle" x="1039" y="-463.8" font-family="Times,serif" font-size="14.00">borders: [[102.0, 105.0], [5.0, 5.0]]</text>
<text text-anchor="middle" x="1039" y="-448.8" font-family="Times,serif" font-size="14.00">sp: 103.94</text>
<text text-anchor="middle" x="1039" y="-433.8" font-family="Times,serif" font-size="14.00">dim: 0</text>
</g>
<!-- [102.0..105.0, 5.0..7.0]&#45;&gt;[102.0..105.0, 5.0..5.0] -->
<g id="edge7" class="edge">
<title>[102.0..105.0, 5.0..7.0]-&gt;[102.0..105.0, 5.0..5.0]</title>
<path fill="none" stroke="black" d="M870.02,-432.9C878.49,-433.89 887.05,-434.89 895.57,-435.88"/>
<polygon fill="none" stroke="black" points="895.21,-439.36 905.54,-437.05 896.02,-432.41 895.21,-439.36"/>
</g>
<!-- [102.0..103.0, 6.0..7.0] -->
<g id="node10" class="node">
<title>[102.0..103.0, 6.0..7.0]</title>
<polygon fill="none" stroke="black" points="1172,-408 906,-408 906,-355 1172,-355 1172,-408"/>
<text text-anchor="middle" x="1039" y="-392.8" font-family="Times,serif" font-size="14.00">borders: [[102.0, 103.0], [6.0, 7.0]]</text>
<text text-anchor="middle" x="1039" y="-377.8" font-family="Times,serif" font-size="14.00">sp: 6.27</text>
<text text-anchor="middle" x="1039" y="-362.8" font-family="Times,serif" font-size="14.00">dim: 1</text>
</g>
<!-- [102.0..105.0, 5.0..7.0]&#45;&gt;[102.0..103.0, 6.0..7.0] -->
<g id="edge8" class="edge">
<title>[102.0..105.0, 5.0..7.0]-&gt;[102.0..103.0, 6.0..7.0]</title>
<path fill="none" stroke="black" d="M870.02,-401.66C878.49,-400.64 887.05,-399.61 895.57,-398.59"/>
<polygon fill="black" stroke="black" points="896.03,-402.06 905.54,-397.39 895.2,-395.11 896.03,-402.06"/>
</g>
<!-- [102.0..102.0, 5.0..5.0] -->
<g id="node8" class="node">
<title>[102.0..102.0, 5.0..5.0]</title>
<polygon fill="lightgray" stroke="black" points="1474,-550 1208,-550 1208,-497 1474,-497 1474,-550"/>
<text text-anchor="middle" x="1341" y="-534.8" font-family="Times,serif" font-size="14.00">borders: [[102.0, 102.0], [5.0, 5.0]]</text>
<text text-anchor="middle" x="1341" y="-519.8" font-family="Times,serif" font-size="14.00">path_length: 4</text>
<text text-anchor="middle" x="1341" y="-504.8" font-family="Times,serif" font-size="14.00">depth: 4</text>
</g>
<!-- [102.0..105.0, 5.0..5.0]&#45;&gt;[102.0..102.0, 5.0..5.0] -->
<g id="edge9" class="edge">
<title>[102.0..105.0, 5.0..5.0]-&gt;[102.0..102.0, 5.0..5.0]</title>
<path fill="none" stroke="black" d="M1152.14,-479.04C1173.64,-484.13 1196.25,-489.48 1218.05,-494.64"/>
<polygon fill="none" stroke="black" points="1217.46,-498.1 1228,-496.99 1219.08,-491.28 1217.46,-498.1"/>
</g>
<!-- [105.0..105.0, 5.0..5.0] -->
<g id="node9" class="node">
<title>[105.0..105.0, 5.0..5.0]</title>
<polygon fill="none" stroke="black" points="1474,-479 1208,-479 1208,-426 1474,-426 1474,-479"/>
<text text-anchor="middle" x="1341" y="-463.8" font-family="Times,serif" font-size="14.00">borders: [[105.0, 105.0], [5.0, 5.0]]</text>
<text text-anchor="middle" x="1341" y="-448.8" font-family="Times,serif" font-size="14.00">path_length: 4</text>
<text text-anchor="middle" x="1341" y="-433.8" font-family="Times,serif" font-size="14.00">depth: 4</text>
</g>
<!-- [102.0..105.0, 5.0..5.0]&#45;&gt;[105.0..105.0, 5.0..5.0] -->
<g id="edge10" class="edge">
<title>[102.0..105.0, 5.0..5.0]-&gt;[105.0..105.0, 5.0..5.0]</title>
<path fill="none" stroke="black" d="M1172.02,-452.5C1180.4,-452.5 1188.86,-452.5 1197.29,-452.5"/>
<polygon fill="black" stroke="black" points="1197.54,-456 1207.54,-452.5 1197.54,-449 1197.54,-456"/>
</g>
<!-- [103.0..103.0, 6.0..6.0] -->
<g id="node11" class="node">
<title>[103.0..103.0, 6.0..6.0]</title>
<polygon fill="none" stroke="black" points="1474,-408 1208,-408 1208,-355 1474,-355 1474,-408"/>
<text text-anchor="middle" x="1341" y="-392.8" font-family="Times,serif" font-size="14.00">borders: [[103.0, 103.0], [6.0, 6.0]]</text>
<text text-anchor="middle" x="1341" y="-377.8" font-family="Times,serif" font-size="14.00">path_length: 4</text>
<text text-anchor="middle" x="1341" y="-362.8" font-family="Times,serif" font-size="14.00">depth: 4</text>
</g>
<!-- [102.0..103.0, 6.0..7.0]&#45;&gt;[103.0..103.0, 6.0..6.0] -->
<g id="edge11" class="edge">
<title>[102.0..103.0, 6.0..7.0]-&gt;[103.0..103.0, 6.0..6.0]</title>
<path fill="none" stroke="black" d="M1172.02,-381.5C1180.4,-381.5 1188.86,-381.5 1197.29,-381.5"/>
<polygon fill="black" stroke="black" points="1197.54,-385 1207.54,-381.5 1197.54,-378 1197.54,-385"/>
</g>
<!-- [102.0..102.0, 7.0..7.0] -->
<g id="node12" class="node">
<title>[102.0..102.0, 7.0..7.0]</title>
<polygon fill="none" stroke="black" points="1474,-337 1208,-337 1208,-284 1474,-284 1474,-337"/>
<text text-anchor="middle" x="1341" y="-321.8" font-family="Times,serif" font-size="14.00">borders: [[102.0, 102.0], [7.0, 7.0]]</text>
<text text-anchor="middle" x="1341" y="-306.8" font-family="Times,serif" font-size="14.00">path_length: 4</text>
<text text-anchor="middle" x="1341" y="-291.8" font-family="Times,serif" font-size="14.00">depth: 4</text>
</g>
<!-- [102.0..103.0, 6.0..7.0]&#45;&gt;[102.0..102.0, 7.0..7.0] -->
<g id="edge12" class="edge">
<title>[102.0..103.0, 6.0..7.0]-&gt;[102.0..102.0, 7.0..7.0]</title>
<path fill="none" stroke="black" d="M1152.14,-354.96C1173.64,-349.87 1196.25,-344.52 1218.05,-339.36"/>
<polygon fill="black" stroke="black" points="1219.08,-342.72 1228,-337.01 1217.46,-335.9 1219.08,-342.72"/>
</g>
<!-- [3.0..7.0, 102.0..103.0] -->
<g id="node14" class="node">
<title>[3.0..7.0, 102.0..103.0]</title>
<polygon fill="none" stroke="black" points="870,-231 604,-231 604,-178 870,-178 870,-231"/>
<text text-anchor="middle" x="737" y="-215.8" font-family="Times,serif" font-size="14.00">borders: [[3.0, 7.0], [102.0, 103.0]]</text>
<text text-anchor="middle" x="737" y="-200.8" font-family="Times,serif" font-size="14.00">sp: 102.07</text>
<text text-anchor="middle" x="737" y="-185.8" font-family="Times,serif" font-size="14.00">dim: 1</text>
</g>
<!-- [3.0..7.0, 102.0..105.0]&#45;&gt;[3.0..7.0, 102.0..103.0] -->
<g id="edge13" class="edge">
<title>[3.0..7.0, 102.0..105.0]-&gt;[3.0..7.0, 102.0..103.0]</title>
<path fill="none" stroke="black" d="M568.02,-204.5C576.4,-204.5 584.86,-204.5 593.29,-204.5"/>
<polygon fill="black" stroke="black" points="593.54,-208 603.54,-204.5 593.54,-201 593.54,-208"/>
</g>
<!-- [5.0..5.0, 105.0..105.0] -->
<g id="node23" class="node">
<title>[5.0..5.0, 105.0..105.0]</title>
<polygon fill="none" stroke="black" points="870,-160 604,-160 604,-107 870,-107 870,-160"/>
<text text-anchor="middle" x="737" y="-144.8" font-family="Times,serif" font-size="14.00">borders: [[5.0, 5.0], [105.0, 105.0]]</text>
<text text-anchor="middle" x="737" y="-129.8" font-family="Times,serif" font-size="14.00">path_length: 2</text>
<text text-anchor="middle" x="737" y="-114.8" font-family="Times,serif" font-size="14.00">depth: 2</text>
</g>
<!-- [3.0..7.0, 102.0..105.0]&#45;&gt;[5.0..5.0, 105.0..105.0] -->
<g id="edge14" class="edge">
<title>[3.0..7.0, 102.0..105.0]-&gt;[5.0..5.0, 105.0..105.0]</title>
<path fill="none" stroke="black" d="M548.14,-177.96C569.64,-172.87 592.25,-167.52 614.05,-162.36"/>
<polygon fill="black" stroke="black" points="615.08,-165.72 624,-160.01 613.46,-158.9 615.08,-165.72"/>
</g>
<!-- [3.0..7.0, 102.0..102.0] -->
<g id="node15" class="node">
<title>[3.0..7.0, 102.0..102.0]</title>
<polygon fill="none" stroke="black" points="1172,-231 906,-231 906,-178 1172,-178 1172,-231"/>
<text text-anchor="middle" x="1039" y="-215.8" font-family="Times,serif" font-size="14.00">borders: [[3.0, 7.0], [102.0, 102.0]]</text>
<text text-anchor="middle" x="1039" y="-200.8" font-family="Times,serif" font-size="14.00">sp: 6.07</text>
<text text-anchor="middle" x="1039" y="-185.8" font-family="Times,serif" font-size="14.00">dim: 0</text>
</g>
<!-- [3.0..7.0, 102.0..103.0]&#45;&gt;[3.0..7.0, 102.0..102.0] -->
<g id="edge15" class="edge">
<title>[3.0..7.0, 102.0..103.0]-&gt;[3.0..7.0, 102.0..102.0]</title>
<path fill="none" stroke="black" d="M870.02,-204.5C878.4,-204.5 886.86,-204.5 895.29,-204.5"/>
<polygon fill="black" stroke="black" points="895.54,-208 905.54,-204.5 895.54,-201 895.54,-208"/>
</g>
<!-- [4.0..6.0, 103.0..103.0] -->
<g id="node20" class="node">
<title>[4.0..6.0, 103.0..103.0]</title>
<polygon fill="none" stroke="black" points="1172,-124 906,-124 906,-71 1172,-71 1172,-124"/>
<text text-anchor="middle" x="1039" y="-108.8" font-family="Times,serif" font-size="14.00">borders: [[4.0, 6.0], [103.0, 103.0]]</text>
<text text-anchor="middle" x="1039" y="-93.8" font-family="Times,serif" font-size="14.00">sp: 5.58</text>
<text text-anchor="middle" x="1039" y="-78.8" font-family="Times,serif" font-size="14.00">dim: 0</text>
</g>
<!-- [3.0..7.0, 102.0..103.0]&#45;&gt;[4.0..6.0, 103.0..103.0] -->
<g id="edge16" class="edge">
<title>[3.0..7.0, 102.0..103.0]-&gt;[4.0..6.0, 103.0..103.0]</title>
<path fill="none" stroke="black" d="M840.74,-177.93C850.68,-174.92 860.57,-171.76 870,-168.5 903.9,-156.77 940.69,-141.52 971.18,-128.16"/>
<polygon fill="black" stroke="black" points="972.69,-131.32 980.43,-124.08 969.87,-124.92 972.69,-131.32"/>
</g>
<!-- [3.0..5.0, 102.0..102.0] -->
<g id="node16" class="node">
<title>[3.0..5.0, 102.0..102.0]</title>
<polygon fill="none" stroke="black" points="1474,-266 1208,-266 1208,-213 1474,-213 1474,-266"/>
<text text-anchor="middle" x="1341" y="-250.8" font-family="Times,serif" font-size="14.00">borders: [[3.0, 5.0], [102.0, 102.0]]</text>
<text text-anchor="middle" x="1341" y="-235.8" font-family="Times,serif" font-size="14.00">sp: 4.68</text>
<text text-anchor="middle" x="1341" y="-220.8" font-family="Times,serif" font-size="14.00">dim: 0</text>
</g>
<!-- [3.0..7.0, 102.0..102.0]&#45;&gt;[3.0..5.0, 102.0..102.0] -->
<g id="edge17" class="edge">
<title>[3.0..7.0, 102.0..102.0]-&gt;[3.0..5.0, 102.0..102.0]</title>
<path fill="none" stroke="black" d="M1172.02,-219.9C1180.49,-220.89 1189.05,-221.89 1197.57,-222.88"/>
<polygon fill="black" stroke="black" points="1197.21,-226.36 1207.54,-224.05 1198.02,-219.41 1197.21,-226.36"/>
</g>
<!-- [7.0..7.0, 102.0..102.0] -->
<g id="node19" class="node">
<title>[7.0..7.0, 102.0..102.0]</title>
<polygon fill="none" stroke="black" points="1474,-195 1208,-195 1208,-142 1474,-142 1474,-195"/>
<text text-anchor="middle" x="1341" y="-179.8" font-family="Times,serif" font-size="14.00">borders: [[7.0, 7.0], [102.0, 102.0]]</text>
<text text-anchor="middle" x="1341" y="-164.8" font-family="Times,serif" font-size="14.00">path_length: 4</text>
<text text-anchor="middle" x="1341" y="-149.8" font-family="Times,serif" font-size="14.00">depth: 4</text>
</g>
<!-- [3.0..7.0, 102.0..102.0]&#45;&gt;[7.0..7.0, 102.0..102.0] -->
<g id="edge18" class="edge">
<title>[3.0..7.0, 102.0..102.0]-&gt;[7.0..7.0, 102.0..102.0]</title>
<path fill="none" stroke="black" d="M1172.02,-188.66C1180.49,-187.64 1189.05,-186.61 1197.57,-185.59"/>
<polygon fill="black" stroke="black" points="1198.03,-189.06 1207.54,-184.39 1197.2,-182.11 1198.03,-189.06"/>
</g>
<!-- [3.0..3.0, 102.0..102.0] -->
<g id="node17" class="node">
<title>[3.0..3.0, 102.0..102.0]</title>
<polygon fill="none" stroke="black" points="1776,-301 1510,-301 1510,-248 1776,-248 1776,-301"/>
<text text-anchor="middle" x="1643" y="-285.8" font-family="Times,serif" font-size="14.00">borders: [[3.0, 3.0], [102.0, 102.0]]</text>
<text text-anchor="middle" x="1643" y="-270.8" font-family="Times,serif" font-size="14.00">path_length: 5</text>
<text text-anchor="middle" x="1643" y="-255.8" font-family="Times,serif" font-size="14.00">depth: 5</text>
</g>
<!-- [3.0..5.0, 102.0..102.0]&#45;&gt;[3.0..3.0, 102.0..102.0] -->
<g id="edge19" class="edge">
<title>[3.0..5.0, 102.0..102.0]-&gt;[3.0..3.0, 102.0..102.0]</title>
<path fill="none" stroke="black" d="M1474.02,-254.9C1482.49,-255.89 1491.05,-256.89 1499.57,-257.88"/>
<polygon fill="black" stroke="black" points="1499.21,-261.36 1509.54,-259.05 1500.02,-254.41 1499.21,-261.36"/>
</g>
<!-- [5.0..5.0, 102.0..102.0] -->
<g id="node18" class="node">
<title>[5.0..5.0, 102.0..102.0]</title>
<polygon fill="none" stroke="black" points="1776,-230 1510,-230 1510,-177 1776,-177 1776,-230"/>
<text text-anchor="middle" x="1643" y="-214.8" font-family="Times,serif" font-size="14.00">borders: [[5.0, 5.0], [102.0, 102.0]]</text>
<text text-anchor="middle" x="1643" y="-199.8" font-family="Times,serif" font-size="14.00">path_length: 5</text>
<text text-anchor="middle" x="1643" y="-184.8" font-family="Times,serif" font-size="14.00">depth: 5</text>
</g>
<!-- [3.0..5.0, 102.0..102.0]&#45;&gt;[5.0..5.0, 102.0..102.0] -->
<g id="edge20" class="edge">
<title>[3.0..5.0, 102.0..102.0]-&gt;[5.0..5.0, 102.0..102.0]</title>
<path fill="none" stroke="black" d="M1474.02,-223.66C1482.49,-222.64 1491.05,-221.61 1499.57,-220.59"/>
<polygon fill="black" stroke="black" points="1500.03,-224.06 1509.54,-219.39 1499.2,-217.11 1500.03,-224.06"/>
</g>
<!-- [4.0..4.0, 103.0..103.0] -->
<g id="node21" class="node">
<title>[4.0..4.0, 103.0..103.0]</title>
<polygon fill="none" stroke="black" points="1474,-124 1208,-124 1208,-71 1474,-71 1474,-124"/>
<text text-anchor="middle" x="1341" y="-108.8" font-family="Times,serif" font-size="14.00">borders: [[4.0, 4.0], [103.0, 103.0]]</text>
<text text-anchor="middle" x="1341" y="-93.8" font-family="Times,serif" font-size="14.00">path_length: 4</text>
<text text-anchor="middle" x="1341" y="-78.8" font-family="Times,serif" font-size="14.00">depth: 4</text>
</g>
<!-- [4.0..6.0, 103.0..103.0]&#45;&gt;[4.0..4.0, 103.0..103.0] -->
<g id="edge21" class="edge">
<title>[4.0..6.0, 103.0..103.0]-&gt;[4.0..4.0, 103.0..103.0]</title>
<path fill="none" stroke="black" d="M1172.02,-97.5C1180.4,-97.5 1188.86,-97.5 1197.29,-97.5"/>
<polygon fill="black" stroke="black" points="1197.54,-101 1207.54,-97.5 1197.54,-94 1197.54,-101"/>
</g>
<!-- [6.0..6.0, 103.0..103.0] -->
<g id="node22" class="node">
<title>[6.0..6.0, 103.0..103.0]</title>
<polygon fill="none" stroke="black" points="1474,-53 1208,-53 1208,0 1474,0 1474,-53"/>
<text text-anchor="middle" x="1341" y="-37.8" font-family="Times,serif" font-size="14.00">borders: [[6.0, 6.0], [103.0, 103.0]]</text>
<text text-anchor="middle" x="1341" y="-22.8" font-family="Times,serif" font-size="14.00">path_length: 4</text>
<text text-anchor="middle" x="1341" y="-7.8" font-family="Times,serif" font-size="14.00">depth: 4</text>
</g>
<!-- [4.0..6.0, 103.0..103.0]&#45;&gt;[6.0..6.0, 103.0..103.0] -->
<g id="edge22" class="edge">
<title>[4.0..6.0, 103.0..103.0]-&gt;[6.0..6.0, 103.0..103.0]</title>
<path fill="none" stroke="black" d="M1152.14,-70.96C1173.64,-65.87 1196.25,-60.52 1218.05,-55.36"/>
<polygon fill="black" stroke="black" points="1219.08,-58.72 1228,-53.01 1217.46,-51.9 1219.08,-58.72"/>
</g>
</g>
<script xmlns=""/></svg>