<?xml version="1.0" encoding="UTF-8" standalone="no"?>
<!DOCTYPE svg PUBLIC "-//W3C//DTD SVG 1.1//EN"
 "http://www.w3.org/Graphics/SVG/1.1/DTD/svg11.dtd">
<!-- Generated by graphviz version 2.43.0 (0)
 -->
<!-- Title: G Pages: 1 -->
<svg width="2662pt" height="593pt"
 viewBox="0.00 0.00 2662.00 593.00" xmlns="http://www.w3.org/2000/svg" xmlns:xlink="http://www.w3.org/1999/xlink">
<g id="graph0" class="graph" transform="scale(1 1) rotate(0) translate(4 589)">
<title>G</title>
<polygon fill="white" stroke="transparent" points="-4,4 -4,-589 2658,-589 2658,4 -4,4"/>
<!-- [0..110, &#45;5..105] -->
<g id="node1" class="node">
<title>[0..110, &#45;5..105]</title>
<polygon fill="none" stroke="black" points="216,-354 0,-354 0,-301 216,-301 216,-354"/>
<text text-anchor="middle" x="108" y="-338.8" font-family="Times,serif" font-size="14.00">borders: [[0, 110], [&#45;5, 105]]</text>
<text text-anchor="middle" x="108" y="-323.8" font-family="Times,serif" font-size="14.00">sp: 55.0</text>
<text text-anchor="middle" x="108" y="-308.8" font-family="Times,serif" font-size="14.00">dim: 0</text>
</g>
<!-- [0..55.0, &#45;5..105] -->
<g id="node2" class="node">
<title>[0..55.0, &#45;5..105]</title>
<polygon fill="none" stroke="black" points="482,-390 261,-390 261,-337 482,-337 482,-390"/>
<text text-anchor="middle" x="371.5" y="-374.8" font-family="Times,serif" font-size="14.00">borders: [[0, 55.0], [&#45;5, 105]]</text>
<text text-anchor="middle" x="371.5" y="-359.8" font-family="Times,serif" font-size="14.00">sp: 50.0</text>
<text text-anchor="middle" x="371.5" y="-344.8" font-family="Times,serif" font-size="14.00">dim: 1</text>
</g>
<!-- [0..110, &#45;5..105]&#45;&gt;[0..55.0, &#45;5..105] -->
<g id="edge1" class="edge">
<title>[0..110, &#45;5..105]&#45;&gt;[0..55.0, &#45;5..105]</title>
<path fill="none" stroke="black" d="M216.12,-342.25C227.46,-343.81 239.05,-345.4 250.53,-346.98"/>
<polygon fill="white" stroke="black" points="250.2,-350.47 260.58,-348.37 251.15,-343.54 250.2,-350.47"/>
</g>
<!-- [55.0..110, &#45;5..105] -->
<g id="node19" class="node">
<title>[55.0..110, &#45;5..105]</title>
<polygon fill="none" stroke="black" points="491,-319 252,-319 252,-266 491,-266 491,-319"/>
<text text-anchor="middle" x="371.5" y="-303.8" font-family="Times,serif" font-size="14.00">borders: [[55.0, 110], [&#45;5, 105]]</text>
<text text-anchor="middle" x="371.5" y="-288.8" font-family="Times,serif" font-size="14.00">sp: 82.5</text>
<text text-anchor="middle" x="371.5" y="-273.8" font-family="Times,serif" font-size="14.00">dim: 0</text>
</g>
<!-- [0..110, &#45;5..105]&#45;&gt;[55.0..110, &#45;5..105] -->
<g id="edge2" class="edge">
<title>[0..110, &#45;5..105]&#45;&gt;[55.0..110, &#45;5..105]</title>
<path fill="none" stroke="black" d="M216.12,-313.16C224.53,-312.04 233.08,-310.89 241.62,-309.75"/>
<polygon fill="black" stroke="black" points="242.18,-313.21 251.63,-308.41 241.25,-306.27 242.18,-313.21"/>
</g>
<!-- [0..55.0, &#45;5..50.0] -->
<g id="node3" class="node">
<title>[0..55.0, &#45;5..50.0]</title>
<polygon fill="lightgray" stroke="black" points="761,-461 536,-461 536,-408 761,-408 761,-461"/>
<text text-anchor="middle" x="648.5" y="-445.8" font-family="Times,serif" font-size="14.00">borders: [[0, 55.0], [&#45;5, 50.0]]</text>
<text text-anchor="middle" x="648.5" y="-430.8" font-family="Times,serif" font-size="14.00">path_length: 2</text>
<text text-anchor="middle" x="648.5" y="-415.8" font-family="Times,serif" font-size="14.00">depth: 2</text>
</g>
<!-- [0..55.0, &#45;5..105]&#45;&gt;[0..55.0, &#45;5..50.0] -->
<g id="edge3" class="edge">
<title>[0..55.0, &#45;5..105]&#45;&gt;[0..55.0, &#45;5..50.0]</title>
<path fill="none" stroke="black" d="M475.29,-390.04C494.74,-395.06 515.17,-400.34 534.9,-405.43"/>
<polygon fill="white" stroke="black" points="534.28,-408.88 544.83,-407.99 536.03,-402.1 534.28,-408.88"/>
</g>
<!-- [0..55.0, 50.0..105] -->
<g id="node4" class="node">
<title>[0..55.0, 50.0..105]</title>
<polygon fill="none" stroke="black" points="768,-390 529,-390 529,-337 768,-337 768,-390"/>
<text text-anchor="middle" x="648.5" y="-374.8" font-family="Times,serif" font-size="14.00">borders: [[0, 55.0], [50.0, 105]]</text>
<text text-anchor="middle" x="648.5" y="-359.8" font-family="Times,serif" font-size="14.00">sp: 77.5</text>
<text text-anchor="middle" x="648.5" y="-344.8" font-family="Times,serif" font-size="14.00">dim: 1</text>
</g>
<!-- [0..55.0, &#45;5..105]&#45;&gt;[0..55.0, 50.0..105] -->
<g id="edge4" class="edge">
<title>[0..55.0, &#45;5..105]&#45;&gt;[0..55.0, 50.0..105]</title>
<path fill="none" stroke="black" d="M482.37,-363.5C494.29,-363.5 506.51,-363.5 518.63,-363.5"/>
<polygon fill="black" stroke="black" points="518.78,-367 528.78,-363.5 518.78,-360 518.78,-367"/>
</g>
<!-- [0..55.0, 50.0..77.5] -->
<g id="node5" class="node">
<title>[0..55.0, 50.0..77.5]</title>
<polygon fill="none" stroke="black" points="1056,-461 813,-461 813,-408 1056,-408 1056,-461"/>
<text text-anchor="middle" x="934.5" y="-445.8" font-family="Times,serif" font-size="14.00">borders: [[0, 55.0], [50.0, 77.5]]</text>
<text text-anchor="middle" x="934.5" y="-430.8" font-family="Times,serif" font-size="14.00">path_length: 3</text>
<text text-anchor="middle" x="934.5" y="-415.8" font-family="Times,serif" font-size="14.00">depth: 3</text>
</g>
<!-- [0..55.0, 50.0..105]&#45;&gt;[0..55.0, 50.0..77.5] -->
<g id="edge5" class="edge">
<title>[0..55.0, 50.0..105]&#45;&gt;[0..55.0, 50.0..77.5]</title>
<path fill="none" stroke="black" d="M755.65,-390.04C775.83,-395.08 797.04,-400.38 817.5,-405.5"/>
<polygon fill="black" stroke="black" points="816.92,-408.96 827.47,-407.99 818.62,-402.17 816.92,-408.96"/>
</g>
<!-- [0..55.0, 77.5..105] -->
<g id="node6" class="node">
<title>[0..55.0, 77.5..105]</title>
<polygon fill="none" stroke="black" points="1054,-390 815,-390 815,-337 1054,-337 1054,-390"/>
<text text-anchor="middle" x="934.5" y="-374.8" font-family="Times,serif" font-size="14.00">borders: [[0, 55.0], [77.5, 105]]</text>
<text text-anchor="middle" x="934.5" y="-359.8" font-family="Times,serif" font-size="14.00">sp: 91.25</text>
<text text-anchor="middle" x="934.5" y="-344.8" font-family="Times,serif" font-size="14.00">dim: 1</text>
</g>
<!-- [0..55.0, 50.0..105]&#45;&gt;[0..55.0, 77.5..105] -->
<g id="edge6" class="edge">
<title>[0..55.0, 50.0..105]&#45;&gt;[0..55.0, 77.5..105]</title>
<path fill="none" stroke="black" d="M768.3,-363.5C780.29,-363.5 792.51,-363.5 804.6,-363.5"/>
<polygon fill="black" stroke="black" points="804.72,-367 814.72,-363.5 804.72,-360 804.72,-367"/>
</g>
<!-- [0..55.0, 77.5..91.25] -->
<g id="node7" class="node">
<title>[0..55.0, 77.5..91.25]</title>
<polygon fill="none" stroke="black" points="1353.5,-461 1101.5,-461 1101.5,-408 1353.5,-408 1353.5,-461"/>
<text text-anchor="middle" x="1227.5" y="-445.8" font-family="Times,serif" font-size="14.00">borders: [[0, 55.0], [77.5, 91.25]]</text>
<text text-anchor="middle" x="1227.5" y="-430.8" font-family="Times,serif" font-size="14.00">sp: 84.38</text>
<text text-anchor="middle" x="1227.5" y="-415.8" font-family="Times,serif" font-size="14.00">dim: 1</text>
</g>
<!-- [0..55.0, 77.5..105]&#45;&gt;[0..55.0, 77.5..91.25] -->
<g id="edge7" class="edge">
<title>[0..55.0, 77.5..105]&#45;&gt;[0..55.0, 77.5..91.25]</title>
<path fill="none" stroke="black" d="M1044.27,-390.04C1065.04,-395.11 1086.87,-400.43 1107.92,-405.57"/>
<polygon fill="black" stroke="black" points="1107.32,-409.02 1117.86,-407.99 1108.97,-402.22 1107.32,-409.02"/>
</g>
<!-- [0..55.0, 91.25..105] -->
<g id="node18" class="node">
<title>[0..55.0, 91.25..105]</title>
<polygon fill="none" stroke="black" points="1351.5,-390 1103.5,-390 1103.5,-337 1351.5,-337 1351.5,-390"/>
<text text-anchor="middle" x="1227.5" y="-374.8" font-family="Times,serif" font-size="14.00">borders: [[0, 55.0], [91.25, 105]]</text>
<text text-anchor="middle" x="1227.5" y="-359.8" font-family="Times,serif" font-size="14.00">path_length: 4</text>
<text text-anchor="middle" x="1227.5" y="-344.8" font-family="Times,serif" font-size="14.00">depth: 4</text>
</g>
<!-- [0..55.0, 77.5..105]&#45;&gt;[0..55.0, 91.25..105] -->
<g id="edge8" class="edge">
<title>[0..55.0, 77.5..105]&#45;&gt;[0..55.0, 91.25..105]</title>
<path fill="none" stroke="black" d="M1054.28,-363.5C1067.05,-363.5 1080.11,-363.5 1093.04,-363.5"/>
<polygon fill="black" stroke="black" points="1093.37,-367 1103.37,-363.5 1093.37,-360 1093.37,-367"/>
</g>
<!-- [0..55.0, 77.5..84.375] -->
<g id="node8" class="node">
<title>[0..55.0, 77.5..84.375]</title>
<polygon fill="none" stroke="black" points="1655.5,-496 1403.5,-496 1403.5,-443 1655.5,-443 1655.5,-496"/>
<text text-anchor="middle" x="1529.5" y="-480.8" font-family="Times,serif" font-size="14.00">borders: [[0, 55.0], [77.5, 84.38]]</text>
<text text-anchor="middle" x="1529.5" y="-465.8" font-family="Times,serif" font-size="14.00">path_length: 5</text>
<text text-anchor="middle" x="1529.5" y="-450.8" font-family="Times,serif" font-size="14.00">depth: 5</text>
</g>
<!-- [0..55.0, 77.5..91.25]&#45;&gt;[0..55.0, 77.5..84.375] -->
<g id="edge9" class="edge">
<title>[0..55.0, 77.5..91.25]&#45;&gt;[0..55.0, 77.5..84.375]</title>
<path fill="none" stroke="black" d="M1353.55,-449.09C1366.62,-450.61 1379.95,-452.17 1393.13,-453.71"/>
<polygon fill="black" stroke="black" points="1392.83,-457.2 1403.17,-454.88 1393.64,-450.24 1392.83,-457.2"/>
</g>
<!-- [0..55.0, 84.375..91.25] -->
<g id="node9" class="node">
<title>[0..55.0, 84.375..91.25]</title>
<polygon fill="none" stroke="black" points="1660,-425 1399,-425 1399,-372 1660,-372 1660,-425"/>
<text text-anchor="middle" x="1529.5" y="-409.8" font-family="Times,serif" font-size="14.00">borders: [[0, 55.0], [84.38, 91.25]]</text>
<text text-anchor="middle" x="1529.5" y="-394.8" font-family="Times,serif" font-size="14.00">sp: 27.5</text>
<text text-anchor="middle" x="1529.5" y="-379.8" font-family="Times,serif" font-size="14.00">dim: 0</text>
</g>
<!-- [0..55.0, 77.5..91.25]&#45;&gt;[0..55.0, 84.375..91.25] -->
<g id="edge10" class="edge">
<title>[0..55.0, 77.5..91.25]&#45;&gt;[0..55.0, 84.375..91.25]</title>
<path fill="none" stroke="black" d="M1353.55,-419.49C1365.12,-418.11 1376.89,-416.69 1388.57,-415.29"/>
<polygon fill="black" stroke="black" points="1389.3,-418.73 1398.81,-414.06 1388.47,-411.78 1389.3,-418.73"/>
</g>
<!-- [0..27.5, 84.375..91.25] -->
<g id="node10" class="node">
<title>[0..27.5, 84.375..91.25]</title>
<polygon fill="none" stroke="black" points="1975.5,-479 1714.5,-479 1714.5,-426 1975.5,-426 1975.5,-479"/>
<text text-anchor="middle" x="1845" y="-463.8" font-family="Times,serif" font-size="14.00">borders: [[0, 27.5], [84.38, 91.25]]</text>
<text text-anchor="middle" x="1845" y="-448.8" font-family="Times,serif" font-size="14.00">sp: 87.81</text>
<text text-anchor="middle" x="1845" y="-433.8" font-family="Times,serif" font-size="14.00">dim: 1</text>
</g>
<!-- [0..55.0, 84.375..91.25]&#45;&gt;[0..27.5, 84.375..91.25] -->
<g id="edge11" class="edge">
<title>[0..55.0, 84.375..91.25]&#45;&gt;[0..27.5, 84.375..91.25]</title>
<path fill="none" stroke="black" d="M1660.28,-420.85C1674.78,-423.35 1689.61,-425.91 1704.23,-428.43"/>
<polygon fill="black" stroke="black" points="1703.87,-431.91 1714.32,-430.16 1705.06,-425.02 1703.87,-431.91"/>
</g>
<!-- [27.5..55.0, 84.375..91.25] -->
<g id="node15" class="node">
<title>[27.5..55.0, 84.375..91.25]</title>
<polygon fill="none" stroke="black" points="1987,-408 1703,-408 1703,-355 1987,-355 1987,-408"/>
<text text-anchor="middle" x="1845" y="-392.8" font-family="Times,serif" font-size="14.00">borders: [[27.5, 55.0], [84.38, 91.25]]</text>
<text text-anchor="middle" x="1845" y="-377.8" font-family="Times,serif" font-size="14.00">sp: 87.81</text>
<text text-anchor="middle" x="1845" y="-362.8" font-family="Times,serif" font-size="14.00">dim: 1</text>
</g>
<!-- [0..55.0, 84.375..91.25]&#45;&gt;[27.5..55.0, 84.375..91.25] -->
<g id="edge12" class="edge">
<title>[0..55.0, 84.375..91.25]&#45;&gt;[27.5..55.0, 84.375..91.25]</title>
<path fill="none" stroke="black" d="M1660.28,-391.46C1671.04,-390.88 1681.99,-390.29 1692.9,-389.69"/>
<polygon fill="black" stroke="black" points="1693.1,-393.19 1702.9,-389.15 1692.72,-386.2 1693.1,-393.19"/>
</g>
<!-- [0..27.5, 84.375..87.8125] -->
<g id="node11" class="node">
<title>[0..27.5, 84.375..87.8125]</title>
<polygon fill="none" stroke="black" points="2300,-550 2039,-550 2039,-497 2300,-497 2300,-550"/>
<text text-anchor="middle" x="2169.5" y="-534.8" font-family="Times,serif" font-size="14.00">borders: [[0, 27.5], [84.38, 87.81]]</text>
<text text-anchor="middle" x="2169.5" y="-519.8" font-family="Times,serif" font-size="14.00">sp: 86.09</text>
<text text-anchor="middle" x="2169.5" y="-504.8" font-family="Times,serif" font-size="14.00">dim: 1</text>
</g>
<!-- [0..27.5, 84.375..91.25]&#45;&gt;[0..27.5, 84.375..87.8125] -->
<g id="edge13" class="edge">
<title>[0..27.5, 84.375..91.25]&#45;&gt;[0..27.5, 84.375..87.8125]</title>
<path fill="none" stroke="black" d="M1966.55,-479.04C1989.87,-484.17 2014.41,-489.58 2038.04,-494.78"/>
<polygon fill="black" stroke="black" points="2037.58,-498.26 2048.1,-496.99 2039.09,-491.43 2037.58,-498.26"/>
</g>
<!-- [0..27.5, 87.8125..91.25] -->
<g id="node14" class="node">
<title>[0..27.5, 87.8125..91.25]</title>
<polygon fill="none" stroke="black" points="2300,-479 2039,-479 2039,-426 2300,-426 2300,-479"/>
<text text-anchor="middle" x="2169.5" y="-463.8" font-family="Times,serif" font-size="14.00">borders: [[0, 27.5], [87.81, 91.25]]</text>
<text text-anchor="middle" x="2169.5" y="-448.8" font-family="Times,serif" font-size="14.00">path_length: 7</text>
<text text-anchor="middle" x="2169.5" y="-433.8" font-family="Times,serif" font-size="14.00">depth: 7</text>
</g>
<!-- [0..27.5, 84.375..91.25]&#45;&gt;[0..27.5, 87.8125..91.25] -->
<g id="edge14" class="edge">
<title>[0..27.5, 84.375..91.25]&#45;&gt;[0..27.5, 87.8125..91.25]</title>
<path fill="none" stroke="black" d="M1975.78,-452.5C1993.19,-452.5 2011.11,-452.5 2028.69,-452.5"/>
<polygon fill="black" stroke="black" points="2028.99,-456 2038.99,-452.5 2028.99,-449 2028.99,-456"/>
</g>
<!-- [0..27.5, 84.375..86.09375] -->
<g id="node12" class="node">
<title>[0..27.5, 84.375..86.09375]</title>
<polygon fill="none" stroke="black" points="2633.5,-585 2372.5,-585 2372.5,-532 2633.5,-532 2633.5,-585"/>
<text text-anchor="middle" x="2503" y="-569.8" font-family="Times,serif" font-size="14.00">borders: [[0, 27.5], [84.38, 86.09]]</text>
<text text-anchor="middle" x="2503" y="-554.8" font-family="Times,serif" font-size="14.00">path_length: 9</text>
<text text-anchor="middle" x="2503" y="-539.8" font-family="Times,serif" font-size="14.00">depth: 8</text>
</g>
<!-- [0..27.5, 84.375..87.8125]&#45;&gt;[0..27.5, 84.375..86.09375] -->
<g id="edge15" class="edge">
<title>[0..27.5, 84.375..87.8125]&#45;&gt;[0..27.5, 84.375..86.09375]</title>
<path fill="none" stroke="black" d="M2300.09,-537.18C2320.53,-539.34 2341.75,-541.58 2362.41,-543.76"/>
<polygon fill="black" stroke="black" points="2362.19,-547.26 2372.5,-544.83 2362.92,-540.3 2362.19,-547.26"/>
</g>
<!-- [0..27.5, 86.09375..87.8125] -->
<g id="node13" class="node">
<title>[0..27.5, 86.09375..87.8125]</title>
<polygon fill="none" stroke="black" points="2633.5,-514 2372.5,-514 2372.5,-461 2633.5,-461 2633.5,-514"/>
<text text-anchor="middle" x="2503" y="-498.8" font-family="Times,serif" font-size="14.00">borders: [[0, 27.5], [86.09, 87.81]]</text>
<text text-anchor="middle" x="2503" y="-483.8" font-family="Times,serif" font-size="14.00">path_length: 8</text>
<text text-anchor="middle" x="2503" y="-468.8" font-family="Times,serif" font-size="14.00">depth: 8</text>
</g>
<!-- [0..27.5, 84.375..87.8125]&#45;&gt;[0..27.5, 86.09375..87.8125] -->
<g id="edge16" class="edge">
<title>[0..27.5, 84.375..87.8125]&#45;&gt;[0..27.5, 86.09375..87.8125]</title>
<path fill="none" stroke="black" d="M2300.09,-509.43C2320.53,-507.21 2341.75,-504.9 2362.41,-502.66"/>
<polygon fill="black" stroke="black" points="2362.94,-506.12 2372.5,-501.56 2362.18,-499.16 2362.94,-506.12"/>
</g>
<!-- [27.5..55.0, 84.375..87.8125] -->
<g id="node16" class="node">
<title>[27.5..55.0, 84.375..87.8125]</title>
<polygon fill="none" stroke="black" points="2311.5,-408 2027.5,-408 2027.5,-355 2311.5,-355 2311.5,-408"/>
<text text-anchor="middle" x="2169.5" y="-392.8" font-family="Times,serif" font-size="14.00">borders: [[27.5, 55.0], [84.38, 87.81]]</text>
<text text-anchor="middle" x="2169.5" y="-377.8" font-family="Times,serif" font-size="14.00">path_length: 7</text>
<text text-anchor="middle" x="2169.5" y="-362.8" font-family="Times,serif" font-size="14.00">depth: 7</text>
</g>
<!-- [27.5..55.0, 84.375..91.25]&#45;&gt;[27.5..55.0, 84.375..87.8125] -->
<g id="edge17" class="edge">
<title>[27.5..55.0, 84.375..91.25]&#45;&gt;[27.5..55.0, 84.375..87.8125]</title>
<path fill="none" stroke="black" d="M1987.45,-381.5C1997.31,-381.5 2007.27,-381.5 2017.18,-381.5"/>
<polygon fill="black" stroke="black" points="2017.49,-385 2027.49,-381.5 2017.49,-378 2017.49,-385"/>
</g>
<!-- [27.5..55.0, 87.8125..91.25] -->
<g id="node17" class="node">
<title>[27.5..55.0, 87.8125..91.25]</title>
<polygon fill="none" stroke="black" points="2311.5,-337 2027.5,-337 2027.5,-284 2311.5,-284 2311.5,-337"/>
<text text-anchor="middle" x="2169.5" y="-321.8" font-family="Times,serif" font-size="14.00">borders: [[27.5, 55.0], [87.81, 91.25]]</text>
<text text-anchor="middle" x="2169.5" y="-306.8" font-family="Times,serif" font-size="14.00">path_length: 7</text>
<text text-anchor="middle" x="2169.5" y="-291.8" font-family="Times,serif" font-size="14.00">depth: 7</text>
</g>
<!-- [27.5..55.0, 84.375..91.25]&#45;&gt;[27.5..55.0, 87.8125..91.25] -->
<g id="edge18" class="edge">
<title>[27.5..55.0, 84.375..91.25]&#45;&gt;[27.5..55.0, 87.8125..91.25]</title>
<path fill="none" stroke="black" d="M1966.55,-354.96C1989.87,-349.83 2014.41,-344.42 2038.04,-339.22"/>
<polygon fill="black" stroke="black" points="2039.09,-342.57 2048.1,-337.01 2037.58,-335.74 2039.09,-342.57"/>
</g>
<!-- [55.0..82.5, &#45;5..105] -->
<g id="node20" class="node">
<title>[55.0..82.5, &#45;5..105]</title>
<polygon fill="none" stroke="black" points="770,-319 527,-319 527,-266 770,-266 770,-319"/>
<text text-anchor="middle" x="648.5" y="-303.8" font-family="Times,serif" font-size="14.00">borders: [[55.0, 82.5], [&#45;5, 105]]</text>
<text text-anchor="middle" x="648.5" y="-288.8" font-family="Times,serif" font-size="14.00">path_length: 2</text>
<text text-anchor="middle" x="648.5" y="-273.8" font-family="Times,serif" font-size="14.00">depth: 2</text>
</g>
<!-- [55.0..110, &#45;5..105]&#45;&gt;[55.0..82.5, &#45;5..105] -->
<g id="edge19" class="edge">
<title>[55.0..110, &#45;5..105]&#45;&gt;[55.0..82.5, &#45;5..105]</title>
<path fill="none" stroke="black" d="M491.12,-292.5C499.49,-292.5 507.96,-292.5 516.39,-292.5"/>
<polygon fill="black" stroke="black" points="516.66,-296 526.66,-292.5 516.66,-289 516.66,-296"/>
</g>
<!-- [82.5..110, &#45;5..105] -->
<g id="node21" class="node">
<title>[82.5..110, &#45;5..105]</title>
<polygon fill="none" stroke="black" points="768,-248 529,-248 529,-195 768,-195 768,-248"/>
<text text-anchor="middle" x="648.5" y="-232.8" font-family="Times,serif" font-size="14.00">borders: [[82.5, 110], [&#45;5, 105]]</text>
<text text-anchor="middle" x="648.5" y="-217.8" font-family="Times,serif" font-size="14.00">sp: 50.0</text>
<text text-anchor="middle" x="648.5" y="-202.8" font-family="Times,serif" font-size="14.00">dim: 1</text>
</g>
<!-- [55.0..110, &#45;5..105]&#45;&gt;[82.5..110, &#45;5..105] -->
<g id="edge20" class="edge">
<title>[55.0..110, &#45;5..105]&#45;&gt;[82.5..110, &#45;5..105]</title>
<path fill="none" stroke="black" d="M475.29,-265.96C494.74,-260.94 515.17,-255.66 534.9,-250.57"/>
<polygon fill="black" stroke="black" points="536.03,-253.9 544.83,-248.01 534.28,-247.12 536.03,-253.9"/>
</g>
<!-- [82.5..110, &#45;5..50.0] -->
<g id="node22" class="node">
<title>[82.5..110, &#45;5..50.0]</title>
<polygon fill="none" stroke="black" points="1056,-257 813,-257 813,-204 1056,-204 1056,-257"/>
<text text-anchor="middle" x="934.5" y="-241.8" font-family="Times,serif" font-size="14.00">borders: [[82.5, 110], [&#45;5, 50.0]]</text>
<text text-anchor="middle" x="934.5" y="-226.8" font-family="Times,serif" font-size="14.00">sp: 96.25</text>
<text text-anchor="middle" x="934.5" y="-211.8" font-family="Times,serif" font-size="14.00">dim: 0</text>
</g>
<!-- [82.5..110, &#45;5..105]&#45;&gt;[82.5..110, &#45;5..50.0] -->
<g id="edge21" class="edge">
<title>[82.5..110, &#45;5..105]&#45;&gt;[82.5..110, &#45;5..50.0]</title>
<path fill="none" stroke="black" d="M768.3,-225.26C779.7,-225.63 791.31,-225.99 802.82,-226.36"/>
<polygon fill="black" stroke="black" points="802.79,-229.86 812.9,-226.68 803.01,-222.86 802.79,-229.86"/>
</g>
<!-- [82.5..110, 50.0..105] -->
<g id="node39" class="node">
<title>[82.5..110, 50.0..105]</title>
<polygon fill="none" stroke="black" points="1063,-186 806,-186 806,-133 1063,-133 1063,-186"/>
<text text-anchor="middle" x="934.5" y="-170.8" font-family="Times,serif" font-size="14.00">borders: [[82.5, 110], [50.0, 105]]</text>
<text text-anchor="middle" x="934.5" y="-155.8" font-family="Times,serif" font-size="14.00">path_length: 3</text>
<text text-anchor="middle" x="934.5" y="-140.8" font-family="Times,serif" font-size="14.00">depth: 3</text>
</g>
<!-- [82.5..110, &#45;5..105]&#45;&gt;[82.5..110, 50.0..105] -->
<g id="edge22" class="edge">
<title>[82.5..110, &#45;5..105]&#45;&gt;[82.5..110, 50.0..105]</title>
<path fill="none" stroke="black" d="M768.3,-195.57C779.46,-193.13 790.83,-190.65 802.11,-188.18"/>
<polygon fill="black" stroke="black" points="802.96,-191.58 811.98,-186.03 801.47,-184.74 802.96,-191.58"/>
</g>
<!-- [82.5..96.25, &#45;5..50.0] -->
<g id="node23" class="node">
<title>[82.5..96.25, &#45;5..50.0]</title>
<polygon fill="none" stroke="black" points="1356,-257 1099,-257 1099,-204 1356,-204 1356,-257"/>
<text text-anchor="middle" x="1227.5" y="-241.8" font-family="Times,serif" font-size="14.00">borders: [[82.5, 96.25], [&#45;5, 50.0]]</text>
<text text-anchor="middle" x="1227.5" y="-226.8" font-family="Times,serif" font-size="14.00">sp: 22.5</text>
<text text-anchor="middle" x="1227.5" y="-211.8" font-family="Times,serif" font-size="14.00">dim: 1</text>
</g>
<!-- [82.5..110, &#45;5..50.0]&#45;&gt;[82.5..96.25, &#45;5..50.0] -->
<g id="edge23" class="edge">
<title>[82.5..110, &#45;5..50.0]&#45;&gt;[82.5..96.25, &#45;5..50.0]</title>
<path fill="none" stroke="black" d="M1056.38,-230.5C1067.03,-230.5 1077.86,-230.5 1088.64,-230.5"/>
<polygon fill="black" stroke="black" points="1088.95,-234 1098.95,-230.5 1088.95,-227 1088.95,-234"/>
</g>
<!-- [96.25..110, &#45;5..50.0] -->
<g id="node38" class="node">
<title>[96.25..110, &#45;5..50.0]</title>
<polygon fill="none" stroke="black" points="1353.5,-186 1101.5,-186 1101.5,-133 1353.5,-133 1353.5,-186"/>
<text text-anchor="middle" x="1227.5" y="-170.8" font-family="Times,serif" font-size="14.00">borders: [[96.25, 110], [&#45;5, 50.0]]</text>
<text text-anchor="middle" x="1227.5" y="-155.8" font-family="Times,serif" font-size="14.00">path_length: 4</text>
<text text-anchor="middle" x="1227.5" y="-140.8" font-family="Times,serif" font-size="14.00">depth: 4</text>
</g>
<!-- [82.5..110, &#45;5..50.0]&#45;&gt;[96.25..110, &#45;5..50.0] -->
<g id="edge24" class="edge">
<title>[82.5..110, &#45;5..50.0]&#45;&gt;[96.25..110, &#45;5..50.0]</title>
<path fill="none" stroke="black" d="M1044.27,-203.96C1065.04,-198.89 1086.87,-193.57 1107.92,-188.43"/>
<polygon fill="black" stroke="black" points="1108.97,-191.78 1117.86,-186.01 1107.32,-184.98 1108.97,-191.78"/>
</g>
<!-- [82.5..96.25, &#45;5..22.5] -->
<g id="node24" class="node">
<title>[82.5..96.25, &#45;5..22.5]</title>
<polygon fill="none" stroke="black" points="1658,-257 1401,-257 1401,-204 1658,-204 1658,-257"/>
<text text-anchor="middle" x="1529.5" y="-241.8" font-family="Times,serif" font-size="14.00">borders: [[82.5, 96.25], [&#45;5, 22.5]]</text>
<text text-anchor="middle" x="1529.5" y="-226.8" font-family="Times,serif" font-size="14.00">sp: 8.75</text>
<text text-anchor="middle" x="1529.5" y="-211.8" font-family="Times,serif" font-size="14.00">dim: 1</text>
</g>
<!-- [82.5..96.25, &#45;5..50.0]&#45;&gt;[82.5..96.25, &#45;5..22.5] -->
<g id="edge25" class="edge">
<title>[82.5..96.25, &#45;5..50.0]&#45;&gt;[82.5..96.25, &#45;5..22.5]</title>
<path fill="none" stroke="black" d="M1356.16,-230.5C1367.63,-230.5 1379.28,-230.5 1390.83,-230.5"/>
<polygon fill="black" stroke="black" points="1390.95,-234 1400.95,-230.5 1390.95,-227 1390.95,-234"/>
</g>
<!-- [82.5..96.25, 22.5..50.0] -->
<g id="node31" class="node">
<title>[82.5..96.25, 22.5..50.0]</title>
<polygon fill="none" stroke="black" points="1667,-186 1392,-186 1392,-133 1667,-133 1667,-186"/>
<text text-anchor="middle" x="1529.5" y="-170.8" font-family="Times,serif" font-size="14.00">borders: [[82.5, 96.25], [22.5, 50.0]]</text>
<text text-anchor="middle" x="1529.5" y="-155.8" font-family="Times,serif" font-size="14.00">sp: 89.38</text>
<text text-anchor="middle" x="1529.5" y="-140.8" font-family="Times,serif" font-size="14.00">dim: 0</text>
</g>
<!-- [82.5..96.25, &#45;5..50.0]&#45;&gt;[82.5..96.25, 22.5..50.0] -->
<g id="edge26" class="edge">
<title>[82.5..96.25, &#45;5..50.0]&#45;&gt;[82.5..96.25, 22.5..50.0]</title>
<path fill="none" stroke="black" d="M1340.64,-203.96C1362.14,-198.87 1384.75,-193.52 1406.55,-188.36"/>
<polygon fill="black" stroke="black" points="1407.58,-191.72 1416.5,-186.01 1405.96,-184.9 1407.58,-191.72"/>
</g>
<!-- [82.5..96.25, &#45;5..8.75] -->
<g id="node25" class="node">
<title>[82.5..96.25, &#45;5..8.75]</title>
<polygon fill="none" stroke="black" points="1973.5,-328 1716.5,-328 1716.5,-275 1973.5,-275 1973.5,-328"/>
<text text-anchor="middle" x="1845" y="-312.8" font-family="Times,serif" font-size="14.00">borders: [[82.5, 96.25], [&#45;5, 8.75]]</text>
<text text-anchor="middle" x="1845" y="-297.8" font-family="Times,serif" font-size="14.00">path_length: 6</text>
<text text-anchor="middle" x="1845" y="-282.8" font-family="Times,serif" font-size="14.00">depth: 6</text>
</g>
<!-- [82.5..96.25, &#45;5..22.5]&#45;&gt;[82.5..96.25, &#45;5..8.75] -->
<g id="edge27" class="edge">
<title>[82.5..96.25, &#45;5..22.5]&#45;&gt;[82.5..96.25, &#45;5..8.75]</title>
<path fill="none" stroke="black" d="M1647.68,-257.04C1670.36,-262.17 1694.21,-267.58 1717.18,-272.78"/>
<polygon fill="black" stroke="black" points="1716.43,-276.2 1726.96,-274.99 1717.98,-269.37 1716.43,-276.2"/>
</g>
<!-- [82.5..96.25, 8.75..22.5] -->
<g id="node26" class="node">
<title>[82.5..96.25, 8.75..22.5]</title>
<polygon fill="none" stroke="black" points="1982.5,-257 1707.5,-257 1707.5,-204 1982.5,-204 1982.5,-257"/>
<text text-anchor="middle" x="1845" y="-241.8" font-family="Times,serif" font-size="14.00">borders: [[82.5, 96.25], [8.75, 22.5]]</text>
<text text-anchor="middle" x="1845" y="-226.8" font-family="Times,serif" font-size="14.00">sp: 15.63</text>
<text text-anchor="middle" x="1845" y="-211.8" font-family="Times,serif" font-size="14.00">dim: 1</text>
</g>
<!-- [82.5..96.25, &#45;5..22.5]&#45;&gt;[82.5..96.25, 8.75..22.5] -->
<g id="edge28" class="edge">
<title>[82.5..96.25, &#45;5..22.5]&#45;&gt;[82.5..96.25, 8.75..22.5]</title>
<path fill="none" stroke="black" d="M1658.01,-230.5C1670.98,-230.5 1684.23,-230.5 1697.38,-230.5"/>
<polygon fill="black" stroke="black" points="1697.41,-234 1707.41,-230.5 1697.41,-227 1697.41,-234"/>
</g>
<!-- [82.5..96.25, 8.75..15.625] -->
<g id="node27" class="node">
<title>[82.5..96.25, 8.75..15.625]</title>
<polygon fill="none" stroke="black" points="2311.5,-266 2027.5,-266 2027.5,-213 2311.5,-213 2311.5,-266"/>
<text text-anchor="middle" x="2169.5" y="-250.8" font-family="Times,serif" font-size="14.00">borders: [[82.5, 96.25], [8.75, 15.63]]</text>
<text text-anchor="middle" x="2169.5" y="-235.8" font-family="Times,serif" font-size="14.00">sp: 12.19</text>
<text text-anchor="middle" x="2169.5" y="-220.8" font-family="Times,serif" font-size="14.00">dim: 1</text>
</g>
<!-- [82.5..96.25, 8.75..22.5]&#45;&gt;[82.5..96.25, 8.75..15.625] -->
<g id="edge29" class="edge">
<title>[82.5..96.25, 8.75..22.5]&#45;&gt;[82.5..96.25, 8.75..15.625]</title>
<path fill="none" stroke="black" d="M1982.77,-234.32C1994.19,-234.64 2005.77,-234.96 2017.29,-235.28"/>
<polygon fill="black" stroke="black" points="2017.3,-238.78 2027.39,-235.56 2017.49,-231.78 2017.3,-238.78"/>
</g>
<!-- [82.5..96.25, 15.625..22.5] -->
<g id="node30" class="node">
<title>[82.5..96.25, 15.625..22.5]</title>
<polygon fill="none" stroke="black" points="2311.5,-195 2027.5,-195 2027.5,-142 2311.5,-142 2311.5,-195"/>
<text text-anchor="middle" x="2169.5" y="-179.8" font-family="Times,serif" font-size="14.00">borders: [[82.5, 96.25], [15.63, 22.5]]</text>
<text text-anchor="middle" x="2169.5" y="-164.8" font-family="Times,serif" font-size="14.00">path_length: 7</text>
<text text-anchor="middle" x="2169.5" y="-149.8" font-family="Times,serif" font-size="14.00">depth: 7</text>
</g>
<!-- [82.5..96.25, 8.75..22.5]&#45;&gt;[82.5..96.25, 15.625..22.5] -->
<g id="edge30" class="edge">
<title>[82.5..96.25, 8.75..22.5]&#45;&gt;[82.5..96.25, 15.625..22.5]</title>
<path fill="none" stroke="black" d="M1982.77,-204.21C1995.23,-201.81 2007.89,-199.38 2020.45,-196.96"/>
<polygon fill="black" stroke="black" points="2021.33,-200.36 2030.49,-195.03 2020.01,-193.48 2021.33,-200.36"/>
</g>
<!-- [82.5..96.25, 8.75..12.1875] -->
<g id="node28" class="node">
<title>[82.5..96.25, 8.75..12.1875]</title>
<polygon fill="none" stroke="black" points="2645,-319 2361,-319 2361,-266 2645,-266 2645,-319"/>
<text text-anchor="middle" x="2503" y="-303.8" font-family="Times,serif" font-size="14.00">borders: [[82.5, 96.25], [8.75, 12.19]]</text>
<text text-anchor="middle" x="2503" y="-288.8" font-family="Times,serif" font-size="14.00">path_length: 8</text>
<text text-anchor="middle" x="2503" y="-273.8" font-family="Times,serif" font-size="14.00">depth: 8</text>
</g>
<!-- [82.5..96.25, 8.75..15.625]&#45;&gt;[82.5..96.25, 8.75..12.1875] -->
<g id="edge31" class="edge">
<title>[82.5..96.25, 8.75..15.625]&#45;&gt;[82.5..96.25, 8.75..12.1875]</title>
<path fill="none" stroke="black" d="M2311.57,-262.05C2324.56,-264.13 2337.75,-266.24 2350.83,-268.33"/>
<polygon fill="black" stroke="black" points="2350.37,-271.8 2360.8,-269.92 2351.47,-264.89 2350.37,-271.8"/>
</g>
<!-- [82.5..96.25, 12.1875..15.625] -->
<g id="node29" class="node">
<title>[82.5..96.25, 12.1875..15.625]</title>
<polygon fill="none" stroke="black" points="2649.5,-248 2356.5,-248 2356.5,-195 2649.5,-195 2649.5,-248"/>
<text text-anchor="middle" x="2503" y="-232.8" font-family="Times,serif" font-size="14.00">borders: [[82.5, 96.25], [12.19, 15.63]]</text>
<text text-anchor="middle" x="2503" y="-217.8" font-family="Times,serif" font-size="14.00">path_length: 8</text>
<text text-anchor="middle" x="2503" y="-202.8" font-family="Times,serif" font-size="14.00">depth: 8</text>
</g>
<!-- [82.5..96.25, 8.75..15.625]&#45;&gt;[82.5..96.25, 12.1875..15.625] -->
<g id="edge32" class="edge">
<title>[82.5..96.25, 8.75..15.625]&#45;&gt;[82.5..96.25, 12.1875..15.625]</title>
<path fill="none" stroke="black" d="M2311.57,-231.84C2323.02,-231.22 2334.63,-230.59 2346.17,-229.96"/>
<polygon fill="black" stroke="black" points="2346.5,-233.45 2356.29,-229.41 2346.12,-226.46 2346.5,-233.45"/>
</g>
<!-- [82.5..89.375, 22.5..50.0] -->
<g id="node32" class="node">
<title>[82.5..89.375, 22.5..50.0]</title>
<polygon fill="none" stroke="black" points="1982.5,-186 1707.5,-186 1707.5,-133 1982.5,-133 1982.5,-186"/>
<text text-anchor="middle" x="1845" y="-170.8" font-family="Times,serif" font-size="14.00">borders: [[82.5, 89.38], [22.5, 50.0]]</text>
<text text-anchor="middle" x="1845" y="-155.8" font-family="Times,serif" font-size="14.00">path_length: 6</text>
<text text-anchor="middle" x="1845" y="-140.8" font-family="Times,serif" font-size="14.00">depth: 6</text>
</g>
<!-- [82.5..96.25, 22.5..50.0]&#45;&gt;[82.5..89.375, 22.5..50.0] -->
<g id="edge33" class="edge">
<title>[82.5..96.25, 22.5..50.0]&#45;&gt;[82.5..89.375, 22.5..50.0]</title>
<path fill="none" stroke="black" d="M1667.09,-159.5C1677.12,-159.5 1687.25,-159.5 1697.33,-159.5"/>
<polygon fill="black" stroke="black" points="1697.39,-163 1707.39,-159.5 1697.39,-156 1697.39,-163"/>
</g>
<!-- [89.375..96.25, 22.5..50.0] -->
<g id="node33" class="node">
<title>[89.375..96.25, 22.5..50.0]</title>
<polygon fill="none" stroke="black" points="1987,-115 1703,-115 1703,-62 1987,-62 1987,-115"/>
<text text-anchor="middle" x="1845" y="-99.8" font-family="Times,serif" font-size="14.00">borders: [[89.38, 96.25], [22.5, 50.0]]</text>
<text text-anchor="middle" x="1845" y="-84.8" font-family="Times,serif" font-size="14.00">sp: 36.25</text>
<text text-anchor="middle" x="1845" y="-69.8" font-family="Times,serif" font-size="14.00">dim: 1</text>
</g>
<!-- [82.5..96.25, 22.5..50.0]&#45;&gt;[89.375..96.25, 22.5..50.0] -->
<g id="edge34" class="edge">
<title>[82.5..96.25, 22.5..50.0]&#45;&gt;[89.375..96.25, 22.5..50.0]</title>
<path fill="none" stroke="black" d="M1647.68,-132.96C1670.36,-127.83 1694.21,-122.42 1717.18,-117.22"/>
<polygon fill="black" stroke="black" points="1717.98,-120.63 1726.96,-115.01 1716.43,-113.8 1717.98,-120.63"/>
</g>
<!-- [89.375..96.25, 22.5..36.25] -->
<g id="node34" class="node">
<title>[89.375..96.25, 22.5..36.25]</title>
<polygon fill="none" stroke="black" points="2316,-124 2023,-124 2023,-71 2316,-71 2316,-124"/>
<text text-anchor="middle" x="2169.5" y="-108.8" font-family="Times,serif" font-size="14.00">borders: [[89.38, 96.25], [22.5, 36.25]]</text>
<text text-anchor="middle" x="2169.5" y="-93.8" font-family="Times,serif" font-size="14.00">sp: 29.38</text>
<text text-anchor="middle" x="2169.5" y="-78.8" font-family="Times,serif" font-size="14.00">dim: 1</text>
</g>
<!-- [89.375..96.25, 22.5..50.0]&#45;&gt;[89.375..96.25, 22.5..36.25] -->
<g id="edge35" class="edge">
<title>[89.375..96.25, 22.5..50.0]&#45;&gt;[89.375..96.25, 22.5..36.25]</title>
<path fill="none" stroke="black" d="M1987.45,-92.45C1995.82,-92.68 2004.25,-92.92 2012.66,-93.15"/>
<polygon fill="black" stroke="black" points="2012.82,-96.66 2022.91,-93.44 2013.01,-89.66 2012.82,-96.66"/>
</g>
<!-- [89.375..96.25, 36.25..50.0] -->
<g id="node37" class="node">
<title>[89.375..96.25, 36.25..50.0]</title>
<polygon fill="none" stroke="black" points="2316,-53 2023,-53 2023,0 2316,0 2316,-53"/>
<text text-anchor="middle" x="2169.5" y="-37.8" font-family="Times,serif" font-size="14.00">borders: [[89.38, 96.25], [36.25, 50.0]]</text>
<text text-anchor="middle" x="2169.5" y="-22.8" font-family="Times,serif" font-size="14.00">path_length: 7</text>
<text text-anchor="middle" x="2169.5" y="-7.8" font-family="Times,serif" font-size="14.00">depth: 7</text>
</g>
<!-- [89.375..96.25, 22.5..50.0]&#45;&gt;[89.375..96.25, 36.25..50.0] -->
<g id="edge36" class="edge">
<title>[89.375..96.25, 22.5..50.0]&#45;&gt;[89.375..96.25, 36.25..50.0]</title>
<path fill="none" stroke="black" d="M1984.17,-61.94C1996.19,-59.63 2008.39,-57.28 2020.48,-54.96"/>
<polygon fill="black" stroke="black" points="2021.46,-58.33 2030.61,-53.01 2020.13,-51.46 2021.46,-58.33"/>
</g>
<!-- [89.375..96.25, 22.5..29.375] -->
<g id="node35" class="node">
<title>[89.375..96.25, 22.5..29.375]</title>
<polygon fill="none" stroke="black" points="2649.5,-159 2356.5,-159 2356.5,-106 2649.5,-106 2649.5,-159"/>
<text text-anchor="middle" x="2503" y="-143.8" font-family="Times,serif" font-size="14.00">borders: [[89.38, 96.25], [22.5, 29.38]]</text>
<text text-anchor="middle" x="2503" y="-128.8" font-family="Times,serif" font-size="14.00">path_length: 8</text>
<text text-anchor="middle" x="2503" y="-113.8" font-family="Times,serif" font-size="14.00">depth: 8</text>
</g>
<!-- [89.375..96.25, 22.5..36.25]&#45;&gt;[89.375..96.25, 22.5..29.375] -->
<g id="edge37" class="edge">
<title>[89.375..96.25, 22.5..36.25]&#45;&gt;[89.375..96.25, 22.5..29.375]</title>
<path fill="none" stroke="black" d="M2316.38,-112.9C2326.35,-113.95 2336.41,-115.02 2346.43,-116.07"/>
<polygon fill="black" stroke="black" points="2346.11,-119.56 2356.42,-117.13 2346.84,-112.6 2346.11,-119.56"/>
</g>
<!-- [89.375..96.25, 29.375..36.25] -->
<g id="node36" class="node">
<title>[89.375..96.25, 29.375..36.25]</title>
<polygon fill="none" stroke="black" points="2654,-88 2352,-88 2352,-35 2654,-35 2654,-88"/>
<text text-anchor="middle" x="2503" y="-72.8" font-family="Times,serif" font-size="14.00">borders: [[89.38, 96.25], [29.38, 36.25]]</text>
<text text-anchor="middle" x="2503" y="-57.8" font-family="Times,serif" font-size="14.00">path_length: 8</text>
<text text-anchor="middle" x="2503" y="-42.8" font-family="Times,serif" font-size="14.00">depth: 8</text>
</g>
<!-- [89.375..96.25, 22.5..36.25]&#45;&gt;[89.375..96.25, 29.375..36.25] -->
<g id="edge38" class="edge">
<title>[89.375..96.25, 22.5..36.25]&#45;&gt;[89.375..96.25, 29.375..36.25]</title>
<path fill="none" stroke="black" d="M2316.38,-81.66C2324.87,-80.74 2333.43,-79.81 2341.97,-78.88"/>
<polygon fill="black" stroke="black" points="2342.42,-82.35 2351.98,-77.79 2341.66,-75.39 2342.42,-82.35"/>
</g>
</g>
</svg>
