<svg width="1280" height="720" xmlns="http://www.w3.org/2000/svg" xmlns:xlink="http://www.w3.org/1999/xlink" overflow="hidden"><g><rect x="0" y="0" width="1280" height="720" fill="#FFFFFF"/><path d="M476.5 188.5C476.5 154.811 547.239 127.5 634.5 127.5 721.761 127.5 792.5 154.811 792.5 188.5 792.5 222.189 721.761 249.5 634.5 249.5 547.239 249.5 476.5 222.189 476.5 188.5Z" stroke="#000000" stroke-width="1.33333" stroke-miterlimit="8" fill="#FFFFFF" fill-rule="evenodd"/><text font-family="Calibri,Calibri_MSFontService,sans-serif" font-weight="400" font-size="19" transform="translate(553.465 160)">Data: sample(0…100)</text><text font-family="Calibri,Calibri_MSFontService,sans-serif" font-weight="400" font-size="19" transform="translate(550.965 183)">batch= {x; 0 &lt; x &lt; 100}</text><text font-family="Calibri,Calibri_MSFontService,sans-serif" font-weight="400" font-size="19" transform="translate(581.352 205)">Split</text><text font-family="Calibri,Calibri_MSFontService,sans-serif" font-weight="400" font-size="19" transform="translate(618.852 205)">point: 80</text><path d="M0.251082-0.219246 80.3488 91.5094 79.8466 91.9479-0.251082 0.219246ZM82.2336 88.0933 84.4825 96.7502 76.2076 93.3552Z" transform="matrix(-1 0 0 1 534.983 235.5)"/><path d="M723.748 239.277 808.162 333.376 807.665 333.821 723.252 239.723ZM810.001 329.935 812.365 338.561 804.046 335.277Z"/><rect x="316.5" y="59.5001" width="182" height="56" stroke="#000000" stroke-width="1.33333" stroke-miterlimit="8" fill="#FFFFFF"/><text font-family="Calibri,Calibri_MSFontService,sans-serif" font-weight="400" font-size="24" transform="translate(344.181 80)">New point X:</text><text font-family="Calibri,Calibri_MSFontService,sans-serif" font-weight="700" font-size="24" transform="translate(382.761 109)">5000</text><path d="M634.833 47.5001 634.833 120.769 634.167 120.769 634.167 47.5001ZM638.5 119.436 634.5 127.436 630.5 119.436Z"/><path d="M498.613 115.186 582.904 145.42 582.678 146.048 498.388 115.814ZM582.886 141.519 589.066 147.985 580.185 149.049Z" fill="#4472C4"/><path d="M654.5 402.5C654.5 368.811 725.239 341.5 812.5 341.5 899.761 341.5 970.5 368.811 970.5 402.5 970.5 436.189 899.761 463.5 812.5 463.5 725.239 463.5 654.5 436.189 654.5 402.5Z" stroke="#000000" stroke-width="1.33333" stroke-miterlimit="8" fill="#FFFFFF" fill-rule="evenodd"/><text font-family="Calibri,Calibri_MSFontService,sans-serif" font-weight="400" font-size="19" transform="translate(735.985 386)">Data: elements &gt; 80</text><text font-family="Calibri,Calibri_MSFontService,sans-serif" font-weight="400" font-size="19" transform="translate(749.785 408)">(</text><text font-family="Calibri,Calibri_MSFontService,sans-serif" font-weight="700" font-size="19" transform="translate(755.452 408)">including 5000</text><text font-family="Calibri,Calibri_MSFontService,sans-serif" font-weight="400" font-size="19" transform="translate(868.285 408)">)</text><text font-family="Calibri,Calibri_MSFontService,sans-serif" font-weight="400" font-size="24" transform="translate(720.543 310)">&gt; 80</text></g></svg>