<svg width="1280" height="720" xmlns="http://www.w3.org/2000/svg" xmlns:xlink="http://www.w3.org/1999/xlink" overflow="hidden"><g><rect x="0" y="0" width="1280" height="720" fill="#FFFFFF"/><path d="M405.5 267C405.5 219.78 505.117 181.5 628 181.5 750.883 181.5 850.5 219.78 850.5 267 850.5 314.22 750.883 352.5 628 352.5 505.117 352.5 405.5 314.22 405.5 267Z" stroke="#000000" stroke-width="1.33333" stroke-miterlimit="8" fill="#FFFFFF" fill-rule="evenodd"/><text font-family="Calibri,Calibri_MSFontService,sans-serif" font-weight="400" font-size="19" transform="translate(546.848 238)">Data: sample(0…100)</text><text font-family="Calibri,Calibri_MSFontService,sans-serif" font-weight="400" font-size="19" transform="translate(544.348 261)">batch= {x; 0 &lt; x &lt; 100}</text><text font-family="Calibri,Calibri_MSFontService,sans-serif" font-weight="400" font-size="19" transform="translate(574.735 283)">Split</text><text font-family="Calibri,Calibri_MSFontService,sans-serif" font-weight="400" font-size="19" transform="translate(612.235 283)">point: 80</text><path d="M0.250573-0.219828 114.979 130.554 114.477 130.994-0.250573 0.219828ZM116.856 127.134 119.125 135.786 110.842 132.41Z" transform="matrix(-1 0 0 1 487.625 332.5)"/><path d="M753.748 337.277 874.589 471.354 874.094 471.8 753.252 337.723ZM876.42 467.909 878.805 476.529 870.477 473.265Z"/><rect x="179.5" y="85.5001" width="257" height="79" stroke="#000000" stroke-width="1.33333" stroke-miterlimit="8" fill="#FFFFFF"/><text font-family="Calibri,Calibri_MSFontService,sans-serif" font-weight="400" font-size="24" transform="translate(217.363 132)">New point X:</text><text font-family="Calibri,Calibri_MSFontService,sans-serif" font-weight="700" font-size="24" transform="translate(348.69 132)">5000</text><path d="M628.833 68.5001 628.833 174.021 628.167 174.021 628.167 68.5001ZM632.5 172.687 628.5 180.687 624.5 172.687Z"/><path d="M436.612 164.186 558.036 207.536 557.812 208.164 436.388 164.814ZM558.013 203.634 564.203 210.091 555.324 211.169Z" fill="#4472C4"/><path d="M655.5 566.5C655.5 519.004 755.341 480.5 878.5 480.5 1001.66 480.5 1101.5 519.004 1101.5 566.5 1101.5 613.997 1001.66 652.5 878.5 652.5 755.341 652.5 655.5 613.997 655.5 566.5Z" stroke="#000000" stroke-width="1.33333" stroke-miterlimit="8" fill="#FFFFFF" fill-rule="evenodd"/><text font-family="Calibri,Calibri_MSFontService,sans-serif" font-weight="400" font-size="19" transform="translate(738.061 561)">Data: elements &gt; 80 (</text><text font-family="Calibri,Calibri_MSFontService,sans-serif" font-weight="700" font-size="19" transform="translate(899.654 561)">including 5000</text><text font-family="Calibri,Calibri_MSFontService,sans-serif" font-weight="400" font-size="19" transform="translate(1012.49 561)">)</text><text font-family="Calibri,Calibri_MSFontService,sans-serif" font-weight="400" font-size="24" transform="translate(745.403 427)">&gt; 80</text></g></svg>