<svg width="1280" height="720" xmlns="http://www.w3.org/2000/svg" xmlns:xlink="http://www.w3.org/1999/xlink" overflow="hidden"><g><rect x="0" y="0" width="1280" height="720" fill="#FFFFFF"/><path d="M345.5 211.5C345.5 177.258 419.373 149.5 510.5 149.5 601.627 149.5 675.5 177.258 675.5 211.5 675.5 245.742 601.627 273.5 510.5 273.5 419.373 273.5 345.5 245.742 345.5 211.5Z" stroke="#000000" stroke-width="1.33333" stroke-miterlimit="8" fill="#FFFFFF" fill-rule="evenodd"/><text font-family="Calibri,Calibri_MSFontService,sans-serif" font-weight="400" font-size="19" transform="translate(429.355 183)">Data: sample(0…100)</text><text font-family="Calibri,Calibri_MSFontService,sans-serif" font-weight="400" font-size="19" transform="translate(415.275 206)">batch= {x; 0 &lt; x &lt;</text><text font-family="Calibri,Calibri_MSFontService,sans-serif" font-weight="400" font-size="19" transform="translate(547.375 206)">10 000}</text><text font-family="Calibri,Calibri_MSFontService,sans-serif" font-weight="400" font-size="19" transform="translate(445.661 228)">Split point:</text><text font-family="Calibri,Calibri_MSFontService,sans-serif" font-weight="400" font-size="19" transform="translate(532.321 228)">4 000</text><path d="M0.247214-0.223599 84.1649 92.557 83.6704 93.0042-0.247214 0.223599ZM85.9898 89.1085 88.3896 97.7248 80.0567 94.4749Z" transform="matrix(-1 0 0 1 406.89 258.5)"/><path d="M603.744 262.273 692.181 357.449 691.693 357.902 603.256 262.727ZM693.96 353.976 696.475 362.559 688.099 359.422Z"/><rect x="177.5" y="80.5001" width="191" height="57" stroke="#000000" stroke-width="1.33333" stroke-miterlimit="8" fill="#FFFFFF"/><text font-family="Calibri,Calibri_MSFontService,sans-serif" font-weight="400" font-size="24" transform="translate(203.488 102)">New point</text><text font-family="Calibri,Calibri_MSFontService,sans-serif" font-weight="400" font-size="24" transform="translate(310.315 102)">X1:</text><text font-family="Calibri,Calibri_MSFontService,sans-serif" font-weight="700" font-size="24" transform="translate(248.148 131)">5000</text><path d="M510.833 68.5001 510.833 142.575 510.167 142.575 510.167 68.5001ZM514.5 141.241 510.5 149.241 506.5 141.241Z"/><path d="M368.609 137.185 457.064 167.816 456.846 168.446 368.391 137.815ZM457.004 163.915 463.255 170.312 454.386 171.474Z" fill="#4472C4"/><path d="M510.5 427C510.5 393.035 589.074 365.5 686 365.5 782.926 365.5 861.5 393.035 861.5 427 861.5 460.966 782.926 488.5 686 488.5 589.074 488.5 510.5 460.966 510.5 427Z" stroke="#000000" stroke-width="1.33333" stroke-miterlimit="8" fill="#FFFFFF" fill-rule="evenodd"/><text font-family="Calibri,Calibri_MSFontService,sans-serif" font-weight="400" font-size="19" transform="translate(571.994 410)">batch= {x; 4000 &lt;= x &lt; 10 000}</text><text font-family="Calibri,Calibri_MSFontService,sans-serif" font-weight="400" font-size="19" transform="translate(623.38 432)">Split point:</text><text font-family="Calibri,Calibri_MSFontService,sans-serif" font-weight="400" font-size="19" transform="translate(710.04 432)">7000</text><text font-family="Calibri,Calibri_MSFontService,sans-serif" font-weight="400" font-size="24" transform="translate(551.892 328)">&gt;= 4</text><text font-family="Calibri,Calibri_MSFontService,sans-serif" font-weight="400" font-size="24" transform="translate(599.059 328)">00</text><text font-family="Calibri,Calibri_MSFontService,sans-serif" font-weight="400" font-size="24" transform="translate(623.392 328)">0</text><path d="M152.5 418C152.5 384.035 226.597 356.5 318 356.5 409.403 356.5 483.5 384.035 483.5 418 483.5 451.966 409.403 479.5 318 479.5 226.597 479.5 152.5 451.966 152.5 418Z" stroke="#000000" stroke-width="1.33333" stroke-miterlimit="8" fill="#FFFFFF" fill-rule="evenodd"/><text font-family="Calibri,Calibri_MSFontService,sans-serif" font-weight="400" font-size="19" transform="translate(229.535 401)">batch</text><text font-family="Calibri,Calibri_MSFontService,sans-serif" font-weight="400" font-size="19" transform="translate(271.968 401)">= {x; 0 &lt; x &lt;</text><text font-family="Calibri,Calibri_MSFontService,sans-serif" font-weight="400" font-size="19" transform="translate(361.635 401)">4000}</text><text font-family="Calibri,Calibri_MSFontService,sans-serif" font-weight="400" font-size="19" transform="translate(256.248 424)">(including</text><text font-family="Calibri,Calibri_MSFontService,sans-serif" font-weight="700" font-size="19" transform="translate(335.082 424)">2000</text><text font-family="Calibri,Calibri_MSFontService,sans-serif" font-weight="400" font-size="19" transform="translate(373.082 424)">)</text><text font-family="Calibri,Calibri_MSFontService,sans-serif" font-weight="400" font-size="24" transform="translate(374.583 328)">&lt;</text><text font-family="Calibri,Calibri_MSFontService,sans-serif" font-weight="400" font-size="24" transform="translate(392.083 328)">4</text><text font-family="Calibri,Calibri_MSFontService,sans-serif" font-weight="400" font-size="24" transform="translate(409.75 328)">00</text><text font-family="Calibri,Calibri_MSFontService,sans-serif" font-weight="400" font-size="24" transform="translate(434.083 328)">0</text><path d="M777.746 479.275 872.741 583.051 872.25 583.501 777.254 479.725ZM874.546 579.592 876.997 588.194 868.645 584.994Z"/><path d="M724.5 650C724.5 616.035 803.074 588.5 900 588.5 996.926 588.5 1075.5 616.035 1075.5 650 1075.5 683.966 996.926 711.5 900 711.5 803.074 711.5 724.5 683.966 724.5 650Z" stroke="#000000" stroke-width="1.33333" stroke-miterlimit="8" fill="#FFFFFF" fill-rule="evenodd"/><text font-family="Calibri,Calibri_MSFontService,sans-serif" font-weight="400" font-size="19" transform="translate(785.428 645)">batch= {x; 7000 &lt;= x &lt; 10 000}</text><path d="M0.260933-0.207424 82.5165 103.268 81.9946 103.682-0.260933 0.207424ZM84.5571 99.9423 86.4041 108.694 78.2947 104.92Z" transform="matrix(-1 0 0 1 596.904 479.5)"/><path d="M318.5 650C318.5 616.035 397.298 588.5 494.5 588.5 591.702 588.5 670.5 616.035 670.5 650 670.5 683.966 591.702 711.5 494.5 711.5 397.298 711.5 318.5 683.966 318.5 650Z" stroke="#000000" stroke-width="1.33333" stroke-miterlimit="8" fill="#FFFFFF" fill-rule="evenodd"/><text font-family="Calibri,Calibri_MSFontService,sans-serif" font-weight="400" font-size="19" transform="translate(387.223 634)">batch= {x; 4000 &lt;= x &lt; 7000}</text><text font-family="Calibri,Calibri_MSFontService,sans-serif" font-weight="400" font-size="19" transform="translate(431.936 656)">(</text><text font-family="Calibri,Calibri_MSFontService,sans-serif" font-weight="700" font-size="19" transform="translate(437.603 656)">including 5000)</text><rect x="143.5" y="152.5" width="190" height="57" stroke="#000000" stroke-width="1.33333" stroke-miterlimit="8" fill="#FFFFFF"/><text font-family="Calibri,Calibri_MSFontService,sans-serif" font-weight="400" font-size="24" transform="translate(168.974 174)">New point</text><text font-family="Calibri,Calibri_MSFontService,sans-serif" font-weight="400" font-size="24" transform="translate(275.801 174)">X2:</text><text font-family="Calibri,Calibri_MSFontService,sans-serif" font-weight="700" font-size="24" transform="translate(213.634 203)">2000</text></g></svg>